  0
SECTION
  2
HEADER
  9
$ANGBASE
  50
0.0
  9
$ANGDIR
  70
1
  9
$MEASUREMENT
  70
1
  9
$INSUNITS
  70
4
  0
ENDSEC
  0
SECTION
  2
TABLES
  0
TABLE
  2
LTYPE
  70
4
  0
LTYPE
  5
40F
  2
CONTINUOUS
  70
0
  3
Solid line
  72
65
  73
0
  40
0.0
  0
LTYPE
  5
410
  2
DASHDOT
 70
0
  3
Dash Dot ____ _ ____ _
 72
65
 73
4
 40
2.0
 49
1.25
 49
-0.25
 49
0.25
 49
-0.25
  0
LTYPE
  5
411
  2
DASHED
 70
0
  3
Dashed __ __ __ __ __
 72
65
 73
2
 40
0.75
 49
0.5
 49
-0.25
  0
LTYPE
  5
43B
  2
DOTTED
 70
0
  3
Dotted .  .  .  .
 72
65
 73
2
 40
0.2
 49
0.0
 49
-0.2
  0
ENDTAB
  0
TABLE
  2
STYLE
  70
4
  0
STYLE
  2
KICAD
  70
0
  40
0
  41
1
  42
1
  50
0
  71
0
  3
isocp.shx
  0
STYLE
  2
KICADB
  70
0
  40
0
  41
1
  42
1
  50
0
  71
0
  3
isocp.shx
  0
STYLE
  2
KICADI
  70
0
  40
0
  41
1
  42
1
  50
15
  71
0
  3
isocp.shx
  0
STYLE
  2
KICADBI
  70
0
  40
0
  41
1
  42
1
  50
15
  71
0
  3
isocp.shx
  0
ENDTAB
  0
TABLE
  2
LAYER
  70
1
  0
LAYER
  2
Edge.Cuts
  70
0
  62
254
  420
13685453
  6
CONTINUOUS
  0
ENDTAB
  0
ENDSEC
  0
SECTION
  2
ENTITIES
0
LINE
8
Edge.Cuts
6
CONTINUOUS
10
108.3995669999999905
20
-48.6519029999999972
11
108.4130969999999934
21
-48.6654330000000002
0
LINE
8
Edge.Cuts
6
CONTINUOUS
10
108.4130969999999934
20
-48.6654330000000002
11
108.414999999999992
21
-48.6749999999999972
0
LINE
8
Edge.Cuts
6
CONTINUOUS
10
108.414999999999992
20
-48.6749999999999972
11
108.414999999999992
21
-178.6749999999999829
0
LINE
8
Edge.Cuts
6
CONTINUOUS
10
108.414999999999992
20
-178.6749999999999829
11
108.4130969999999934
21
-178.684566999999987
0
LINE
8
Edge.Cuts
6
CONTINUOUS
10
108.4130969999999934
20
-178.684566999999987
11
108.3995669999999905
21
-178.69809699999999
0
LINE
8
Edge.Cuts
6
CONTINUOUS
10
108.3995669999999905
20
-178.69809699999999
11
108.3900000000000006
21
-178.6999999999999886
0
LINE
8
Edge.Cuts
6
CONTINUOUS
10
108.3900000000000006
20
-178.6999999999999886
11
87.3900000000000006
21
-178.6999999999999886
0
LINE
8
Edge.Cuts
6
CONTINUOUS
10
87.3900000000000006
20
-178.6999999999999886
11
87.3804329999999965
21
-178.69809699999999
0
LINE
8
Edge.Cuts
6
CONTINUOUS
10
87.3804329999999965
20
-178.69809699999999
11
87.3669029999999935
21
-178.684566999999987
0
LINE
8
Edge.Cuts
6
CONTINUOUS
10
87.3669029999999935
20
-178.684566999999987
11
87.3649999999999949
21
-178.6749999999999829
0
LINE
8
Edge.Cuts
6
CONTINUOUS
10
87.3649999999999949
20
-178.6749999999999829
11
87.3649999999999949
21
-48.6749999999999972
0
LINE
8
Edge.Cuts
6
CONTINUOUS
10
87.3649999999999949
20
-48.6749999999999972
11
87.3669029999999935
21
-48.6654330000000002
0
LINE
8
Edge.Cuts
6
CONTINUOUS
10
87.3669029999999935
20
-48.6654330000000002
11
87.3804329999999965
21
-48.6519029999999972
0
LINE
8
Edge.Cuts
6
CONTINUOUS
10
87.3804329999999965
20
-48.6519029999999972
11
87.3900000000000006
21
-48.6499999999999986
0
LINE
8
Edge.Cuts
6
CONTINUOUS
10
87.3900000000000006
20
-48.6499999999999986
11
108.3900000000000006
21
-48.6499999999999986
0
LINE
8
Edge.Cuts
6
CONTINUOUS
10
108.3900000000000006
20
-48.6499999999999986
11
108.3995669999999905
21
-48.6519029999999972
0
LINE
8
Edge.Cuts
6
CONTINUOUS
10
87.414999999999992
20
-48.6999999999999957
11
87.414999999999992
21
-178.6500000000000057
0
LINE
8
Edge.Cuts
6
CONTINUOUS
10
87.414999999999992
20
-178.6500000000000057
11
108.3649999999999949
21
-178.6500000000000057
0
LINE
8
Edge.Cuts
6
CONTINUOUS
10
108.3649999999999949
20
-178.6500000000000057
11
108.3649999999999949
21
-48.6999999999999957
0
LINE
8
Edge.Cuts
6
CONTINUOUS
10
108.3649999999999949
20
-48.6999999999999957
11
87.414999999999992
21
-48.6999999999999957
  0
ENDSEC
  0
EOF
