%TF.GenerationSoftware,KiCad,Pcbnew,10.0.3*%
%TF.CreationDate,2026-07-20T10:22:45-07:00*%
%TF.ProjectId,mosaic-x3,6d6f7361-6963-42d7-9833-2e6b69636164,rev?*%
%TF.SameCoordinates,Original*%
%TF.FileFunction,Legend,Top*%
%TF.FilePolarity,Positive*%
%FSLAX46Y46*%
G04 Gerber Fmt 4.6, Leading zero omitted, Abs format (unit mm)*
G04 Created by KiCad (PCBNEW 10.0.3) date 2026-07-20 10:22:45*
%MOMM*%
%LPD*%
G01*
G04 APERTURE LIST*
%ADD10C,0.100000*%
%ADD11C,0.087500*%
%ADD12C,0.093750*%
%ADD13C,0.150000*%
%ADD14C,0.125000*%
%ADD15C,0.120000*%
G04 APERTURE END LIST*
D10*
X90390000Y-105175000D02*
X99640000Y-105258457D01*
X99140000Y-104730638D02*
X99140000Y-105730638D01*
X99140000Y-105730638D02*
X99640000Y-105258457D01*
X99640000Y-105258457D02*
X99140000Y-104730638D01*
D11*
X108022354Y-69975768D02*
X108022354Y-69742435D01*
X108284259Y-69642435D02*
X108284259Y-69975768D01*
X108284259Y-69975768D02*
X107784259Y-69975768D01*
X107784259Y-69975768D02*
X107784259Y-69642435D01*
X108260450Y-69375768D02*
X108284259Y-69275768D01*
X108284259Y-69275768D02*
X108284259Y-69109102D01*
X108284259Y-69109102D02*
X108260450Y-69042435D01*
X108260450Y-69042435D02*
X108236640Y-69009102D01*
X108236640Y-69009102D02*
X108189021Y-68975768D01*
X108189021Y-68975768D02*
X108141402Y-68975768D01*
X108141402Y-68975768D02*
X108093783Y-69009102D01*
X108093783Y-69009102D02*
X108069973Y-69042435D01*
X108069973Y-69042435D02*
X108046164Y-69109102D01*
X108046164Y-69109102D02*
X108022354Y-69242435D01*
X108022354Y-69242435D02*
X107998545Y-69309102D01*
X107998545Y-69309102D02*
X107974735Y-69342435D01*
X107974735Y-69342435D02*
X107927116Y-69375768D01*
X107927116Y-69375768D02*
X107879497Y-69375768D01*
X107879497Y-69375768D02*
X107831878Y-69342435D01*
X107831878Y-69342435D02*
X107808069Y-69309102D01*
X107808069Y-69309102D02*
X107784259Y-69242435D01*
X107784259Y-69242435D02*
X107784259Y-69075768D01*
X107784259Y-69075768D02*
X107808069Y-68975768D01*
X108284259Y-68675768D02*
X107784259Y-68675768D01*
X107784259Y-68675768D02*
X107784259Y-68409101D01*
X107784259Y-68409101D02*
X107808069Y-68342435D01*
X107808069Y-68342435D02*
X107831878Y-68309101D01*
X107831878Y-68309101D02*
X107879497Y-68275768D01*
X107879497Y-68275768D02*
X107950926Y-68275768D01*
X107950926Y-68275768D02*
X107998545Y-68309101D01*
X107998545Y-68309101D02*
X108022354Y-68342435D01*
X108022354Y-68342435D02*
X108046164Y-68409101D01*
X108046164Y-68409101D02*
X108046164Y-68675768D01*
X107784259Y-68042435D02*
X107784259Y-67609101D01*
X107784259Y-67609101D02*
X107974735Y-67842435D01*
X107974735Y-67842435D02*
X107974735Y-67742435D01*
X107974735Y-67742435D02*
X107998545Y-67675768D01*
X107998545Y-67675768D02*
X108022354Y-67642435D01*
X108022354Y-67642435D02*
X108069973Y-67609101D01*
X108069973Y-67609101D02*
X108189021Y-67609101D01*
X108189021Y-67609101D02*
X108236640Y-67642435D01*
X108236640Y-67642435D02*
X108260450Y-67675768D01*
X108260450Y-67675768D02*
X108284259Y-67742435D01*
X108284259Y-67742435D02*
X108284259Y-67942435D01*
X108284259Y-67942435D02*
X108260450Y-68009101D01*
X108260450Y-68009101D02*
X108236640Y-68042435D01*
X107831878Y-67342434D02*
X107808069Y-67309101D01*
X107808069Y-67309101D02*
X107784259Y-67242434D01*
X107784259Y-67242434D02*
X107784259Y-67075768D01*
X107784259Y-67075768D02*
X107808069Y-67009101D01*
X107808069Y-67009101D02*
X107831878Y-66975768D01*
X107831878Y-66975768D02*
X107879497Y-66942434D01*
X107879497Y-66942434D02*
X107927116Y-66942434D01*
X107927116Y-66942434D02*
X107998545Y-66975768D01*
X107998545Y-66975768D02*
X108284259Y-67375768D01*
X108284259Y-67375768D02*
X108284259Y-66942434D01*
X108093783Y-66642434D02*
X108093783Y-66109101D01*
X108260450Y-65809100D02*
X108284259Y-65709100D01*
X108284259Y-65709100D02*
X108284259Y-65542434D01*
X108284259Y-65542434D02*
X108260450Y-65475767D01*
X108260450Y-65475767D02*
X108236640Y-65442434D01*
X108236640Y-65442434D02*
X108189021Y-65409100D01*
X108189021Y-65409100D02*
X108141402Y-65409100D01*
X108141402Y-65409100D02*
X108093783Y-65442434D01*
X108093783Y-65442434D02*
X108069973Y-65475767D01*
X108069973Y-65475767D02*
X108046164Y-65542434D01*
X108046164Y-65542434D02*
X108022354Y-65675767D01*
X108022354Y-65675767D02*
X107998545Y-65742434D01*
X107998545Y-65742434D02*
X107974735Y-65775767D01*
X107974735Y-65775767D02*
X107927116Y-65809100D01*
X107927116Y-65809100D02*
X107879497Y-65809100D01*
X107879497Y-65809100D02*
X107831878Y-65775767D01*
X107831878Y-65775767D02*
X107808069Y-65742434D01*
X107808069Y-65742434D02*
X107784259Y-65675767D01*
X107784259Y-65675767D02*
X107784259Y-65509100D01*
X107784259Y-65509100D02*
X107808069Y-65409100D01*
X107784259Y-65175767D02*
X107784259Y-64742433D01*
X107784259Y-64742433D02*
X107974735Y-64975767D01*
X107974735Y-64975767D02*
X107974735Y-64875767D01*
X107974735Y-64875767D02*
X107998545Y-64809100D01*
X107998545Y-64809100D02*
X108022354Y-64775767D01*
X108022354Y-64775767D02*
X108069973Y-64742433D01*
X108069973Y-64742433D02*
X108189021Y-64742433D01*
X108189021Y-64742433D02*
X108236640Y-64775767D01*
X108236640Y-64775767D02*
X108260450Y-64809100D01*
X108260450Y-64809100D02*
X108284259Y-64875767D01*
X108284259Y-64875767D02*
X108284259Y-65075767D01*
X108284259Y-65075767D02*
X108260450Y-65142433D01*
X108260450Y-65142433D02*
X108236640Y-65175767D01*
X108093783Y-64442433D02*
X108093783Y-63909100D01*
X107784259Y-63642433D02*
X108284259Y-63475766D01*
X108284259Y-63475766D02*
X107927116Y-63342433D01*
X107927116Y-63342433D02*
X108284259Y-63209099D01*
X108284259Y-63209099D02*
X107784259Y-63042433D01*
X108284259Y-62375766D02*
X108046164Y-62609099D01*
X108284259Y-62775766D02*
X107784259Y-62775766D01*
X107784259Y-62775766D02*
X107784259Y-62509099D01*
X107784259Y-62509099D02*
X107808069Y-62442433D01*
X107808069Y-62442433D02*
X107831878Y-62409099D01*
X107831878Y-62409099D02*
X107879497Y-62375766D01*
X107879497Y-62375766D02*
X107950926Y-62375766D01*
X107950926Y-62375766D02*
X107998545Y-62409099D01*
X107998545Y-62409099D02*
X108022354Y-62442433D01*
X108022354Y-62442433D02*
X108046164Y-62509099D01*
X108046164Y-62509099D02*
X108046164Y-62775766D01*
X107784259Y-61942433D02*
X107784259Y-61809099D01*
X107784259Y-61809099D02*
X107808069Y-61742433D01*
X107808069Y-61742433D02*
X107855688Y-61675766D01*
X107855688Y-61675766D02*
X107950926Y-61642433D01*
X107950926Y-61642433D02*
X108117592Y-61642433D01*
X108117592Y-61642433D02*
X108212830Y-61675766D01*
X108212830Y-61675766D02*
X108260450Y-61742433D01*
X108260450Y-61742433D02*
X108284259Y-61809099D01*
X108284259Y-61809099D02*
X108284259Y-61942433D01*
X108284259Y-61942433D02*
X108260450Y-62009099D01*
X108260450Y-62009099D02*
X108212830Y-62075766D01*
X108212830Y-62075766D02*
X108117592Y-62109099D01*
X108117592Y-62109099D02*
X107950926Y-62109099D01*
X107950926Y-62109099D02*
X107855688Y-62075766D01*
X107855688Y-62075766D02*
X107808069Y-62009099D01*
X107808069Y-62009099D02*
X107784259Y-61942433D01*
X107784259Y-61209100D02*
X107784259Y-61075766D01*
X107784259Y-61075766D02*
X107808069Y-61009100D01*
X107808069Y-61009100D02*
X107855688Y-60942433D01*
X107855688Y-60942433D02*
X107950926Y-60909100D01*
X107950926Y-60909100D02*
X108117592Y-60909100D01*
X108117592Y-60909100D02*
X108212830Y-60942433D01*
X108212830Y-60942433D02*
X108260450Y-61009100D01*
X108260450Y-61009100D02*
X108284259Y-61075766D01*
X108284259Y-61075766D02*
X108284259Y-61209100D01*
X108284259Y-61209100D02*
X108260450Y-61275766D01*
X108260450Y-61275766D02*
X108212830Y-61342433D01*
X108212830Y-61342433D02*
X108117592Y-61375766D01*
X108117592Y-61375766D02*
X107950926Y-61375766D01*
X107950926Y-61375766D02*
X107855688Y-61342433D01*
X107855688Y-61342433D02*
X107808069Y-61275766D01*
X107808069Y-61275766D02*
X107784259Y-61209100D01*
X108284259Y-60609100D02*
X107784259Y-60609100D01*
X107784259Y-60609100D02*
X108141402Y-60375767D01*
X108141402Y-60375767D02*
X107784259Y-60142433D01*
X107784259Y-60142433D02*
X108284259Y-60142433D01*
X108093783Y-59809100D02*
X108093783Y-59275767D01*
X108284259Y-58575766D02*
X108284259Y-58975766D01*
X108284259Y-58775766D02*
X107784259Y-58775766D01*
X107784259Y-58775766D02*
X107855688Y-58842433D01*
X107855688Y-58842433D02*
X107903307Y-58909100D01*
X107903307Y-58909100D02*
X107927116Y-58975766D01*
D12*
X88585881Y-109835714D02*
X87835881Y-109835714D01*
X88585881Y-109478571D02*
X87835881Y-109478571D01*
X87835881Y-109478571D02*
X88585881Y-109050000D01*
X88585881Y-109050000D02*
X87835881Y-109050000D01*
X88550167Y-108728571D02*
X88585881Y-108621429D01*
X88585881Y-108621429D02*
X88585881Y-108442857D01*
X88585881Y-108442857D02*
X88550167Y-108371429D01*
X88550167Y-108371429D02*
X88514452Y-108335714D01*
X88514452Y-108335714D02*
X88443024Y-108300000D01*
X88443024Y-108300000D02*
X88371595Y-108300000D01*
X88371595Y-108300000D02*
X88300167Y-108335714D01*
X88300167Y-108335714D02*
X88264452Y-108371429D01*
X88264452Y-108371429D02*
X88228738Y-108442857D01*
X88228738Y-108442857D02*
X88193024Y-108585714D01*
X88193024Y-108585714D02*
X88157309Y-108657143D01*
X88157309Y-108657143D02*
X88121595Y-108692857D01*
X88121595Y-108692857D02*
X88050167Y-108728571D01*
X88050167Y-108728571D02*
X87978738Y-108728571D01*
X87978738Y-108728571D02*
X87907309Y-108692857D01*
X87907309Y-108692857D02*
X87871595Y-108657143D01*
X87871595Y-108657143D02*
X87835881Y-108585714D01*
X87835881Y-108585714D02*
X87835881Y-108407143D01*
X87835881Y-108407143D02*
X87871595Y-108300000D01*
X87835881Y-108085714D02*
X87835881Y-107657143D01*
X88585881Y-107871428D02*
X87835881Y-107871428D01*
X88371595Y-107442856D02*
X88371595Y-107085714D01*
X88585881Y-107514285D02*
X87835881Y-107264285D01*
X87835881Y-107264285D02*
X88585881Y-107014285D01*
X88585881Y-106407142D02*
X88585881Y-106764285D01*
X88585881Y-106764285D02*
X87835881Y-106764285D01*
X88585881Y-105799999D02*
X88585881Y-106157142D01*
X88585881Y-106157142D02*
X87835881Y-106157142D01*
X88585881Y-104978570D02*
X87835881Y-104978570D01*
X87835881Y-104978570D02*
X87835881Y-104692856D01*
X87835881Y-104692856D02*
X87871595Y-104621427D01*
X87871595Y-104621427D02*
X87907309Y-104585713D01*
X87907309Y-104585713D02*
X87978738Y-104549999D01*
X87978738Y-104549999D02*
X88085881Y-104549999D01*
X88085881Y-104549999D02*
X88157309Y-104585713D01*
X88157309Y-104585713D02*
X88193024Y-104621427D01*
X88193024Y-104621427D02*
X88228738Y-104692856D01*
X88228738Y-104692856D02*
X88228738Y-104978570D01*
X87835881Y-104085713D02*
X87835881Y-103942856D01*
X87835881Y-103942856D02*
X87871595Y-103871427D01*
X87871595Y-103871427D02*
X87943024Y-103799999D01*
X87943024Y-103799999D02*
X88085881Y-103764284D01*
X88085881Y-103764284D02*
X88335881Y-103764284D01*
X88335881Y-103764284D02*
X88478738Y-103799999D01*
X88478738Y-103799999D02*
X88550167Y-103871427D01*
X88550167Y-103871427D02*
X88585881Y-103942856D01*
X88585881Y-103942856D02*
X88585881Y-104085713D01*
X88585881Y-104085713D02*
X88550167Y-104157142D01*
X88550167Y-104157142D02*
X88478738Y-104228570D01*
X88478738Y-104228570D02*
X88335881Y-104264284D01*
X88335881Y-104264284D02*
X88085881Y-104264284D01*
X88085881Y-104264284D02*
X87943024Y-104228570D01*
X87943024Y-104228570D02*
X87871595Y-104157142D01*
X87871595Y-104157142D02*
X87835881Y-104085713D01*
X87835881Y-103514285D02*
X88585881Y-103335713D01*
X88585881Y-103335713D02*
X88050167Y-103192856D01*
X88050167Y-103192856D02*
X88585881Y-103049999D01*
X88585881Y-103049999D02*
X87835881Y-102871428D01*
X88193024Y-102585713D02*
X88193024Y-102335713D01*
X88585881Y-102228570D02*
X88585881Y-102585713D01*
X88585881Y-102585713D02*
X87835881Y-102585713D01*
X87835881Y-102585713D02*
X87835881Y-102228570D01*
X88585881Y-101478571D02*
X88228738Y-101728571D01*
X88585881Y-101907142D02*
X87835881Y-101907142D01*
X87835881Y-101907142D02*
X87835881Y-101621428D01*
X87835881Y-101621428D02*
X87871595Y-101549999D01*
X87871595Y-101549999D02*
X87907309Y-101514285D01*
X87907309Y-101514285D02*
X87978738Y-101478571D01*
X87978738Y-101478571D02*
X88085881Y-101478571D01*
X88085881Y-101478571D02*
X88157309Y-101514285D01*
X88157309Y-101514285D02*
X88193024Y-101549999D01*
X88193024Y-101549999D02*
X88228738Y-101621428D01*
X88228738Y-101621428D02*
X88228738Y-101907142D01*
X89721910Y-110121427D02*
X89757625Y-110157141D01*
X89757625Y-110157141D02*
X89793339Y-110264284D01*
X89793339Y-110264284D02*
X89793339Y-110335712D01*
X89793339Y-110335712D02*
X89757625Y-110442855D01*
X89757625Y-110442855D02*
X89686196Y-110514284D01*
X89686196Y-110514284D02*
X89614767Y-110549998D01*
X89614767Y-110549998D02*
X89471910Y-110585712D01*
X89471910Y-110585712D02*
X89364767Y-110585712D01*
X89364767Y-110585712D02*
X89221910Y-110549998D01*
X89221910Y-110549998D02*
X89150482Y-110514284D01*
X89150482Y-110514284D02*
X89079053Y-110442855D01*
X89079053Y-110442855D02*
X89043339Y-110335712D01*
X89043339Y-110335712D02*
X89043339Y-110264284D01*
X89043339Y-110264284D02*
X89079053Y-110157141D01*
X89079053Y-110157141D02*
X89114767Y-110121427D01*
X89043339Y-109657141D02*
X89043339Y-109514284D01*
X89043339Y-109514284D02*
X89079053Y-109442855D01*
X89079053Y-109442855D02*
X89150482Y-109371427D01*
X89150482Y-109371427D02*
X89293339Y-109335712D01*
X89293339Y-109335712D02*
X89543339Y-109335712D01*
X89543339Y-109335712D02*
X89686196Y-109371427D01*
X89686196Y-109371427D02*
X89757625Y-109442855D01*
X89757625Y-109442855D02*
X89793339Y-109514284D01*
X89793339Y-109514284D02*
X89793339Y-109657141D01*
X89793339Y-109657141D02*
X89757625Y-109728570D01*
X89757625Y-109728570D02*
X89686196Y-109799998D01*
X89686196Y-109799998D02*
X89543339Y-109835712D01*
X89543339Y-109835712D02*
X89293339Y-109835712D01*
X89293339Y-109835712D02*
X89150482Y-109799998D01*
X89150482Y-109799998D02*
X89079053Y-109728570D01*
X89079053Y-109728570D02*
X89043339Y-109657141D01*
X89793339Y-109014284D02*
X89043339Y-109014284D01*
X89043339Y-109014284D02*
X89793339Y-108585713D01*
X89793339Y-108585713D02*
X89043339Y-108585713D01*
X89793339Y-108228570D02*
X89043339Y-108228570D01*
X89043339Y-108228570D02*
X89793339Y-107799999D01*
X89793339Y-107799999D02*
X89043339Y-107799999D01*
X89400482Y-107442856D02*
X89400482Y-107192856D01*
X89793339Y-107085713D02*
X89793339Y-107442856D01*
X89793339Y-107442856D02*
X89043339Y-107442856D01*
X89043339Y-107442856D02*
X89043339Y-107085713D01*
X89721910Y-106335714D02*
X89757625Y-106371428D01*
X89757625Y-106371428D02*
X89793339Y-106478571D01*
X89793339Y-106478571D02*
X89793339Y-106549999D01*
X89793339Y-106549999D02*
X89757625Y-106657142D01*
X89757625Y-106657142D02*
X89686196Y-106728571D01*
X89686196Y-106728571D02*
X89614767Y-106764285D01*
X89614767Y-106764285D02*
X89471910Y-106799999D01*
X89471910Y-106799999D02*
X89364767Y-106799999D01*
X89364767Y-106799999D02*
X89221910Y-106764285D01*
X89221910Y-106764285D02*
X89150482Y-106728571D01*
X89150482Y-106728571D02*
X89079053Y-106657142D01*
X89079053Y-106657142D02*
X89043339Y-106549999D01*
X89043339Y-106549999D02*
X89043339Y-106478571D01*
X89043339Y-106478571D02*
X89079053Y-106371428D01*
X89079053Y-106371428D02*
X89114767Y-106335714D01*
X89043339Y-106121428D02*
X89043339Y-105692857D01*
X89793339Y-105907142D02*
X89043339Y-105907142D01*
X89043339Y-105299999D02*
X89043339Y-105157142D01*
X89043339Y-105157142D02*
X89079053Y-105085713D01*
X89079053Y-105085713D02*
X89150482Y-105014285D01*
X89150482Y-105014285D02*
X89293339Y-104978570D01*
X89293339Y-104978570D02*
X89543339Y-104978570D01*
X89543339Y-104978570D02*
X89686196Y-105014285D01*
X89686196Y-105014285D02*
X89757625Y-105085713D01*
X89757625Y-105085713D02*
X89793339Y-105157142D01*
X89793339Y-105157142D02*
X89793339Y-105299999D01*
X89793339Y-105299999D02*
X89757625Y-105371428D01*
X89757625Y-105371428D02*
X89686196Y-105442856D01*
X89686196Y-105442856D02*
X89543339Y-105478570D01*
X89543339Y-105478570D02*
X89293339Y-105478570D01*
X89293339Y-105478570D02*
X89150482Y-105442856D01*
X89150482Y-105442856D02*
X89079053Y-105371428D01*
X89079053Y-105371428D02*
X89043339Y-105299999D01*
X89793339Y-104228571D02*
X89436196Y-104478571D01*
X89793339Y-104657142D02*
X89043339Y-104657142D01*
X89043339Y-104657142D02*
X89043339Y-104371428D01*
X89043339Y-104371428D02*
X89079053Y-104299999D01*
X89079053Y-104299999D02*
X89114767Y-104264285D01*
X89114767Y-104264285D02*
X89186196Y-104228571D01*
X89186196Y-104228571D02*
X89293339Y-104228571D01*
X89293339Y-104228571D02*
X89364767Y-104264285D01*
X89364767Y-104264285D02*
X89400482Y-104299999D01*
X89400482Y-104299999D02*
X89436196Y-104371428D01*
X89436196Y-104371428D02*
X89436196Y-104657142D01*
X89793339Y-103335713D02*
X89043339Y-103335713D01*
X89400482Y-103335713D02*
X89400482Y-102907142D01*
X89793339Y-102907142D02*
X89043339Y-102907142D01*
X89400482Y-102549999D02*
X89400482Y-102299999D01*
X89793339Y-102192856D02*
X89793339Y-102549999D01*
X89793339Y-102549999D02*
X89043339Y-102549999D01*
X89043339Y-102549999D02*
X89043339Y-102192856D01*
X89793339Y-101442857D02*
X89436196Y-101692857D01*
X89793339Y-101871428D02*
X89043339Y-101871428D01*
X89043339Y-101871428D02*
X89043339Y-101585714D01*
X89043339Y-101585714D02*
X89079053Y-101514285D01*
X89079053Y-101514285D02*
X89114767Y-101478571D01*
X89114767Y-101478571D02*
X89186196Y-101442857D01*
X89186196Y-101442857D02*
X89293339Y-101442857D01*
X89293339Y-101442857D02*
X89364767Y-101478571D01*
X89364767Y-101478571D02*
X89400482Y-101514285D01*
X89400482Y-101514285D02*
X89436196Y-101585714D01*
X89436196Y-101585714D02*
X89436196Y-101871428D01*
X89400482Y-101121428D02*
X89400482Y-100871428D01*
X89793339Y-100764285D02*
X89793339Y-101121428D01*
X89793339Y-101121428D02*
X89043339Y-101121428D01*
X89043339Y-101121428D02*
X89043339Y-100764285D01*
D13*
X101723333Y-77534580D02*
X101675714Y-77582200D01*
X101675714Y-77582200D02*
X101532857Y-77629819D01*
X101532857Y-77629819D02*
X101437619Y-77629819D01*
X101437619Y-77629819D02*
X101294762Y-77582200D01*
X101294762Y-77582200D02*
X101199524Y-77486961D01*
X101199524Y-77486961D02*
X101151905Y-77391723D01*
X101151905Y-77391723D02*
X101104286Y-77201247D01*
X101104286Y-77201247D02*
X101104286Y-77058390D01*
X101104286Y-77058390D02*
X101151905Y-76867914D01*
X101151905Y-76867914D02*
X101199524Y-76772676D01*
X101199524Y-76772676D02*
X101294762Y-76677438D01*
X101294762Y-76677438D02*
X101437619Y-76629819D01*
X101437619Y-76629819D02*
X101532857Y-76629819D01*
X101532857Y-76629819D02*
X101675714Y-76677438D01*
X101675714Y-76677438D02*
X101723333Y-76725057D01*
X102056667Y-76629819D02*
X102723333Y-76629819D01*
X102723333Y-76629819D02*
X102294762Y-77629819D01*
X99354819Y-141866666D02*
X98878628Y-142199999D01*
X99354819Y-142438094D02*
X98354819Y-142438094D01*
X98354819Y-142438094D02*
X98354819Y-142057142D01*
X98354819Y-142057142D02*
X98402438Y-141961904D01*
X98402438Y-141961904D02*
X98450057Y-141914285D01*
X98450057Y-141914285D02*
X98545295Y-141866666D01*
X98545295Y-141866666D02*
X98688152Y-141866666D01*
X98688152Y-141866666D02*
X98783390Y-141914285D01*
X98783390Y-141914285D02*
X98831009Y-141961904D01*
X98831009Y-141961904D02*
X98878628Y-142057142D01*
X98878628Y-142057142D02*
X98878628Y-142438094D01*
X98783390Y-141295237D02*
X98735771Y-141390475D01*
X98735771Y-141390475D02*
X98688152Y-141438094D01*
X98688152Y-141438094D02*
X98592914Y-141485713D01*
X98592914Y-141485713D02*
X98545295Y-141485713D01*
X98545295Y-141485713D02*
X98450057Y-141438094D01*
X98450057Y-141438094D02*
X98402438Y-141390475D01*
X98402438Y-141390475D02*
X98354819Y-141295237D01*
X98354819Y-141295237D02*
X98354819Y-141104761D01*
X98354819Y-141104761D02*
X98402438Y-141009523D01*
X98402438Y-141009523D02*
X98450057Y-140961904D01*
X98450057Y-140961904D02*
X98545295Y-140914285D01*
X98545295Y-140914285D02*
X98592914Y-140914285D01*
X98592914Y-140914285D02*
X98688152Y-140961904D01*
X98688152Y-140961904D02*
X98735771Y-141009523D01*
X98735771Y-141009523D02*
X98783390Y-141104761D01*
X98783390Y-141104761D02*
X98783390Y-141295237D01*
X98783390Y-141295237D02*
X98831009Y-141390475D01*
X98831009Y-141390475D02*
X98878628Y-141438094D01*
X98878628Y-141438094D02*
X98973866Y-141485713D01*
X98973866Y-141485713D02*
X99164342Y-141485713D01*
X99164342Y-141485713D02*
X99259580Y-141438094D01*
X99259580Y-141438094D02*
X99307200Y-141390475D01*
X99307200Y-141390475D02*
X99354819Y-141295237D01*
X99354819Y-141295237D02*
X99354819Y-141104761D01*
X99354819Y-141104761D02*
X99307200Y-141009523D01*
X99307200Y-141009523D02*
X99259580Y-140961904D01*
X99259580Y-140961904D02*
X99164342Y-140914285D01*
X99164342Y-140914285D02*
X98973866Y-140914285D01*
X98973866Y-140914285D02*
X98878628Y-140961904D01*
X98878628Y-140961904D02*
X98831009Y-141009523D01*
X98831009Y-141009523D02*
X98783390Y-141104761D01*
X107546411Y-145597112D02*
X107546411Y-145664456D01*
X107546411Y-145664456D02*
X107479067Y-145799143D01*
X107479067Y-145799143D02*
X107411724Y-145866486D01*
X107411724Y-145866486D02*
X107277037Y-145933830D01*
X107277037Y-145933830D02*
X107142350Y-145933830D01*
X107142350Y-145933830D02*
X107041335Y-145900158D01*
X107041335Y-145900158D02*
X106872976Y-145799143D01*
X106872976Y-145799143D02*
X106771961Y-145698128D01*
X106771961Y-145698128D02*
X106670945Y-145529769D01*
X106670945Y-145529769D02*
X106637274Y-145428754D01*
X106637274Y-145428754D02*
X106637274Y-145294067D01*
X106637274Y-145294067D02*
X106704617Y-145159380D01*
X106704617Y-145159380D02*
X106771961Y-145092036D01*
X106771961Y-145092036D02*
X106906648Y-145024693D01*
X106906648Y-145024693D02*
X106973991Y-145024693D01*
X108287189Y-144991021D02*
X107883128Y-145395082D01*
X108085159Y-145193051D02*
X107378052Y-144485945D01*
X107378052Y-144485945D02*
X107411724Y-144654303D01*
X107411724Y-144654303D02*
X107411724Y-144788990D01*
X107411724Y-144788990D02*
X107378052Y-144890006D01*
X98223333Y-99534580D02*
X98175714Y-99582200D01*
X98175714Y-99582200D02*
X98032857Y-99629819D01*
X98032857Y-99629819D02*
X97937619Y-99629819D01*
X97937619Y-99629819D02*
X97794762Y-99582200D01*
X97794762Y-99582200D02*
X97699524Y-99486961D01*
X97699524Y-99486961D02*
X97651905Y-99391723D01*
X97651905Y-99391723D02*
X97604286Y-99201247D01*
X97604286Y-99201247D02*
X97604286Y-99058390D01*
X97604286Y-99058390D02*
X97651905Y-98867914D01*
X97651905Y-98867914D02*
X97699524Y-98772676D01*
X97699524Y-98772676D02*
X97794762Y-98677438D01*
X97794762Y-98677438D02*
X97937619Y-98629819D01*
X97937619Y-98629819D02*
X98032857Y-98629819D01*
X98032857Y-98629819D02*
X98175714Y-98677438D01*
X98175714Y-98677438D02*
X98223333Y-98725057D01*
X98794762Y-99058390D02*
X98699524Y-99010771D01*
X98699524Y-99010771D02*
X98651905Y-98963152D01*
X98651905Y-98963152D02*
X98604286Y-98867914D01*
X98604286Y-98867914D02*
X98604286Y-98820295D01*
X98604286Y-98820295D02*
X98651905Y-98725057D01*
X98651905Y-98725057D02*
X98699524Y-98677438D01*
X98699524Y-98677438D02*
X98794762Y-98629819D01*
X98794762Y-98629819D02*
X98985238Y-98629819D01*
X98985238Y-98629819D02*
X99080476Y-98677438D01*
X99080476Y-98677438D02*
X99128095Y-98725057D01*
X99128095Y-98725057D02*
X99175714Y-98820295D01*
X99175714Y-98820295D02*
X99175714Y-98867914D01*
X99175714Y-98867914D02*
X99128095Y-98963152D01*
X99128095Y-98963152D02*
X99080476Y-99010771D01*
X99080476Y-99010771D02*
X98985238Y-99058390D01*
X98985238Y-99058390D02*
X98794762Y-99058390D01*
X98794762Y-99058390D02*
X98699524Y-99106009D01*
X98699524Y-99106009D02*
X98651905Y-99153628D01*
X98651905Y-99153628D02*
X98604286Y-99248866D01*
X98604286Y-99248866D02*
X98604286Y-99439342D01*
X98604286Y-99439342D02*
X98651905Y-99534580D01*
X98651905Y-99534580D02*
X98699524Y-99582200D01*
X98699524Y-99582200D02*
X98794762Y-99629819D01*
X98794762Y-99629819D02*
X98985238Y-99629819D01*
X98985238Y-99629819D02*
X99080476Y-99582200D01*
X99080476Y-99582200D02*
X99128095Y-99534580D01*
X99128095Y-99534580D02*
X99175714Y-99439342D01*
X99175714Y-99439342D02*
X99175714Y-99248866D01*
X99175714Y-99248866D02*
X99128095Y-99153628D01*
X99128095Y-99153628D02*
X99080476Y-99106009D01*
X99080476Y-99106009D02*
X98985238Y-99058390D01*
X108975057Y-135185238D02*
X108927438Y-135280476D01*
X108927438Y-135280476D02*
X108832200Y-135375714D01*
X108832200Y-135375714D02*
X108689342Y-135518571D01*
X108689342Y-135518571D02*
X108641723Y-135613809D01*
X108641723Y-135613809D02*
X108641723Y-135709047D01*
X108879819Y-135661428D02*
X108832200Y-135756666D01*
X108832200Y-135756666D02*
X108736961Y-135851904D01*
X108736961Y-135851904D02*
X108546485Y-135899523D01*
X108546485Y-135899523D02*
X108213152Y-135899523D01*
X108213152Y-135899523D02*
X108022676Y-135851904D01*
X108022676Y-135851904D02*
X107927438Y-135756666D01*
X107927438Y-135756666D02*
X107879819Y-135661428D01*
X107879819Y-135661428D02*
X107879819Y-135470952D01*
X107879819Y-135470952D02*
X107927438Y-135375714D01*
X107927438Y-135375714D02*
X108022676Y-135280476D01*
X108022676Y-135280476D02*
X108213152Y-135232857D01*
X108213152Y-135232857D02*
X108546485Y-135232857D01*
X108546485Y-135232857D02*
X108736961Y-135280476D01*
X108736961Y-135280476D02*
X108832200Y-135375714D01*
X108832200Y-135375714D02*
X108879819Y-135470952D01*
X108879819Y-135470952D02*
X108879819Y-135661428D01*
X108879819Y-134280476D02*
X108879819Y-134851904D01*
X108879819Y-134566190D02*
X107879819Y-134566190D01*
X107879819Y-134566190D02*
X108022676Y-134661428D01*
X108022676Y-134661428D02*
X108117914Y-134756666D01*
X108117914Y-134756666D02*
X108165533Y-134851904D01*
X98808333Y-128696104D02*
X98760714Y-128734200D01*
X98760714Y-128734200D02*
X98617857Y-128772295D01*
X98617857Y-128772295D02*
X98522619Y-128772295D01*
X98522619Y-128772295D02*
X98379762Y-128734200D01*
X98379762Y-128734200D02*
X98284524Y-128658009D01*
X98284524Y-128658009D02*
X98236905Y-128581819D01*
X98236905Y-128581819D02*
X98189286Y-128429438D01*
X98189286Y-128429438D02*
X98189286Y-128315152D01*
X98189286Y-128315152D02*
X98236905Y-128162771D01*
X98236905Y-128162771D02*
X98284524Y-128086580D01*
X98284524Y-128086580D02*
X98379762Y-128010390D01*
X98379762Y-128010390D02*
X98522619Y-127972295D01*
X98522619Y-127972295D02*
X98617857Y-127972295D01*
X98617857Y-127972295D02*
X98760714Y-128010390D01*
X98760714Y-128010390D02*
X98808333Y-128048485D01*
X99189286Y-128048485D02*
X99236905Y-128010390D01*
X99236905Y-128010390D02*
X99332143Y-127972295D01*
X99332143Y-127972295D02*
X99570238Y-127972295D01*
X99570238Y-127972295D02*
X99665476Y-128010390D01*
X99665476Y-128010390D02*
X99713095Y-128048485D01*
X99713095Y-128048485D02*
X99760714Y-128124676D01*
X99760714Y-128124676D02*
X99760714Y-128200866D01*
X99760714Y-128200866D02*
X99713095Y-128315152D01*
X99713095Y-128315152D02*
X99141667Y-128772295D01*
X99141667Y-128772295D02*
X99760714Y-128772295D01*
X89723333Y-77534580D02*
X89675714Y-77582200D01*
X89675714Y-77582200D02*
X89532857Y-77629819D01*
X89532857Y-77629819D02*
X89437619Y-77629819D01*
X89437619Y-77629819D02*
X89294762Y-77582200D01*
X89294762Y-77582200D02*
X89199524Y-77486961D01*
X89199524Y-77486961D02*
X89151905Y-77391723D01*
X89151905Y-77391723D02*
X89104286Y-77201247D01*
X89104286Y-77201247D02*
X89104286Y-77058390D01*
X89104286Y-77058390D02*
X89151905Y-76867914D01*
X89151905Y-76867914D02*
X89199524Y-76772676D01*
X89199524Y-76772676D02*
X89294762Y-76677438D01*
X89294762Y-76677438D02*
X89437619Y-76629819D01*
X89437619Y-76629819D02*
X89532857Y-76629819D01*
X89532857Y-76629819D02*
X89675714Y-76677438D01*
X89675714Y-76677438D02*
X89723333Y-76725057D01*
X90628095Y-76629819D02*
X90151905Y-76629819D01*
X90151905Y-76629819D02*
X90104286Y-77106009D01*
X90104286Y-77106009D02*
X90151905Y-77058390D01*
X90151905Y-77058390D02*
X90247143Y-77010771D01*
X90247143Y-77010771D02*
X90485238Y-77010771D01*
X90485238Y-77010771D02*
X90580476Y-77058390D01*
X90580476Y-77058390D02*
X90628095Y-77106009D01*
X90628095Y-77106009D02*
X90675714Y-77201247D01*
X90675714Y-77201247D02*
X90675714Y-77439342D01*
X90675714Y-77439342D02*
X90628095Y-77534580D01*
X90628095Y-77534580D02*
X90580476Y-77582200D01*
X90580476Y-77582200D02*
X90485238Y-77629819D01*
X90485238Y-77629819D02*
X90247143Y-77629819D01*
X90247143Y-77629819D02*
X90151905Y-77582200D01*
X90151905Y-77582200D02*
X90104286Y-77534580D01*
X93707200Y-121133332D02*
X93754819Y-120990475D01*
X93754819Y-120990475D02*
X93754819Y-120752380D01*
X93754819Y-120752380D02*
X93707200Y-120657142D01*
X93707200Y-120657142D02*
X93659580Y-120609523D01*
X93659580Y-120609523D02*
X93564342Y-120561904D01*
X93564342Y-120561904D02*
X93469104Y-120561904D01*
X93469104Y-120561904D02*
X93373866Y-120609523D01*
X93373866Y-120609523D02*
X93326247Y-120657142D01*
X93326247Y-120657142D02*
X93278628Y-120752380D01*
X93278628Y-120752380D02*
X93231009Y-120942856D01*
X93231009Y-120942856D02*
X93183390Y-121038094D01*
X93183390Y-121038094D02*
X93135771Y-121085713D01*
X93135771Y-121085713D02*
X93040533Y-121133332D01*
X93040533Y-121133332D02*
X92945295Y-121133332D01*
X92945295Y-121133332D02*
X92850057Y-121085713D01*
X92850057Y-121085713D02*
X92802438Y-121038094D01*
X92802438Y-121038094D02*
X92754819Y-120942856D01*
X92754819Y-120942856D02*
X92754819Y-120704761D01*
X92754819Y-120704761D02*
X92802438Y-120561904D01*
X92754819Y-120228570D02*
X93754819Y-119990475D01*
X93754819Y-119990475D02*
X93040533Y-119799999D01*
X93040533Y-119799999D02*
X93754819Y-119609523D01*
X93754819Y-119609523D02*
X92754819Y-119371428D01*
X93754819Y-118466666D02*
X93754819Y-119038094D01*
X93754819Y-118752380D02*
X92754819Y-118752380D01*
X92754819Y-118752380D02*
X92897676Y-118847618D01*
X92897676Y-118847618D02*
X92992914Y-118942856D01*
X92992914Y-118942856D02*
X93040533Y-119038094D01*
X93333333Y-144804819D02*
X93000000Y-144328628D01*
X92761905Y-144804819D02*
X92761905Y-143804819D01*
X92761905Y-143804819D02*
X93142857Y-143804819D01*
X93142857Y-143804819D02*
X93238095Y-143852438D01*
X93238095Y-143852438D02*
X93285714Y-143900057D01*
X93285714Y-143900057D02*
X93333333Y-143995295D01*
X93333333Y-143995295D02*
X93333333Y-144138152D01*
X93333333Y-144138152D02*
X93285714Y-144233390D01*
X93285714Y-144233390D02*
X93238095Y-144281009D01*
X93238095Y-144281009D02*
X93142857Y-144328628D01*
X93142857Y-144328628D02*
X92761905Y-144328628D01*
X94238095Y-143804819D02*
X93761905Y-143804819D01*
X93761905Y-143804819D02*
X93714286Y-144281009D01*
X93714286Y-144281009D02*
X93761905Y-144233390D01*
X93761905Y-144233390D02*
X93857143Y-144185771D01*
X93857143Y-144185771D02*
X94095238Y-144185771D01*
X94095238Y-144185771D02*
X94190476Y-144233390D01*
X94190476Y-144233390D02*
X94238095Y-144281009D01*
X94238095Y-144281009D02*
X94285714Y-144376247D01*
X94285714Y-144376247D02*
X94285714Y-144614342D01*
X94285714Y-144614342D02*
X94238095Y-144709580D01*
X94238095Y-144709580D02*
X94190476Y-144757200D01*
X94190476Y-144757200D02*
X94095238Y-144804819D01*
X94095238Y-144804819D02*
X93857143Y-144804819D01*
X93857143Y-144804819D02*
X93761905Y-144757200D01*
X93761905Y-144757200D02*
X93714286Y-144709580D01*
X99254819Y-139466666D02*
X98778628Y-139799999D01*
X99254819Y-140038094D02*
X98254819Y-140038094D01*
X98254819Y-140038094D02*
X98254819Y-139657142D01*
X98254819Y-139657142D02*
X98302438Y-139561904D01*
X98302438Y-139561904D02*
X98350057Y-139514285D01*
X98350057Y-139514285D02*
X98445295Y-139466666D01*
X98445295Y-139466666D02*
X98588152Y-139466666D01*
X98588152Y-139466666D02*
X98683390Y-139514285D01*
X98683390Y-139514285D02*
X98731009Y-139561904D01*
X98731009Y-139561904D02*
X98778628Y-139657142D01*
X98778628Y-139657142D02*
X98778628Y-140038094D01*
X99254819Y-138990475D02*
X99254819Y-138799999D01*
X99254819Y-138799999D02*
X99207200Y-138704761D01*
X99207200Y-138704761D02*
X99159580Y-138657142D01*
X99159580Y-138657142D02*
X99016723Y-138561904D01*
X99016723Y-138561904D02*
X98826247Y-138514285D01*
X98826247Y-138514285D02*
X98445295Y-138514285D01*
X98445295Y-138514285D02*
X98350057Y-138561904D01*
X98350057Y-138561904D02*
X98302438Y-138609523D01*
X98302438Y-138609523D02*
X98254819Y-138704761D01*
X98254819Y-138704761D02*
X98254819Y-138895237D01*
X98254819Y-138895237D02*
X98302438Y-138990475D01*
X98302438Y-138990475D02*
X98350057Y-139038094D01*
X98350057Y-139038094D02*
X98445295Y-139085713D01*
X98445295Y-139085713D02*
X98683390Y-139085713D01*
X98683390Y-139085713D02*
X98778628Y-139038094D01*
X98778628Y-139038094D02*
X98826247Y-138990475D01*
X98826247Y-138990475D02*
X98873866Y-138895237D01*
X98873866Y-138895237D02*
X98873866Y-138704761D01*
X98873866Y-138704761D02*
X98826247Y-138609523D01*
X98826247Y-138609523D02*
X98778628Y-138561904D01*
X98778628Y-138561904D02*
X98683390Y-138514285D01*
X87909819Y-152408333D02*
X88624104Y-152408333D01*
X88624104Y-152408333D02*
X88766961Y-152455952D01*
X88766961Y-152455952D02*
X88862200Y-152551190D01*
X88862200Y-152551190D02*
X88909819Y-152694047D01*
X88909819Y-152694047D02*
X88909819Y-152789285D01*
X87909819Y-152027380D02*
X87909819Y-151408333D01*
X87909819Y-151408333D02*
X88290771Y-151741666D01*
X88290771Y-151741666D02*
X88290771Y-151598809D01*
X88290771Y-151598809D02*
X88338390Y-151503571D01*
X88338390Y-151503571D02*
X88386009Y-151455952D01*
X88386009Y-151455952D02*
X88481247Y-151408333D01*
X88481247Y-151408333D02*
X88719342Y-151408333D01*
X88719342Y-151408333D02*
X88814580Y-151455952D01*
X88814580Y-151455952D02*
X88862200Y-151503571D01*
X88862200Y-151503571D02*
X88909819Y-151598809D01*
X88909819Y-151598809D02*
X88909819Y-151884523D01*
X88909819Y-151884523D02*
X88862200Y-151979761D01*
X88862200Y-151979761D02*
X88814580Y-152027380D01*
X95186905Y-123744819D02*
X95186905Y-122744819D01*
X95186905Y-122744819D02*
X95425000Y-122744819D01*
X95425000Y-122744819D02*
X95567857Y-122792438D01*
X95567857Y-122792438D02*
X95663095Y-122887676D01*
X95663095Y-122887676D02*
X95710714Y-122982914D01*
X95710714Y-122982914D02*
X95758333Y-123173390D01*
X95758333Y-123173390D02*
X95758333Y-123316247D01*
X95758333Y-123316247D02*
X95710714Y-123506723D01*
X95710714Y-123506723D02*
X95663095Y-123601961D01*
X95663095Y-123601961D02*
X95567857Y-123697200D01*
X95567857Y-123697200D02*
X95425000Y-123744819D01*
X95425000Y-123744819D02*
X95186905Y-123744819D01*
X96710714Y-123744819D02*
X96139286Y-123744819D01*
X96425000Y-123744819D02*
X96425000Y-122744819D01*
X96425000Y-122744819D02*
X96329762Y-122887676D01*
X96329762Y-122887676D02*
X96234524Y-122982914D01*
X96234524Y-122982914D02*
X96139286Y-123030533D01*
X102564819Y-81141666D02*
X102088628Y-81474999D01*
X102564819Y-81713094D02*
X101564819Y-81713094D01*
X101564819Y-81713094D02*
X101564819Y-81332142D01*
X101564819Y-81332142D02*
X101612438Y-81236904D01*
X101612438Y-81236904D02*
X101660057Y-81189285D01*
X101660057Y-81189285D02*
X101755295Y-81141666D01*
X101755295Y-81141666D02*
X101898152Y-81141666D01*
X101898152Y-81141666D02*
X101993390Y-81189285D01*
X101993390Y-81189285D02*
X102041009Y-81236904D01*
X102041009Y-81236904D02*
X102088628Y-81332142D01*
X102088628Y-81332142D02*
X102088628Y-81713094D01*
X102564819Y-80189285D02*
X102564819Y-80760713D01*
X102564819Y-80474999D02*
X101564819Y-80474999D01*
X101564819Y-80474999D02*
X101707676Y-80570237D01*
X101707676Y-80570237D02*
X101802914Y-80665475D01*
X101802914Y-80665475D02*
X101850533Y-80760713D01*
X101797200Y-86008332D02*
X101844819Y-85865475D01*
X101844819Y-85865475D02*
X101844819Y-85627380D01*
X101844819Y-85627380D02*
X101797200Y-85532142D01*
X101797200Y-85532142D02*
X101749580Y-85484523D01*
X101749580Y-85484523D02*
X101654342Y-85436904D01*
X101654342Y-85436904D02*
X101559104Y-85436904D01*
X101559104Y-85436904D02*
X101463866Y-85484523D01*
X101463866Y-85484523D02*
X101416247Y-85532142D01*
X101416247Y-85532142D02*
X101368628Y-85627380D01*
X101368628Y-85627380D02*
X101321009Y-85817856D01*
X101321009Y-85817856D02*
X101273390Y-85913094D01*
X101273390Y-85913094D02*
X101225771Y-85960713D01*
X101225771Y-85960713D02*
X101130533Y-86008332D01*
X101130533Y-86008332D02*
X101035295Y-86008332D01*
X101035295Y-86008332D02*
X100940057Y-85960713D01*
X100940057Y-85960713D02*
X100892438Y-85913094D01*
X100892438Y-85913094D02*
X100844819Y-85817856D01*
X100844819Y-85817856D02*
X100844819Y-85579761D01*
X100844819Y-85579761D02*
X100892438Y-85436904D01*
X100844819Y-85103570D02*
X101844819Y-84865475D01*
X101844819Y-84865475D02*
X101130533Y-84674999D01*
X101130533Y-84674999D02*
X101844819Y-84484523D01*
X101844819Y-84484523D02*
X100844819Y-84246428D01*
X100844819Y-83960713D02*
X100844819Y-83341666D01*
X100844819Y-83341666D02*
X101225771Y-83674999D01*
X101225771Y-83674999D02*
X101225771Y-83532142D01*
X101225771Y-83532142D02*
X101273390Y-83436904D01*
X101273390Y-83436904D02*
X101321009Y-83389285D01*
X101321009Y-83389285D02*
X101416247Y-83341666D01*
X101416247Y-83341666D02*
X101654342Y-83341666D01*
X101654342Y-83341666D02*
X101749580Y-83389285D01*
X101749580Y-83389285D02*
X101797200Y-83436904D01*
X101797200Y-83436904D02*
X101844819Y-83532142D01*
X101844819Y-83532142D02*
X101844819Y-83817856D01*
X101844819Y-83817856D02*
X101797200Y-83913094D01*
X101797200Y-83913094D02*
X101749580Y-83960713D01*
X97723333Y-77534580D02*
X97675714Y-77582200D01*
X97675714Y-77582200D02*
X97532857Y-77629819D01*
X97532857Y-77629819D02*
X97437619Y-77629819D01*
X97437619Y-77629819D02*
X97294762Y-77582200D01*
X97294762Y-77582200D02*
X97199524Y-77486961D01*
X97199524Y-77486961D02*
X97151905Y-77391723D01*
X97151905Y-77391723D02*
X97104286Y-77201247D01*
X97104286Y-77201247D02*
X97104286Y-77058390D01*
X97104286Y-77058390D02*
X97151905Y-76867914D01*
X97151905Y-76867914D02*
X97199524Y-76772676D01*
X97199524Y-76772676D02*
X97294762Y-76677438D01*
X97294762Y-76677438D02*
X97437619Y-76629819D01*
X97437619Y-76629819D02*
X97532857Y-76629819D01*
X97532857Y-76629819D02*
X97675714Y-76677438D01*
X97675714Y-76677438D02*
X97723333Y-76725057D01*
X98580476Y-76629819D02*
X98390000Y-76629819D01*
X98390000Y-76629819D02*
X98294762Y-76677438D01*
X98294762Y-76677438D02*
X98247143Y-76725057D01*
X98247143Y-76725057D02*
X98151905Y-76867914D01*
X98151905Y-76867914D02*
X98104286Y-77058390D01*
X98104286Y-77058390D02*
X98104286Y-77439342D01*
X98104286Y-77439342D02*
X98151905Y-77534580D01*
X98151905Y-77534580D02*
X98199524Y-77582200D01*
X98199524Y-77582200D02*
X98294762Y-77629819D01*
X98294762Y-77629819D02*
X98485238Y-77629819D01*
X98485238Y-77629819D02*
X98580476Y-77582200D01*
X98580476Y-77582200D02*
X98628095Y-77534580D01*
X98628095Y-77534580D02*
X98675714Y-77439342D01*
X98675714Y-77439342D02*
X98675714Y-77201247D01*
X98675714Y-77201247D02*
X98628095Y-77106009D01*
X98628095Y-77106009D02*
X98580476Y-77058390D01*
X98580476Y-77058390D02*
X98485238Y-77010771D01*
X98485238Y-77010771D02*
X98294762Y-77010771D01*
X98294762Y-77010771D02*
X98199524Y-77058390D01*
X98199524Y-77058390D02*
X98151905Y-77106009D01*
X98151905Y-77106009D02*
X98104286Y-77201247D01*
X102966666Y-127211009D02*
X102633333Y-127211009D01*
X102633333Y-127734819D02*
X102633333Y-126734819D01*
X102633333Y-126734819D02*
X103109523Y-126734819D01*
X104014285Y-127734819D02*
X103442857Y-127734819D01*
X103728571Y-127734819D02*
X103728571Y-126734819D01*
X103728571Y-126734819D02*
X103633333Y-126877676D01*
X103633333Y-126877676D02*
X103538095Y-126972914D01*
X103538095Y-126972914D02*
X103442857Y-127020533D01*
X104871666Y-109937319D02*
X104871666Y-110651604D01*
X104871666Y-110651604D02*
X104824047Y-110794461D01*
X104824047Y-110794461D02*
X104728809Y-110889700D01*
X104728809Y-110889700D02*
X104585952Y-110937319D01*
X104585952Y-110937319D02*
X104490714Y-110937319D01*
X105871666Y-110937319D02*
X105300238Y-110937319D01*
X105585952Y-110937319D02*
X105585952Y-109937319D01*
X105585952Y-109937319D02*
X105490714Y-110080176D01*
X105490714Y-110080176D02*
X105395476Y-110175414D01*
X105395476Y-110175414D02*
X105300238Y-110223033D01*
X87709819Y-171608333D02*
X88424104Y-171608333D01*
X88424104Y-171608333D02*
X88566961Y-171655952D01*
X88566961Y-171655952D02*
X88662200Y-171751190D01*
X88662200Y-171751190D02*
X88709819Y-171894047D01*
X88709819Y-171894047D02*
X88709819Y-171989285D01*
X87709819Y-170655952D02*
X87709819Y-171132142D01*
X87709819Y-171132142D02*
X88186009Y-171179761D01*
X88186009Y-171179761D02*
X88138390Y-171132142D01*
X88138390Y-171132142D02*
X88090771Y-171036904D01*
X88090771Y-171036904D02*
X88090771Y-170798809D01*
X88090771Y-170798809D02*
X88138390Y-170703571D01*
X88138390Y-170703571D02*
X88186009Y-170655952D01*
X88186009Y-170655952D02*
X88281247Y-170608333D01*
X88281247Y-170608333D02*
X88519342Y-170608333D01*
X88519342Y-170608333D02*
X88614580Y-170655952D01*
X88614580Y-170655952D02*
X88662200Y-170703571D01*
X88662200Y-170703571D02*
X88709819Y-170798809D01*
X88709819Y-170798809D02*
X88709819Y-171036904D01*
X88709819Y-171036904D02*
X88662200Y-171132142D01*
X88662200Y-171132142D02*
X88614580Y-171179761D01*
X103666666Y-170104819D02*
X103333333Y-169628628D01*
X103095238Y-170104819D02*
X103095238Y-169104819D01*
X103095238Y-169104819D02*
X103476190Y-169104819D01*
X103476190Y-169104819D02*
X103571428Y-169152438D01*
X103571428Y-169152438D02*
X103619047Y-169200057D01*
X103619047Y-169200057D02*
X103666666Y-169295295D01*
X103666666Y-169295295D02*
X103666666Y-169438152D01*
X103666666Y-169438152D02*
X103619047Y-169533390D01*
X103619047Y-169533390D02*
X103571428Y-169581009D01*
X103571428Y-169581009D02*
X103476190Y-169628628D01*
X103476190Y-169628628D02*
X103095238Y-169628628D01*
X104095238Y-169581009D02*
X104428571Y-169581009D01*
X104571428Y-170104819D02*
X104095238Y-170104819D01*
X104095238Y-170104819D02*
X104095238Y-169104819D01*
X104095238Y-169104819D02*
X104571428Y-169104819D01*
X105333333Y-169581009D02*
X105000000Y-169581009D01*
X105000000Y-170104819D02*
X105000000Y-169104819D01*
X105000000Y-169104819D02*
X105476190Y-169104819D01*
X106000000Y-169104819D02*
X106000000Y-169342914D01*
X105761905Y-169247676D02*
X106000000Y-169342914D01*
X106000000Y-169342914D02*
X106238095Y-169247676D01*
X105857143Y-169533390D02*
X106000000Y-169342914D01*
X106000000Y-169342914D02*
X106142857Y-169533390D01*
X106761905Y-169104819D02*
X106761905Y-169342914D01*
X106523810Y-169247676D02*
X106761905Y-169342914D01*
X106761905Y-169342914D02*
X107000000Y-169247676D01*
X106619048Y-169533390D02*
X106761905Y-169342914D01*
X106761905Y-169342914D02*
X106904762Y-169533390D01*
X101797200Y-95008332D02*
X101844819Y-94865475D01*
X101844819Y-94865475D02*
X101844819Y-94627380D01*
X101844819Y-94627380D02*
X101797200Y-94532142D01*
X101797200Y-94532142D02*
X101749580Y-94484523D01*
X101749580Y-94484523D02*
X101654342Y-94436904D01*
X101654342Y-94436904D02*
X101559104Y-94436904D01*
X101559104Y-94436904D02*
X101463866Y-94484523D01*
X101463866Y-94484523D02*
X101416247Y-94532142D01*
X101416247Y-94532142D02*
X101368628Y-94627380D01*
X101368628Y-94627380D02*
X101321009Y-94817856D01*
X101321009Y-94817856D02*
X101273390Y-94913094D01*
X101273390Y-94913094D02*
X101225771Y-94960713D01*
X101225771Y-94960713D02*
X101130533Y-95008332D01*
X101130533Y-95008332D02*
X101035295Y-95008332D01*
X101035295Y-95008332D02*
X100940057Y-94960713D01*
X100940057Y-94960713D02*
X100892438Y-94913094D01*
X100892438Y-94913094D02*
X100844819Y-94817856D01*
X100844819Y-94817856D02*
X100844819Y-94579761D01*
X100844819Y-94579761D02*
X100892438Y-94436904D01*
X100844819Y-94103570D02*
X101844819Y-93865475D01*
X101844819Y-93865475D02*
X101130533Y-93674999D01*
X101130533Y-93674999D02*
X101844819Y-93484523D01*
X101844819Y-93484523D02*
X100844819Y-93246428D01*
X100940057Y-92913094D02*
X100892438Y-92865475D01*
X100892438Y-92865475D02*
X100844819Y-92770237D01*
X100844819Y-92770237D02*
X100844819Y-92532142D01*
X100844819Y-92532142D02*
X100892438Y-92436904D01*
X100892438Y-92436904D02*
X100940057Y-92389285D01*
X100940057Y-92389285D02*
X101035295Y-92341666D01*
X101035295Y-92341666D02*
X101130533Y-92341666D01*
X101130533Y-92341666D02*
X101273390Y-92389285D01*
X101273390Y-92389285D02*
X101844819Y-92960713D01*
X101844819Y-92960713D02*
X101844819Y-92341666D01*
X103066666Y-98304819D02*
X102733333Y-97828628D01*
X102495238Y-98304819D02*
X102495238Y-97304819D01*
X102495238Y-97304819D02*
X102876190Y-97304819D01*
X102876190Y-97304819D02*
X102971428Y-97352438D01*
X102971428Y-97352438D02*
X103019047Y-97400057D01*
X103019047Y-97400057D02*
X103066666Y-97495295D01*
X103066666Y-97495295D02*
X103066666Y-97638152D01*
X103066666Y-97638152D02*
X103019047Y-97733390D01*
X103019047Y-97733390D02*
X102971428Y-97781009D01*
X102971428Y-97781009D02*
X102876190Y-97828628D01*
X102876190Y-97828628D02*
X102495238Y-97828628D01*
X103495238Y-97781009D02*
X103828571Y-97781009D01*
X103971428Y-98304819D02*
X103495238Y-98304819D01*
X103495238Y-98304819D02*
X103495238Y-97304819D01*
X103495238Y-97304819D02*
X103971428Y-97304819D01*
X104733333Y-97781009D02*
X104400000Y-97781009D01*
X104400000Y-98304819D02*
X104400000Y-97304819D01*
X104400000Y-97304819D02*
X104876190Y-97304819D01*
X105400000Y-97304819D02*
X105400000Y-97542914D01*
X105161905Y-97447676D02*
X105400000Y-97542914D01*
X105400000Y-97542914D02*
X105638095Y-97447676D01*
X105257143Y-97733390D02*
X105400000Y-97542914D01*
X105400000Y-97542914D02*
X105542857Y-97733390D01*
X106161905Y-97304819D02*
X106161905Y-97542914D01*
X105923810Y-97447676D02*
X106161905Y-97542914D01*
X106161905Y-97542914D02*
X106400000Y-97447676D01*
X106019048Y-97733390D02*
X106161905Y-97542914D01*
X106161905Y-97542914D02*
X106304762Y-97733390D01*
X97844819Y-93436904D02*
X98654342Y-93436904D01*
X98654342Y-93436904D02*
X98749580Y-93389285D01*
X98749580Y-93389285D02*
X98797200Y-93341666D01*
X98797200Y-93341666D02*
X98844819Y-93246428D01*
X98844819Y-93246428D02*
X98844819Y-93055952D01*
X98844819Y-93055952D02*
X98797200Y-92960714D01*
X98797200Y-92960714D02*
X98749580Y-92913095D01*
X98749580Y-92913095D02*
X98654342Y-92865476D01*
X98654342Y-92865476D02*
X97844819Y-92865476D01*
X97844819Y-92484523D02*
X97844819Y-91865476D01*
X97844819Y-91865476D02*
X98225771Y-92198809D01*
X98225771Y-92198809D02*
X98225771Y-92055952D01*
X98225771Y-92055952D02*
X98273390Y-91960714D01*
X98273390Y-91960714D02*
X98321009Y-91913095D01*
X98321009Y-91913095D02*
X98416247Y-91865476D01*
X98416247Y-91865476D02*
X98654342Y-91865476D01*
X98654342Y-91865476D02*
X98749580Y-91913095D01*
X98749580Y-91913095D02*
X98797200Y-91960714D01*
X98797200Y-91960714D02*
X98844819Y-92055952D01*
X98844819Y-92055952D02*
X98844819Y-92341666D01*
X98844819Y-92341666D02*
X98797200Y-92436904D01*
X98797200Y-92436904D02*
X98749580Y-92484523D01*
D14*
X87524809Y-65471428D02*
X87929571Y-65471428D01*
X87929571Y-65471428D02*
X87977190Y-65435714D01*
X87977190Y-65435714D02*
X88001000Y-65400000D01*
X88001000Y-65400000D02*
X88024809Y-65328571D01*
X88024809Y-65328571D02*
X88024809Y-65185714D01*
X88024809Y-65185714D02*
X88001000Y-65114285D01*
X88001000Y-65114285D02*
X87977190Y-65078571D01*
X87977190Y-65078571D02*
X87929571Y-65042857D01*
X87929571Y-65042857D02*
X87524809Y-65042857D01*
X87572428Y-64721428D02*
X87548619Y-64685714D01*
X87548619Y-64685714D02*
X87524809Y-64614286D01*
X87524809Y-64614286D02*
X87524809Y-64435714D01*
X87524809Y-64435714D02*
X87548619Y-64364286D01*
X87548619Y-64364286D02*
X87572428Y-64328571D01*
X87572428Y-64328571D02*
X87620047Y-64292857D01*
X87620047Y-64292857D02*
X87667666Y-64292857D01*
X87667666Y-64292857D02*
X87739095Y-64328571D01*
X87739095Y-64328571D02*
X88024809Y-64757143D01*
X88024809Y-64757143D02*
X88024809Y-64292857D01*
D13*
X87194819Y-140623094D02*
X86194819Y-140623094D01*
X86194819Y-140623094D02*
X86194819Y-140384999D01*
X86194819Y-140384999D02*
X86242438Y-140242142D01*
X86242438Y-140242142D02*
X86337676Y-140146904D01*
X86337676Y-140146904D02*
X86432914Y-140099285D01*
X86432914Y-140099285D02*
X86623390Y-140051666D01*
X86623390Y-140051666D02*
X86766247Y-140051666D01*
X86766247Y-140051666D02*
X86956723Y-140099285D01*
X86956723Y-140099285D02*
X87051961Y-140146904D01*
X87051961Y-140146904D02*
X87147200Y-140242142D01*
X87147200Y-140242142D02*
X87194819Y-140384999D01*
X87194819Y-140384999D02*
X87194819Y-140623094D01*
X86290057Y-139670713D02*
X86242438Y-139623094D01*
X86242438Y-139623094D02*
X86194819Y-139527856D01*
X86194819Y-139527856D02*
X86194819Y-139289761D01*
X86194819Y-139289761D02*
X86242438Y-139194523D01*
X86242438Y-139194523D02*
X86290057Y-139146904D01*
X86290057Y-139146904D02*
X86385295Y-139099285D01*
X86385295Y-139099285D02*
X86480533Y-139099285D01*
X86480533Y-139099285D02*
X86623390Y-139146904D01*
X86623390Y-139146904D02*
X87194819Y-139718332D01*
X87194819Y-139718332D02*
X87194819Y-139099285D01*
X105723333Y-77629819D02*
X105390000Y-77153628D01*
X105151905Y-77629819D02*
X105151905Y-76629819D01*
X105151905Y-76629819D02*
X105532857Y-76629819D01*
X105532857Y-76629819D02*
X105628095Y-76677438D01*
X105628095Y-76677438D02*
X105675714Y-76725057D01*
X105675714Y-76725057D02*
X105723333Y-76820295D01*
X105723333Y-76820295D02*
X105723333Y-76963152D01*
X105723333Y-76963152D02*
X105675714Y-77058390D01*
X105675714Y-77058390D02*
X105628095Y-77106009D01*
X105628095Y-77106009D02*
X105532857Y-77153628D01*
X105532857Y-77153628D02*
X105151905Y-77153628D01*
X106104286Y-76725057D02*
X106151905Y-76677438D01*
X106151905Y-76677438D02*
X106247143Y-76629819D01*
X106247143Y-76629819D02*
X106485238Y-76629819D01*
X106485238Y-76629819D02*
X106580476Y-76677438D01*
X106580476Y-76677438D02*
X106628095Y-76725057D01*
X106628095Y-76725057D02*
X106675714Y-76820295D01*
X106675714Y-76820295D02*
X106675714Y-76915533D01*
X106675714Y-76915533D02*
X106628095Y-77058390D01*
X106628095Y-77058390D02*
X106056667Y-77629819D01*
X106056667Y-77629819D02*
X106675714Y-77629819D01*
X99254819Y-144266666D02*
X98778628Y-144599999D01*
X99254819Y-144838094D02*
X98254819Y-144838094D01*
X98254819Y-144838094D02*
X98254819Y-144457142D01*
X98254819Y-144457142D02*
X98302438Y-144361904D01*
X98302438Y-144361904D02*
X98350057Y-144314285D01*
X98350057Y-144314285D02*
X98445295Y-144266666D01*
X98445295Y-144266666D02*
X98588152Y-144266666D01*
X98588152Y-144266666D02*
X98683390Y-144314285D01*
X98683390Y-144314285D02*
X98731009Y-144361904D01*
X98731009Y-144361904D02*
X98778628Y-144457142D01*
X98778628Y-144457142D02*
X98778628Y-144838094D01*
X98254819Y-143933332D02*
X98254819Y-143266666D01*
X98254819Y-143266666D02*
X99254819Y-143695237D01*
X100244819Y-88341666D02*
X99768628Y-88674999D01*
X100244819Y-88913094D02*
X99244819Y-88913094D01*
X99244819Y-88913094D02*
X99244819Y-88532142D01*
X99244819Y-88532142D02*
X99292438Y-88436904D01*
X99292438Y-88436904D02*
X99340057Y-88389285D01*
X99340057Y-88389285D02*
X99435295Y-88341666D01*
X99435295Y-88341666D02*
X99578152Y-88341666D01*
X99578152Y-88341666D02*
X99673390Y-88389285D01*
X99673390Y-88389285D02*
X99721009Y-88436904D01*
X99721009Y-88436904D02*
X99768628Y-88532142D01*
X99768628Y-88532142D02*
X99768628Y-88913094D01*
X99244819Y-88008332D02*
X99244819Y-87389285D01*
X99244819Y-87389285D02*
X99625771Y-87722618D01*
X99625771Y-87722618D02*
X99625771Y-87579761D01*
X99625771Y-87579761D02*
X99673390Y-87484523D01*
X99673390Y-87484523D02*
X99721009Y-87436904D01*
X99721009Y-87436904D02*
X99816247Y-87389285D01*
X99816247Y-87389285D02*
X100054342Y-87389285D01*
X100054342Y-87389285D02*
X100149580Y-87436904D01*
X100149580Y-87436904D02*
X100197200Y-87484523D01*
X100197200Y-87484523D02*
X100244819Y-87579761D01*
X100244819Y-87579761D02*
X100244819Y-87865475D01*
X100244819Y-87865475D02*
X100197200Y-87960713D01*
X100197200Y-87960713D02*
X100149580Y-88008332D01*
X100244819Y-84666666D02*
X99768628Y-84999999D01*
X100244819Y-85238094D02*
X99244819Y-85238094D01*
X99244819Y-85238094D02*
X99244819Y-84857142D01*
X99244819Y-84857142D02*
X99292438Y-84761904D01*
X99292438Y-84761904D02*
X99340057Y-84714285D01*
X99340057Y-84714285D02*
X99435295Y-84666666D01*
X99435295Y-84666666D02*
X99578152Y-84666666D01*
X99578152Y-84666666D02*
X99673390Y-84714285D01*
X99673390Y-84714285D02*
X99721009Y-84761904D01*
X99721009Y-84761904D02*
X99768628Y-84857142D01*
X99768628Y-84857142D02*
X99768628Y-85238094D01*
X99578152Y-83809523D02*
X100244819Y-83809523D01*
X99197200Y-84047618D02*
X99911485Y-84285713D01*
X99911485Y-84285713D02*
X99911485Y-83666666D01*
X87909819Y-162108333D02*
X88624104Y-162108333D01*
X88624104Y-162108333D02*
X88766961Y-162155952D01*
X88766961Y-162155952D02*
X88862200Y-162251190D01*
X88862200Y-162251190D02*
X88909819Y-162394047D01*
X88909819Y-162394047D02*
X88909819Y-162489285D01*
X88243152Y-161203571D02*
X88909819Y-161203571D01*
X87862200Y-161441666D02*
X88576485Y-161679761D01*
X88576485Y-161679761D02*
X88576485Y-161060714D01*
X93473333Y-77534580D02*
X93425714Y-77582200D01*
X93425714Y-77582200D02*
X93282857Y-77629819D01*
X93282857Y-77629819D02*
X93187619Y-77629819D01*
X93187619Y-77629819D02*
X93044762Y-77582200D01*
X93044762Y-77582200D02*
X92949524Y-77486961D01*
X92949524Y-77486961D02*
X92901905Y-77391723D01*
X92901905Y-77391723D02*
X92854286Y-77201247D01*
X92854286Y-77201247D02*
X92854286Y-77058390D01*
X92854286Y-77058390D02*
X92901905Y-76867914D01*
X92901905Y-76867914D02*
X92949524Y-76772676D01*
X92949524Y-76772676D02*
X93044762Y-76677438D01*
X93044762Y-76677438D02*
X93187619Y-76629819D01*
X93187619Y-76629819D02*
X93282857Y-76629819D01*
X93282857Y-76629819D02*
X93425714Y-76677438D01*
X93425714Y-76677438D02*
X93473333Y-76725057D01*
X94330476Y-76963152D02*
X94330476Y-77629819D01*
X94092381Y-76582200D02*
X93854286Y-77296485D01*
X93854286Y-77296485D02*
X94473333Y-77296485D01*
%TO.C,C7*%
D15*
X102201252Y-77940000D02*
X101678748Y-77940000D01*
X102201252Y-79410000D02*
X101678748Y-79410000D01*
%TO.C,R8*%
X95972936Y-140865000D02*
X96427064Y-140865000D01*
X95972936Y-142335000D02*
X96427064Y-142335000D01*
%TO.C,C1*%
X102560000Y-142370000D02*
X99583000Y-142370000D01*
X102560000Y-142410000D02*
X99591000Y-142410000D01*
X102560000Y-142450000D02*
X99598000Y-142450000D01*
X102560000Y-142490000D02*
X99607000Y-142490000D01*
X102560000Y-142530000D02*
X99615000Y-142530000D01*
X102560000Y-142570000D02*
X99624000Y-142570000D01*
X102560000Y-142610000D02*
X99633000Y-142610000D01*
X102560000Y-142650000D02*
X99643000Y-142650000D01*
X102560000Y-142690000D02*
X99653000Y-142690000D01*
X102560000Y-142730000D02*
X99664000Y-142730000D01*
X102560000Y-142770000D02*
X99675000Y-142770000D01*
X102560000Y-142810000D02*
X99687000Y-142810000D01*
X102560000Y-142850000D02*
X99699000Y-142850000D01*
X102560000Y-142890000D02*
X99711000Y-142890000D01*
X102560000Y-142930000D02*
X99724000Y-142930000D01*
X102560000Y-142970000D02*
X99737000Y-142970000D01*
X102560000Y-143010000D02*
X99751000Y-143010000D01*
X102560000Y-143050000D02*
X99765000Y-143050000D01*
X102560000Y-143090000D02*
X99780000Y-143090000D01*
X102560000Y-143130000D02*
X99795000Y-143130000D01*
X102560000Y-143170000D02*
X99811000Y-143170000D01*
X102560000Y-143210000D02*
X99827000Y-143210000D01*
X102560000Y-143250000D02*
X99843000Y-143250000D01*
X102560000Y-143290000D02*
X99860000Y-143290000D01*
X102560000Y-143330000D02*
X99878000Y-143330000D01*
X102560000Y-143370000D02*
X99896000Y-143370000D01*
X102560000Y-143410000D02*
X99915000Y-143410000D01*
X102560000Y-143450000D02*
X99934000Y-143450000D01*
X102560000Y-143490000D02*
X99954000Y-143490000D01*
X102560000Y-143530000D02*
X99974000Y-143530000D01*
X102560000Y-143570000D02*
X99995000Y-143570000D01*
X102560000Y-143610000D02*
X100016000Y-143610000D01*
X102560000Y-143650000D02*
X100038000Y-143650000D01*
X102560000Y-143690000D02*
X100061000Y-143690000D01*
X102560000Y-143730000D02*
X100084000Y-143730000D01*
X102560000Y-143770000D02*
X100107000Y-143770000D01*
X102560000Y-143810000D02*
X100132000Y-143810000D01*
X102560000Y-143850000D02*
X100157000Y-143850000D01*
X102560000Y-143890000D02*
X100182000Y-143890000D01*
X102560000Y-143930000D02*
X100208000Y-143930000D01*
X102560000Y-143970000D02*
X100235000Y-143970000D01*
X102560000Y-144010000D02*
X100263000Y-144010000D01*
X102560000Y-144050000D02*
X100291000Y-144050000D01*
X102560000Y-144090000D02*
X100320000Y-144090000D01*
X102560000Y-144130000D02*
X100350000Y-144130000D01*
X102560000Y-144170000D02*
X100381000Y-144170000D01*
X102560000Y-144210000D02*
X100412000Y-144210000D01*
X102560000Y-144250000D02*
X100444000Y-144250000D01*
X102560000Y-144290000D02*
X100477000Y-144290000D01*
X102560000Y-144330000D02*
X100511000Y-144330000D01*
X102560000Y-144370000D02*
X100545000Y-144370000D01*
X102560000Y-144410000D02*
X100581000Y-144410000D01*
X104133000Y-145730000D02*
X103067000Y-145730000D01*
X104368000Y-145690000D02*
X102832000Y-145690000D01*
X104547000Y-145650000D02*
X102653000Y-145650000D01*
X104697000Y-145610000D02*
X102503000Y-145610000D01*
X104828000Y-145570000D02*
X102372000Y-145570000D01*
X104946000Y-145530000D02*
X102254000Y-145530000D01*
X105053000Y-145490000D02*
X102147000Y-145490000D01*
X105152000Y-145450000D02*
X102048000Y-145450000D01*
X105244000Y-145410000D02*
X101956000Y-145410000D01*
X105331000Y-145370000D02*
X101869000Y-145370000D01*
X105413000Y-145330000D02*
X101787000Y-145330000D01*
X105490000Y-145290000D02*
X101710000Y-145290000D01*
X105564000Y-145250000D02*
X101636000Y-145250000D01*
X105634000Y-145210000D02*
X101566000Y-145210000D01*
X105701000Y-145170000D02*
X101499000Y-145170000D01*
X105765000Y-145130000D02*
X101435000Y-145130000D01*
X105827000Y-145090000D02*
X101373000Y-145090000D01*
X105887000Y-145050000D02*
X101313000Y-145050000D01*
X105915000Y-137240302D02*
X105915000Y-138040302D01*
X105944000Y-145010000D02*
X101256000Y-145010000D01*
X106000000Y-144970000D02*
X101200000Y-144970000D01*
X106053000Y-144930000D02*
X101147000Y-144930000D01*
X106105000Y-144890000D02*
X101095000Y-144890000D01*
X106155000Y-144850000D02*
X101045000Y-144850000D01*
X106204000Y-144810000D02*
X100996000Y-144810000D01*
X106251000Y-144770000D02*
X100949000Y-144770000D01*
X106296000Y-144730000D02*
X100904000Y-144730000D01*
X106315000Y-137640302D02*
X105515000Y-137640302D01*
X106341000Y-144690000D02*
X100859000Y-144690000D01*
X106384000Y-144650000D02*
X100816000Y-144650000D01*
X106426000Y-144610000D02*
X100774000Y-144610000D01*
X106467000Y-144570000D02*
X100733000Y-144570000D01*
X106506000Y-144530000D02*
X100694000Y-144530000D01*
X106545000Y-144490000D02*
X100655000Y-144490000D01*
X106582000Y-144450000D02*
X100618000Y-144450000D01*
X106619000Y-144410000D02*
X104640000Y-144410000D01*
X106655000Y-144370000D02*
X104640000Y-144370000D01*
X106689000Y-144330000D02*
X104640000Y-144330000D01*
X106723000Y-144290000D02*
X104640000Y-144290000D01*
X106756000Y-144250000D02*
X104640000Y-144250000D01*
X106788000Y-144210000D02*
X104640000Y-144210000D01*
X106819000Y-144170000D02*
X104640000Y-144170000D01*
X106850000Y-144130000D02*
X104640000Y-144130000D01*
X106880000Y-144090000D02*
X104640000Y-144090000D01*
X106909000Y-144050000D02*
X104640000Y-144050000D01*
X106937000Y-144010000D02*
X104640000Y-144010000D01*
X106965000Y-143970000D02*
X104640000Y-143970000D01*
X106992000Y-143930000D02*
X104640000Y-143930000D01*
X107018000Y-143890000D02*
X104640000Y-143890000D01*
X107043000Y-143850000D02*
X104640000Y-143850000D01*
X107068000Y-143810000D02*
X104640000Y-143810000D01*
X107093000Y-143770000D02*
X104640000Y-143770000D01*
X107116000Y-143730000D02*
X104640000Y-143730000D01*
X107139000Y-143690000D02*
X104640000Y-143690000D01*
X107162000Y-143650000D02*
X104640000Y-143650000D01*
X107184000Y-143610000D02*
X104640000Y-143610000D01*
X107205000Y-143570000D02*
X104640000Y-143570000D01*
X107226000Y-143530000D02*
X104640000Y-143530000D01*
X107246000Y-143490000D02*
X104640000Y-143490000D01*
X107266000Y-143450000D02*
X104640000Y-143450000D01*
X107285000Y-143410000D02*
X104640000Y-143410000D01*
X107304000Y-143370000D02*
X104640000Y-143370000D01*
X107322000Y-143330000D02*
X104640000Y-143330000D01*
X107340000Y-143290000D02*
X104640000Y-143290000D01*
X107357000Y-143250000D02*
X104640000Y-143250000D01*
X107373000Y-143210000D02*
X104640000Y-143210000D01*
X107389000Y-143170000D02*
X104640000Y-143170000D01*
X107405000Y-143130000D02*
X104640000Y-143130000D01*
X107420000Y-143090000D02*
X104640000Y-143090000D01*
X107435000Y-143050000D02*
X104640000Y-143050000D01*
X107449000Y-143010000D02*
X104640000Y-143010000D01*
X107463000Y-142970000D02*
X104640000Y-142970000D01*
X107476000Y-142930000D02*
X104640000Y-142930000D01*
X107489000Y-142890000D02*
X104640000Y-142890000D01*
X107501000Y-142850000D02*
X104640000Y-142850000D01*
X107513000Y-142810000D02*
X104640000Y-142810000D01*
X107525000Y-142770000D02*
X104640000Y-142770000D01*
X107536000Y-142730000D02*
X104640000Y-142730000D01*
X107547000Y-142690000D02*
X104640000Y-142690000D01*
X107557000Y-142650000D02*
X104640000Y-142650000D01*
X107567000Y-142610000D02*
X104640000Y-142610000D01*
X107576000Y-142570000D02*
X104640000Y-142570000D01*
X107585000Y-142530000D02*
X104640000Y-142530000D01*
X107593000Y-142490000D02*
X104640000Y-142490000D01*
X107602000Y-142450000D02*
X104640000Y-142450000D01*
X107609000Y-142410000D02*
X104640000Y-142410000D01*
X107617000Y-142370000D02*
X104640000Y-142370000D01*
X107623000Y-142330000D02*
X99577000Y-142330000D01*
X107630000Y-142290000D02*
X99570000Y-142290000D01*
X107636000Y-142250000D02*
X99564000Y-142250000D01*
X107642000Y-142210000D02*
X99558000Y-142210000D01*
X107647000Y-142170000D02*
X99553000Y-142170000D01*
X107652000Y-142130000D02*
X99548000Y-142130000D01*
X107656000Y-142090000D02*
X99544000Y-142090000D01*
X107661000Y-142050000D02*
X99539000Y-142050000D01*
X107664000Y-142010000D02*
X99536000Y-142010000D01*
X107668000Y-141970000D02*
X99532000Y-141970000D01*
X107670000Y-141930000D02*
X99530000Y-141930000D01*
X107673000Y-141890000D02*
X99527000Y-141890000D01*
X107675000Y-141850000D02*
X99525000Y-141850000D01*
X107677000Y-141810000D02*
X99523000Y-141810000D01*
X107678000Y-141770000D02*
X99522000Y-141770000D01*
X107679000Y-141730000D02*
X99521000Y-141730000D01*
X107680000Y-141650000D02*
X99520000Y-141650000D01*
X107680000Y-141690000D02*
X99520000Y-141690000D01*
X107720000Y-141650000D02*
G75*
G02*
X99480000Y-141650000I-4120000J0D01*
G01*
X99480000Y-141650000D02*
G75*
G02*
X107720000Y-141650000I4120000J0D01*
G01*
%TO.C,U1*%
X90990000Y-128590000D02*
X90990000Y-129850000D01*
X90990000Y-135410000D02*
X90990000Y-134150000D01*
X94750000Y-128590000D02*
X90990000Y-128590000D01*
X94750000Y-135410000D02*
X90990000Y-135410000D01*
X96030000Y-135310000D02*
X96270000Y-135640000D01*
X95790000Y-135640000D01*
X96030000Y-135310000D01*
G36*
X96270000Y-135640000D02*
G01*
X95790000Y-135640000D01*
X96030000Y-135310000D01*
X96270000Y-135640000D01*
G37*
%TO.C,C8*%
X97655000Y-96936252D02*
X97655000Y-96413748D01*
X99125000Y-96936252D02*
X99125000Y-96413748D01*
%TO.C,Q1*%
X100690000Y-129790000D02*
X101950000Y-129790000D01*
X100690000Y-133550000D02*
X100690000Y-129790000D01*
X107510000Y-129790000D02*
X106250000Y-129790000D01*
X107510000Y-133550000D02*
X107510000Y-129790000D01*
X100790000Y-134830000D02*
X100460000Y-135070000D01*
X100460000Y-134590000D01*
X100790000Y-134830000D01*
G36*
X100790000Y-134830000D02*
G01*
X100460000Y-135070000D01*
X100460000Y-134590000D01*
X100790000Y-134830000D01*
G37*
%TO.C,R6*%
X95465000Y-125672936D02*
X95465000Y-126127064D01*
X96935000Y-125672936D02*
X96935000Y-126127064D01*
%TO.C,C2*%
X98165000Y-130338748D02*
X98165000Y-130861252D01*
X99635000Y-130338748D02*
X99635000Y-130861252D01*
%TO.C,C5*%
X90151252Y-77940000D02*
X89628748Y-77940000D01*
X90151252Y-79410000D02*
X89628748Y-79410000D01*
%TO.C,SW1*%
X87400000Y-116100000D02*
X87400000Y-118300000D01*
X87400000Y-122400000D02*
X87400000Y-124700000D01*
X92000000Y-116100000D02*
X92000000Y-124700000D01*
%TO.C,R5*%
X91027064Y-143565000D02*
X90572936Y-143565000D01*
X91027064Y-145035000D02*
X90572936Y-145035000D01*
%TO.C,R9*%
X95972936Y-138565000D02*
X96427064Y-138565000D01*
X95972936Y-140035000D02*
X96427064Y-140035000D01*
%TO.C,J3*%
X87945000Y-145940000D02*
X87945000Y-147360000D01*
X87945000Y-147360000D02*
X92445000Y-147360000D01*
X87945000Y-154640000D02*
X92445000Y-154640000D01*
X87945000Y-156060000D02*
X87945000Y-154640000D01*
X88255000Y-153200000D02*
X88855000Y-153500000D01*
X88255000Y-153800000D02*
X88255000Y-153200000D01*
X88855000Y-153500000D02*
X88255000Y-153800000D01*
X92445000Y-147360000D02*
X92445000Y-151000000D01*
X92445000Y-154640000D02*
X92445000Y-151000000D01*
X99665000Y-145940000D02*
X87945000Y-145940000D01*
X99665000Y-151000000D02*
X99665000Y-145940000D01*
X99665000Y-151000000D02*
X99665000Y-156060000D01*
X99665000Y-156060000D02*
X87945000Y-156060000D01*
X93555000Y-148250000D02*
X99055000Y-148250000D01*
X99055000Y-148750000D01*
X93555000Y-148750000D01*
X93555000Y-148250000D01*
X93555000Y-150750000D02*
X99055000Y-150750000D01*
X99055000Y-151250000D01*
X93555000Y-151250000D01*
X93555000Y-150750000D01*
X93555000Y-153250000D02*
X99055000Y-153250000D01*
X99055000Y-153750000D01*
X93555000Y-153750000D01*
X93555000Y-153250000D01*
%TO.C,D1*%
X94650000Y-115490000D02*
X94650000Y-121000000D01*
X97950000Y-115490000D02*
X94650000Y-115490000D01*
X97950000Y-115490000D02*
X97950000Y-121000000D01*
%TO.C,J2*%
X85890000Y-80725000D02*
X85890000Y-90125000D01*
X87790000Y-80725000D02*
X85890000Y-80725000D01*
X87790000Y-90125000D02*
X85890000Y-90125000D01*
X91690000Y-80725000D02*
X89690000Y-80725000D01*
X91690000Y-90125000D02*
X89690000Y-90125000D01*
%TO.C,R1*%
X99472936Y-80265000D02*
X99927064Y-80265000D01*
X99472936Y-81735000D02*
X99927064Y-81735000D01*
%TO.C,C3*%
X98165000Y-134438748D02*
X98165000Y-134961252D01*
X99635000Y-134438748D02*
X99635000Y-134961252D01*
%TO.C,SW3*%
X102320000Y-83325000D02*
X102810000Y-82835000D01*
X102320000Y-86225000D02*
X102320000Y-83325000D01*
X102320000Y-86225000D02*
X102810000Y-86715000D01*
X106080000Y-82055000D02*
X104000000Y-82055000D01*
X106080000Y-87495000D02*
X104000000Y-87495000D01*
X107760000Y-83325000D02*
X107270000Y-82835000D01*
X107760000Y-86225000D02*
X107270000Y-86715000D01*
X107760000Y-86225000D02*
X107760000Y-83325000D01*
%TO.C,C6*%
X98151252Y-77940000D02*
X97628748Y-77940000D01*
X98151252Y-79410000D02*
X97628748Y-79410000D01*
%TO.C,F1*%
X105503752Y-120930000D02*
X101096248Y-120930000D01*
X105503752Y-126270000D02*
X101096248Y-126270000D01*
%TO.C,J1*%
X99475000Y-112062500D02*
X105005000Y-112062500D01*
X99475000Y-119602500D02*
X99475000Y-112062500D01*
X105605000Y-112062500D02*
X107325000Y-112062500D01*
X107325000Y-112062500D02*
X107325000Y-119602500D01*
X107325000Y-119602500D02*
X99475000Y-119602500D01*
X105305000Y-112062500D02*
X104865000Y-111452500D01*
X105745000Y-111452500D01*
X105305000Y-112062500D01*
G36*
X105305000Y-112062500D02*
G01*
X104865000Y-111452500D01*
X105745000Y-111452500D01*
X105305000Y-112062500D01*
G37*
%TO.C,J5*%
X87845000Y-167490000D02*
X87845000Y-168910000D01*
X87845000Y-168910000D02*
X92345000Y-168910000D01*
X87845000Y-173690000D02*
X92345000Y-173690000D01*
X87845000Y-175110000D02*
X87845000Y-173690000D01*
X88155000Y-172250000D02*
X88755000Y-172550000D01*
X88155000Y-172850000D02*
X88155000Y-172250000D01*
X88755000Y-172550000D02*
X88155000Y-172850000D01*
X92345000Y-168910000D02*
X92345000Y-171300000D01*
X92345000Y-173690000D02*
X92345000Y-171300000D01*
X99565000Y-167490000D02*
X87845000Y-167490000D01*
X99565000Y-171300000D02*
X99565000Y-167490000D01*
X99565000Y-171300000D02*
X99565000Y-175110000D01*
X99565000Y-175110000D02*
X87845000Y-175110000D01*
X93455000Y-169800000D02*
X98955000Y-169800000D01*
X98955000Y-170300000D01*
X93455000Y-170300000D01*
X93455000Y-169800000D01*
X93455000Y-172300000D02*
X98955000Y-172300000D01*
X98955000Y-172800000D01*
X93455000Y-172800000D01*
X93455000Y-172300000D01*
%TO.C,SW2*%
X102320000Y-92325000D02*
X102810000Y-91835000D01*
X102320000Y-95225000D02*
X102320000Y-92325000D01*
X102320000Y-95225000D02*
X102810000Y-95715000D01*
X106080000Y-91055000D02*
X104000000Y-91055000D01*
X106080000Y-96495000D02*
X104000000Y-96495000D01*
X107760000Y-92325000D02*
X107270000Y-91835000D01*
X107760000Y-95225000D02*
X107270000Y-95715000D01*
X107760000Y-95225000D02*
X107760000Y-92325000D01*
%TO.C,U3*%
X88185000Y-93090000D02*
X88250000Y-93090000D01*
X88185000Y-97210000D02*
X88185000Y-93090000D01*
X88250000Y-97210000D02*
X88185000Y-97210000D01*
X96990000Y-93090000D02*
X97055000Y-93090000D01*
X97055000Y-93090000D02*
X97055000Y-97210000D01*
X97055000Y-97210000D02*
X96990000Y-97210000D01*
X96990000Y-92550000D02*
X97320000Y-92310000D01*
X97320000Y-92790000D01*
X96990000Y-92550000D01*
G36*
X97320000Y-92790000D02*
G01*
X96990000Y-92550000D01*
X97320000Y-92310000D01*
X97320000Y-92790000D01*
G37*
%TO.C,U2*%
X88690000Y-49775000D02*
X88690000Y-55975000D01*
X88690000Y-49775000D02*
X107090000Y-49775000D01*
X88690000Y-74625000D02*
X88690000Y-75625000D01*
X88690000Y-75625000D02*
X90190000Y-75625000D01*
X107090000Y-49775000D02*
X107090000Y-55975000D01*
X107090000Y-75625000D02*
X105590000Y-75625000D01*
X107090000Y-75625000D02*
X107090000Y-74625000D01*
X88690000Y-56650000D02*
X88190000Y-56650000D01*
X88690000Y-56150000D01*
X88690000Y-56650000D01*
G36*
X88690000Y-56650000D02*
G01*
X88190000Y-56650000D01*
X88690000Y-56150000D01*
X88690000Y-56650000D01*
G37*
%TO.C,D2*%
X89155000Y-142445000D02*
X89620000Y-142445000D01*
X91780000Y-142445000D02*
X92245000Y-142445000D01*
X89155170Y-142445000D02*
G75*
G02*
X89620000Y-137096864I1544830J2560000D01*
G01*
X89620000Y-142139684D02*
G75*
G02*
X89620000Y-137630316I1080000J2254684D01*
G01*
X91780000Y-137096864D02*
G75*
G02*
X92244830Y-142445000I-1080000J-2788136D01*
G01*
X91780000Y-137630316D02*
G75*
G02*
X91780000Y-142139684I-1080000J-2254684D01*
G01*
%TO.C,R2*%
X106117064Y-77940000D02*
X105662936Y-77940000D01*
X106117064Y-79410000D02*
X105662936Y-79410000D01*
%TO.C,R7*%
X95972936Y-143265000D02*
X96427064Y-143265000D01*
X95972936Y-144735000D02*
X96427064Y-144735000D01*
%TO.C,R3*%
X97405000Y-87947936D02*
X97405000Y-88402064D01*
X98875000Y-87947936D02*
X98875000Y-88402064D01*
%TO.C,R4*%
X97405000Y-83947936D02*
X97405000Y-84402064D01*
X98875000Y-83947936D02*
X98875000Y-84402064D01*
%TO.C,J4*%
X87945000Y-157990000D02*
X87945000Y-159410000D01*
X87945000Y-159410000D02*
X92445000Y-159410000D01*
X87945000Y-164190000D02*
X92445000Y-164190000D01*
X87945000Y-165610000D02*
X87945000Y-164190000D01*
X88255000Y-162750000D02*
X88855000Y-163050000D01*
X88255000Y-163350000D02*
X88255000Y-162750000D01*
X88855000Y-163050000D02*
X88255000Y-163350000D01*
X92445000Y-159410000D02*
X92445000Y-161800000D01*
X92445000Y-164190000D02*
X92445000Y-161800000D01*
X99665000Y-157990000D02*
X87945000Y-157990000D01*
X99665000Y-161800000D02*
X99665000Y-157990000D01*
X99665000Y-161800000D02*
X99665000Y-165610000D01*
X99665000Y-165610000D02*
X87945000Y-165610000D01*
X93555000Y-160300000D02*
X99055000Y-160300000D01*
X99055000Y-160800000D01*
X93555000Y-160800000D01*
X93555000Y-160300000D01*
X93555000Y-162800000D02*
X99055000Y-162800000D01*
X99055000Y-163300000D01*
X93555000Y-163300000D01*
X93555000Y-162800000D01*
%TO.C,C4*%
X93378748Y-77940000D02*
X93901252Y-77940000D01*
X93378748Y-79410000D02*
X93901252Y-79410000D01*
%TD*%
M02*
