%TF.GenerationSoftware,KiCad,Pcbnew,10.0.3*%
%TF.CreationDate,2026-07-20T10:22:45-07:00*%
%TF.ProjectId,mosaic-x3,6d6f7361-6963-42d7-9833-2e6b69636164,rev?*%
%TF.SameCoordinates,Original*%
%TF.FileFunction,Legend,Bot*%
%TF.FilePolarity,Positive*%
%FSLAX46Y46*%
G04 Gerber Fmt 4.6, Leading zero omitted, Abs format (unit mm)*
G04 Created by KiCad (PCBNEW 10.0.3) date 2026-07-20 10:22:45*
%MOMM*%
%LPD*%
G01*
G04 APERTURE LIST*
%ADD10C,0.100000*%
%ADD11C,0.340000*%
%ADD12C,0.125000*%
%ADD13C,0.000000*%
G04 APERTURE END LIST*
D10*
X87450000Y-48725000D02*
X108350000Y-48725000D01*
X108350000Y-49175000D01*
X87450000Y-49175000D01*
X87450000Y-48725000D01*
X87450729Y-48725000D02*
X87925000Y-48725000D01*
X87925000Y-176600000D01*
X87450729Y-176600000D01*
X87450729Y-48725000D01*
X87450728Y-176200000D02*
X108349272Y-176200000D01*
X108349272Y-176650000D01*
X87450728Y-176650000D01*
X87450728Y-176200000D01*
X107874270Y-48725000D02*
X108348543Y-48725000D01*
X108348543Y-176600000D01*
X107874270Y-176600000D01*
X107874270Y-48725000D01*
D11*
G36*
X105236214Y-160641074D02*
G01*
X105236214Y-160233231D01*
X103488999Y-160233231D01*
X103488999Y-160641905D01*
X104013101Y-160638583D01*
X103488999Y-160816917D01*
X103488999Y-161123759D01*
X104020160Y-161306868D01*
X103488999Y-161303546D01*
X103488999Y-161709728D01*
X105236214Y-161709728D01*
X105236214Y-161304480D01*
X104178771Y-160969092D01*
X105236214Y-160641074D01*
G37*
G36*
X104840766Y-158746377D02*
G01*
X104939129Y-158775004D01*
X105029122Y-158822049D01*
X105106979Y-158886385D01*
X105170498Y-158966878D01*
X105220851Y-159068248D01*
X105251796Y-159182093D01*
X105262788Y-159317998D01*
X105262788Y-159375090D01*
X105252757Y-159506675D01*
X105224484Y-159617678D01*
X105177850Y-159717095D01*
X105117775Y-159797154D01*
X105043742Y-159862150D01*
X104958333Y-159910922D01*
X104864675Y-159942537D01*
X104764117Y-159956388D01*
X103989849Y-159956388D01*
X103884447Y-159946711D01*
X103786083Y-159918085D01*
X103696083Y-159871061D01*
X103618233Y-159806808D01*
X103554703Y-159726244D01*
X103504361Y-159624945D01*
X103473415Y-159511009D01*
X103462425Y-159375090D01*
X103462425Y-159317998D01*
X103814525Y-159317998D01*
X103814525Y-159375090D01*
X103818040Y-159409268D01*
X103828539Y-159441628D01*
X103867050Y-159497578D01*
X103923207Y-159536089D01*
X103955656Y-159546590D01*
X103989849Y-159550102D01*
X104735364Y-159550102D01*
X104769542Y-159546588D01*
X104801902Y-159536089D01*
X104858059Y-159497578D01*
X104896674Y-159441628D01*
X104907173Y-159409268D01*
X104910687Y-159375090D01*
X104910687Y-159317998D01*
X104904894Y-159273494D01*
X104887675Y-159233096D01*
X104858059Y-159195511D01*
X104820415Y-159165960D01*
X104779947Y-159148770D01*
X104735364Y-159142986D01*
X103989849Y-159142986D01*
X103955656Y-159146498D01*
X103923207Y-159157000D01*
X103867050Y-159195511D01*
X103828539Y-159251564D01*
X103818042Y-159283835D01*
X103814525Y-159317998D01*
X103462425Y-159317998D01*
X103472773Y-159186633D01*
X103501870Y-159076656D01*
X103549088Y-158977875D01*
X103608580Y-158897180D01*
X103681746Y-158831317D01*
X103766776Y-158782270D01*
X103860527Y-158750574D01*
X103961095Y-158736700D01*
X104735364Y-158736700D01*
X104840766Y-158746377D01*
G37*
G36*
X104558587Y-157888421D02*
G01*
X104547658Y-157776642D01*
X104515508Y-157674275D01*
X104464479Y-157580682D01*
X104398211Y-157499574D01*
X104317957Y-157432451D01*
X104224652Y-157381134D01*
X104122284Y-157348985D01*
X104010506Y-157338056D01*
X103900621Y-157348901D01*
X103797502Y-157381134D01*
X103703236Y-157432521D01*
X103622801Y-157499574D01*
X103556533Y-157580682D01*
X103505503Y-157674275D01*
X103473353Y-157776642D01*
X103462425Y-157888421D01*
X103462425Y-158009663D01*
X103473351Y-158121456D01*
X103505503Y-158223913D01*
X103556581Y-158317212D01*
X103622801Y-158397368D01*
X103703147Y-158463429D01*
X103797502Y-158514562D01*
X103901061Y-158546718D01*
X104013828Y-158557640D01*
X104013828Y-158184779D01*
X103965137Y-158179040D01*
X103923063Y-158162409D01*
X103886046Y-158134642D01*
X103857389Y-158098445D01*
X103840327Y-158057349D01*
X103834456Y-158009767D01*
X103834456Y-157888421D01*
X103840278Y-157840715D01*
X103857233Y-157799219D01*
X103885734Y-157762404D01*
X103922508Y-157733713D01*
X103963246Y-157716790D01*
X104009364Y-157711021D01*
X104056994Y-157716851D01*
X104098457Y-157733835D01*
X104135277Y-157762404D01*
X104163779Y-157799219D01*
X104180733Y-157840715D01*
X104186556Y-157888421D01*
X104186556Y-158009767D01*
X104196562Y-158121553D01*
X104225897Y-158223809D01*
X104273045Y-158317321D01*
X104334476Y-158397264D01*
X104410046Y-158463478D01*
X104499315Y-158514562D01*
X104598523Y-158546635D01*
X104709517Y-158557640D01*
X104819087Y-158546795D01*
X104921898Y-158514562D01*
X105016040Y-158463432D01*
X105096184Y-158397368D01*
X105162215Y-158317222D01*
X105213170Y-158223913D01*
X105245243Y-158121461D01*
X105256144Y-158009663D01*
X105256144Y-157888421D01*
X105245216Y-157776642D01*
X105213066Y-157674275D01*
X105162036Y-157580682D01*
X105095768Y-157499574D01*
X105015333Y-157432521D01*
X104921068Y-157381134D01*
X104817508Y-157348978D01*
X104704742Y-157338056D01*
X104704742Y-157711021D01*
X104753345Y-157716883D01*
X104795377Y-157733899D01*
X104832420Y-157762404D01*
X104861169Y-157799248D01*
X104878251Y-157840743D01*
X104884114Y-157888421D01*
X104884114Y-158009767D01*
X104878307Y-158057464D01*
X104861464Y-158098559D01*
X104833250Y-158134642D01*
X104796836Y-158162610D01*
X104756469Y-158179140D01*
X104710762Y-158184779D01*
X104664055Y-158178836D01*
X104627196Y-158162134D01*
X104597824Y-158134746D01*
X104568811Y-158079790D01*
X104558587Y-158009767D01*
X104558587Y-157888421D01*
G37*
G36*
X105236214Y-156111621D02*
G01*
X105236214Y-156718558D01*
X103488999Y-157188787D01*
X103488999Y-156765685D01*
X103681657Y-156715756D01*
X103681657Y-156621191D01*
X104033758Y-156621191D01*
X104802421Y-156416284D01*
X104033758Y-156208989D01*
X104033758Y-156621191D01*
X103681657Y-156621191D01*
X103681657Y-156114424D01*
X103488999Y-156064494D01*
X103488999Y-155641289D01*
X105236214Y-156111621D01*
G37*
G36*
X103488999Y-154990650D02*
G01*
X103488999Y-155396832D01*
X105236214Y-155396832D01*
X105236214Y-154990650D01*
X103488999Y-154990650D01*
G37*
G36*
X103807882Y-154075417D02*
G01*
X103811399Y-154041254D01*
X103821895Y-154008983D01*
X103860718Y-153952930D01*
X103917083Y-153913277D01*
X103950062Y-153901919D01*
X103987254Y-153898018D01*
X103987254Y-153494119D01*
X103878847Y-153503866D01*
X103779855Y-153532423D01*
X103689756Y-153579470D01*
X103611798Y-153643804D01*
X103548174Y-153724302D01*
X103497718Y-153825667D01*
X103466774Y-153939512D01*
X103455781Y-154075417D01*
X103455781Y-154130122D01*
X103466769Y-154265949D01*
X103497718Y-154379872D01*
X103548060Y-154481172D01*
X103611590Y-154561735D01*
X103689440Y-154625988D01*
X103779440Y-154673012D01*
X103877803Y-154701639D01*
X103983206Y-154711316D01*
X104760692Y-154713703D01*
X104759861Y-154710382D01*
X104858348Y-154697297D01*
X104951690Y-154665850D01*
X105037106Y-154617098D01*
X105111131Y-154552185D01*
X105171207Y-154472127D01*
X105217841Y-154372710D01*
X105246114Y-154261706D01*
X105256144Y-154130122D01*
X105256144Y-154075417D01*
X105245126Y-153939517D01*
X105214104Y-153825667D01*
X105163729Y-153724306D01*
X105100128Y-153643804D01*
X105022153Y-153579476D01*
X104931967Y-153532423D01*
X104833064Y-153503868D01*
X104724672Y-153494119D01*
X104724672Y-153898018D01*
X104771576Y-153904016D01*
X104813277Y-153921683D01*
X104851208Y-153951788D01*
X104880988Y-153990096D01*
X104898255Y-154030887D01*
X104904044Y-154075417D01*
X104904044Y-154130122D01*
X104898276Y-154174669D01*
X104881074Y-154215497D01*
X104851416Y-154253855D01*
X104813691Y-154284097D01*
X104773230Y-154301632D01*
X104728720Y-154307521D01*
X103983206Y-154307521D01*
X103949013Y-154304009D01*
X103916564Y-154293508D01*
X103860406Y-154254997D01*
X103821895Y-154197801D01*
X103811371Y-154164463D01*
X103807882Y-154130122D01*
X103807882Y-154075417D01*
G37*
G36*
X104339354Y-153209699D02*
G01*
X104339354Y-152170836D01*
X103987254Y-152170836D01*
X103987254Y-153209699D01*
X104339354Y-153209699D01*
G37*
G36*
X105236214Y-150710221D02*
G01*
X104362606Y-151118479D01*
X103488999Y-150710221D01*
X103488999Y-151119413D01*
X103926737Y-151321830D01*
X103488999Y-151526737D01*
X103488999Y-151933542D01*
X104362606Y-151527671D01*
X105236214Y-151933542D01*
X105236214Y-151526737D01*
X104800863Y-151321830D01*
X105236214Y-151119413D01*
X105236214Y-150710221D01*
G37*
G36*
X104410979Y-149737066D02*
G01*
X104369334Y-149676636D01*
X104317621Y-149623689D01*
X104254859Y-149577728D01*
X104185545Y-149543226D01*
X104110959Y-149522430D01*
X104029709Y-149515342D01*
X103929851Y-149515342D01*
X103841006Y-149524123D01*
X103758472Y-149550116D01*
X103683116Y-149591342D01*
X103618337Y-149644785D01*
X103564912Y-149709511D01*
X103523669Y-149785023D01*
X103497752Y-149867539D01*
X103488999Y-149956298D01*
X103488999Y-150568530D01*
X103841099Y-150568530D01*
X103841099Y-150403483D01*
X103841099Y-150339228D01*
X103841099Y-150046711D01*
X103850196Y-149997450D01*
X103877015Y-149957544D01*
X103917022Y-149930726D01*
X103966389Y-149921628D01*
X104087839Y-149921628D01*
X104137207Y-149930726D01*
X104177214Y-149957544D01*
X104204033Y-149997450D01*
X104213130Y-150046711D01*
X104213130Y-150225045D01*
X104213130Y-150248816D01*
X104213130Y-150361546D01*
X104259115Y-150361546D01*
X104470354Y-150361546D01*
X104518726Y-150361546D01*
X104518726Y-150248816D01*
X104518726Y-150225045D01*
X104518726Y-150165566D01*
X104527685Y-150116256D01*
X104554019Y-150076399D01*
X104593367Y-150049555D01*
X104641733Y-150040483D01*
X104761107Y-150040483D01*
X104809473Y-150049555D01*
X104848821Y-150076399D01*
X104875155Y-150116256D01*
X104884114Y-150165566D01*
X104884114Y-150339228D01*
X104884114Y-150403483D01*
X104884114Y-150568530D01*
X105236214Y-150568530D01*
X105236214Y-150075257D01*
X105227458Y-149986249D01*
X105201440Y-149902736D01*
X105160187Y-149826274D01*
X105106772Y-149761356D01*
X105041869Y-149707934D01*
X104965495Y-149666687D01*
X104881982Y-149640669D01*
X104792974Y-149631913D01*
X104695503Y-149631913D01*
X104613701Y-149639217D01*
X104538553Y-149660667D01*
X104469488Y-149694523D01*
X104410979Y-149737066D01*
G37*
G36*
X104838587Y-147365801D02*
G01*
X104935496Y-147400871D01*
X105023750Y-147453319D01*
X105098467Y-147521698D01*
X105158740Y-147604329D01*
X105204969Y-147702419D01*
X105231707Y-147809862D01*
X105236214Y-147930683D01*
X105236214Y-148491946D01*
X105236214Y-148618898D01*
X103488999Y-148618898D01*
X103488999Y-148210328D01*
X103867673Y-148210328D01*
X103867673Y-147930786D01*
X103867684Y-147930579D01*
X104219773Y-147930579D01*
X104219773Y-148210328D01*
X104884114Y-148210328D01*
X104884114Y-147930579D01*
X104878354Y-147886028D01*
X104861181Y-147845236D01*
X104831589Y-147806949D01*
X104793922Y-147776648D01*
X104753496Y-147759080D01*
X104708998Y-147753179D01*
X104394889Y-147753179D01*
X104350390Y-147759080D01*
X104309965Y-147776648D01*
X104272298Y-147806949D01*
X104242706Y-147845236D01*
X104225533Y-147886028D01*
X104219773Y-147930579D01*
X103867684Y-147930579D01*
X103874590Y-147803418D01*
X103903589Y-147692869D01*
X103952891Y-147593014D01*
X104017357Y-147509760D01*
X104096630Y-147441906D01*
X104188632Y-147391321D01*
X104289207Y-147359892D01*
X104394785Y-147349385D01*
X104737751Y-147349385D01*
X104838587Y-147365801D01*
G37*
G36*
X103807882Y-146526848D02*
G01*
X103811399Y-146492685D01*
X103821895Y-146460414D01*
X103860718Y-146404360D01*
X103917083Y-146364707D01*
X103950062Y-146353349D01*
X103987254Y-146349448D01*
X103987254Y-145945550D01*
X103878847Y-145955296D01*
X103779855Y-145983853D01*
X103689756Y-146030900D01*
X103611798Y-146095234D01*
X103548174Y-146175732D01*
X103497718Y-146277097D01*
X103466774Y-146390942D01*
X103455781Y-146526848D01*
X103455781Y-146581552D01*
X103466769Y-146717380D01*
X103497718Y-146831303D01*
X103548060Y-146932602D01*
X103611590Y-147013166D01*
X103689440Y-147077419D01*
X103779440Y-147124443D01*
X103877803Y-147153070D01*
X103983206Y-147162746D01*
X104760692Y-147165134D01*
X104759861Y-147161812D01*
X104858348Y-147148728D01*
X104951690Y-147117281D01*
X105037106Y-147068529D01*
X105111131Y-147003616D01*
X105171207Y-146923557D01*
X105217841Y-146824140D01*
X105246114Y-146713137D01*
X105256144Y-146581552D01*
X105256144Y-146526848D01*
X105245126Y-146390948D01*
X105214104Y-146277097D01*
X105163729Y-146175736D01*
X105100128Y-146095234D01*
X105022153Y-146030906D01*
X104931967Y-145983853D01*
X104833064Y-145955298D01*
X104724672Y-145945550D01*
X104724672Y-146349448D01*
X104771576Y-146355447D01*
X104813277Y-146373113D01*
X104851208Y-146403218D01*
X104880988Y-146441527D01*
X104898255Y-146482317D01*
X104904044Y-146526848D01*
X104904044Y-146581552D01*
X104898276Y-146626100D01*
X104881074Y-146666927D01*
X104851416Y-146705286D01*
X104813691Y-146735527D01*
X104773230Y-146753062D01*
X104728720Y-146758952D01*
X103983206Y-146758952D01*
X103949013Y-146755440D01*
X103916564Y-146744938D01*
X103860406Y-146706427D01*
X103821895Y-146649232D01*
X103811371Y-146615894D01*
X103807882Y-146581552D01*
X103807882Y-146526848D01*
G37*
G36*
X104109465Y-144382065D02*
G01*
X104184586Y-144402811D01*
X104254755Y-144437289D01*
X104318370Y-144483332D01*
X104370505Y-144536285D01*
X104412224Y-144596627D01*
X104470835Y-144554085D01*
X104540006Y-144520228D01*
X104615257Y-144498778D01*
X104697164Y-144491475D01*
X104794739Y-144491475D01*
X104883689Y-144500256D01*
X104966326Y-144526249D01*
X105041845Y-144567428D01*
X105106668Y-144620917D01*
X105160107Y-144685832D01*
X105201440Y-144762297D01*
X105227458Y-144845811D01*
X105236214Y-144934818D01*
X105236214Y-145665904D01*
X104468589Y-145665904D01*
X104256623Y-145665904D01*
X103488999Y-145665904D01*
X103488999Y-144906272D01*
X103841099Y-144906272D01*
X103841099Y-145259722D01*
X104213130Y-145259722D01*
X104213130Y-145025127D01*
X104518726Y-145025127D01*
X104518726Y-145259722D01*
X104884114Y-145259722D01*
X104884114Y-145025127D01*
X104874902Y-144975908D01*
X104847679Y-144935960D01*
X104807706Y-144908976D01*
X104761107Y-144900044D01*
X104641733Y-144900044D01*
X104593367Y-144909117D01*
X104554019Y-144935960D01*
X104527685Y-144975817D01*
X104518726Y-145025127D01*
X104213130Y-145025127D01*
X104213130Y-144906272D01*
X104203767Y-144857182D01*
X104175968Y-144817105D01*
X104135348Y-144790144D01*
X104087839Y-144781189D01*
X103966389Y-144781189D01*
X103917022Y-144790287D01*
X103877015Y-144817105D01*
X103850196Y-144857012D01*
X103841099Y-144906272D01*
X103488999Y-144906272D01*
X103488999Y-144815963D01*
X103497780Y-144727119D01*
X103523773Y-144644584D01*
X103565031Y-144569167D01*
X103618545Y-144504450D01*
X103683368Y-144450960D01*
X103758887Y-144409781D01*
X103841524Y-144383789D01*
X103930474Y-144375007D01*
X104028049Y-144375007D01*
X104109465Y-144382065D01*
G37*
D12*
G36*
X99420000Y-161107327D02*
G01*
X99420000Y-161235737D01*
X99852859Y-161235737D01*
X99950495Y-161240867D01*
X99993101Y-161248811D01*
X100022974Y-161260345D01*
X100047995Y-161279233D01*
X100065472Y-161304064D01*
X100075544Y-161335012D01*
X100079455Y-161380573D01*
X100073351Y-161428080D01*
X100053932Y-161479309D01*
X100025021Y-161528912D01*
X99987559Y-161578654D01*
X99420000Y-161578654D01*
X99420000Y-161707065D01*
X100482944Y-161707065D01*
X100482944Y-161578654D01*
X100096064Y-161578654D01*
X100142212Y-161520074D01*
X100174344Y-161465265D01*
X100194771Y-161407718D01*
X100201577Y-161347112D01*
X100196578Y-161291805D01*
X100182389Y-161245010D01*
X100159552Y-161205085D01*
X100127693Y-161170891D01*
X100089441Y-161144600D01*
X100042314Y-161124775D01*
X99984463Y-161111957D01*
X99913614Y-161107327D01*
X99420000Y-161107327D01*
G37*
G36*
X99404368Y-160695594D02*
G01*
X99408508Y-160747849D01*
X99420159Y-160791637D01*
X99438634Y-160828484D01*
X99463902Y-160859542D01*
X99495139Y-160883557D01*
X99535412Y-160901862D01*
X99586858Y-160913876D01*
X99652152Y-160918283D01*
X100073593Y-160918283D01*
X100073593Y-161005050D01*
X100182037Y-161005050D01*
X100182037Y-160918283D01*
X100400879Y-160918283D01*
X100400879Y-160789872D01*
X100182037Y-160789872D01*
X100182037Y-160553506D01*
X100073593Y-160553506D01*
X100073593Y-160789872D01*
X99712114Y-160789872D01*
X99622904Y-160787857D01*
X99592497Y-160782852D01*
X99564347Y-160772103D01*
X99543680Y-160757093D01*
X99528627Y-160734551D01*
X99520056Y-160706023D01*
X99516720Y-160664148D01*
X99519020Y-160633194D01*
X99525879Y-160603393D01*
X99541144Y-160561017D01*
X99541144Y-160553506D01*
X99426167Y-160553506D01*
X99410169Y-160626962D01*
X99404368Y-160695594D01*
G37*
G36*
X99404368Y-160233487D02*
G01*
X99408508Y-160285742D01*
X99420159Y-160329529D01*
X99438634Y-160366376D01*
X99463902Y-160397435D01*
X99495139Y-160421450D01*
X99535412Y-160439755D01*
X99586858Y-160451769D01*
X99652152Y-160456175D01*
X100073593Y-160456175D01*
X100073593Y-160542943D01*
X100182037Y-160542943D01*
X100182037Y-160456175D01*
X100400879Y-160456175D01*
X100400879Y-160327765D01*
X100182037Y-160327765D01*
X100182037Y-160091399D01*
X100073593Y-160091399D01*
X100073593Y-160327765D01*
X99712114Y-160327765D01*
X99622904Y-160325750D01*
X99592497Y-160320745D01*
X99564347Y-160309996D01*
X99543680Y-160294985D01*
X99528627Y-160272444D01*
X99520056Y-160243916D01*
X99516720Y-160202041D01*
X99519020Y-160171086D01*
X99525879Y-160141285D01*
X99541144Y-160098909D01*
X99541144Y-160091399D01*
X99426167Y-160091399D01*
X99410169Y-160164855D01*
X99404368Y-160233487D01*
G37*
G36*
X99908096Y-159367446D02*
G01*
X99982437Y-159382121D01*
X100045149Y-159405069D01*
X100098018Y-159435668D01*
X100143640Y-159476333D01*
X100175459Y-159523054D01*
X100194827Y-159577017D01*
X100201577Y-159640221D01*
X100194226Y-159707016D01*
X100172573Y-159767655D01*
X100140074Y-159823477D01*
X100100704Y-159873839D01*
X100182037Y-159873839D01*
X100182037Y-160002250D01*
X99138632Y-160002250D01*
X99138632Y-159873839D01*
X99457491Y-159873839D01*
X99433437Y-159827732D01*
X99417313Y-159784385D01*
X99407789Y-159738826D01*
X99405689Y-159705129D01*
X99519651Y-159705129D01*
X99521999Y-159750175D01*
X99528504Y-159787438D01*
X99540375Y-159824595D01*
X99561905Y-159873839D01*
X99992993Y-159873839D01*
X100027823Y-159826499D01*
X100055275Y-159777241D01*
X100073456Y-159725186D01*
X100079455Y-159671667D01*
X100074575Y-159626412D01*
X100060892Y-159589942D01*
X100038856Y-159560312D01*
X100007587Y-159536418D01*
X99957836Y-159514689D01*
X99891923Y-159500137D01*
X99805659Y-159494713D01*
X99734151Y-159498834D01*
X99676288Y-159510163D01*
X99629728Y-159527486D01*
X99592496Y-159550095D01*
X99560721Y-159580416D01*
X99538283Y-159615625D01*
X99524487Y-159656690D01*
X99519651Y-159705129D01*
X99405689Y-159705129D01*
X99404368Y-159683941D01*
X99411485Y-159616975D01*
X99432266Y-159557253D01*
X99466942Y-159503088D01*
X99517147Y-159453436D01*
X99575422Y-159415068D01*
X99643976Y-159386642D01*
X99724721Y-159368614D01*
X99820008Y-159362212D01*
X99908096Y-159367446D01*
G37*
G36*
X99404368Y-159022226D02*
G01*
X99409569Y-159097084D01*
X99424701Y-159165352D01*
X99446748Y-159228671D01*
X99468176Y-159275628D01*
X99611486Y-159275628D01*
X99611486Y-159268850D01*
X99583093Y-159230259D01*
X99550669Y-159171153D01*
X99524291Y-159099101D01*
X99515704Y-159059189D01*
X99512812Y-159017463D01*
X99519956Y-158951884D01*
X99528708Y-158919546D01*
X99537969Y-158899921D01*
X99554824Y-158878653D01*
X99571308Y-158865483D01*
X99591549Y-158857908D01*
X99624370Y-158854858D01*
X99653705Y-158857963D01*
X99676052Y-158866459D01*
X99693063Y-158879832D01*
X99712622Y-158910610D01*
X99731837Y-158968248D01*
X99746125Y-159032484D01*
X99763832Y-159105573D01*
X99785084Y-159161380D01*
X99811203Y-159202807D01*
X99841807Y-159232641D01*
X99878733Y-159254314D01*
X99920843Y-159267588D01*
X99969424Y-159272208D01*
X100019167Y-159267192D01*
X100062885Y-159252663D01*
X100101857Y-159228682D01*
X100136913Y-159194356D01*
X100164245Y-159153999D01*
X100184377Y-159106927D01*
X100197081Y-159051896D01*
X100201577Y-158987360D01*
X100197706Y-158923991D01*
X100185945Y-158859682D01*
X100167543Y-158798560D01*
X100146561Y-158751727D01*
X100010090Y-158751727D01*
X100010090Y-158758504D01*
X100044400Y-158810324D01*
X100070846Y-158868169D01*
X100087624Y-158929224D01*
X100093133Y-158990108D01*
X100086123Y-159050131D01*
X100066571Y-159097330D01*
X100045850Y-159121642D01*
X100019706Y-159136003D01*
X99986338Y-159141050D01*
X99955707Y-159137805D01*
X99932619Y-159128964D01*
X99915263Y-159115099D01*
X99895298Y-159084177D01*
X99876856Y-159031751D01*
X99862201Y-158967943D01*
X99845532Y-158893815D01*
X99827234Y-158839437D01*
X99803703Y-158797736D01*
X99775373Y-158766381D01*
X99740415Y-158743443D01*
X99696733Y-158728930D01*
X99641955Y-158723700D01*
X99594089Y-158728594D01*
X99549021Y-158743178D01*
X99508345Y-158767112D01*
X99473794Y-158800209D01*
X99443934Y-158843702D01*
X99422076Y-158892777D01*
X99409223Y-158947865D01*
X99404368Y-159022226D01*
G37*
G36*
X99986643Y-158367899D02*
G01*
X99986643Y-158531114D01*
X100182037Y-158531114D01*
X100182037Y-158367899D01*
X99986643Y-158367899D01*
G37*
G36*
X99420000Y-158367899D02*
G01*
X99420000Y-158531114D01*
X99615394Y-158531114D01*
X99615394Y-158367899D01*
X99420000Y-158367899D01*
G37*
G36*
X100482944Y-157705451D02*
G01*
X99197250Y-158103750D01*
X99197250Y-158219216D01*
X100482944Y-157822993D01*
X100482944Y-157705451D01*
G37*
G36*
X100482944Y-157171048D02*
G01*
X99197250Y-157569347D01*
X99197250Y-157684813D01*
X100482944Y-157288590D01*
X100482944Y-157171048D01*
G37*
G36*
X99404368Y-156834787D02*
G01*
X99409569Y-156909645D01*
X99424701Y-156977913D01*
X99446748Y-157041232D01*
X99468176Y-157088189D01*
X99611486Y-157088189D01*
X99611486Y-157081411D01*
X99583093Y-157042821D01*
X99550669Y-156983714D01*
X99524291Y-156911662D01*
X99515704Y-156871750D01*
X99512812Y-156830024D01*
X99519956Y-156764445D01*
X99528708Y-156732107D01*
X99537969Y-156712482D01*
X99554824Y-156691214D01*
X99571308Y-156678044D01*
X99591549Y-156670470D01*
X99624370Y-156667419D01*
X99653705Y-156670524D01*
X99676052Y-156679020D01*
X99693063Y-156692393D01*
X99712622Y-156723171D01*
X99731837Y-156780809D01*
X99746125Y-156845045D01*
X99763832Y-156918135D01*
X99785084Y-156973941D01*
X99811203Y-157015368D01*
X99841807Y-157045202D01*
X99878733Y-157066875D01*
X99920843Y-157080149D01*
X99969424Y-157084769D01*
X100019167Y-157079753D01*
X100062885Y-157065225D01*
X100101857Y-157041243D01*
X100136913Y-157006917D01*
X100164245Y-156966560D01*
X100184377Y-156919488D01*
X100197081Y-156864457D01*
X100201577Y-156799921D01*
X100197706Y-156736552D01*
X100185945Y-156672243D01*
X100167543Y-156611121D01*
X100146561Y-156564288D01*
X100010090Y-156564288D01*
X100010090Y-156571065D01*
X100044400Y-156622885D01*
X100070846Y-156680730D01*
X100087624Y-156741785D01*
X100093133Y-156802669D01*
X100086123Y-156862692D01*
X100066571Y-156909891D01*
X100045850Y-156934203D01*
X100019706Y-156948564D01*
X99986338Y-156953611D01*
X99955707Y-156950366D01*
X99932619Y-156941525D01*
X99915263Y-156927660D01*
X99895298Y-156896738D01*
X99876856Y-156844312D01*
X99862201Y-156780504D01*
X99845532Y-156706376D01*
X99827234Y-156651998D01*
X99803703Y-156610297D01*
X99775373Y-156578942D01*
X99740415Y-156556005D01*
X99696733Y-156541492D01*
X99641955Y-156536261D01*
X99594089Y-156541155D01*
X99549021Y-156555739D01*
X99508345Y-156579673D01*
X99473794Y-156612770D01*
X99443934Y-156656263D01*
X99422076Y-156705338D01*
X99409223Y-156760426D01*
X99404368Y-156834787D01*
G37*
G36*
X99420000Y-155817027D02*
G01*
X99420000Y-155945437D01*
X99852859Y-155945437D01*
X99950495Y-155950566D01*
X99993101Y-155958511D01*
X100022974Y-155970045D01*
X100047995Y-155988933D01*
X100065472Y-156013764D01*
X100075544Y-156044712D01*
X100079455Y-156090273D01*
X100073351Y-156137780D01*
X100053932Y-156189009D01*
X100025021Y-156238611D01*
X99987559Y-156288354D01*
X99420000Y-156288354D01*
X99420000Y-156416765D01*
X100482944Y-156416765D01*
X100482944Y-156288354D01*
X100096064Y-156288354D01*
X100142212Y-156229774D01*
X100174344Y-156174965D01*
X100194771Y-156117418D01*
X100201577Y-156056812D01*
X100196578Y-156001505D01*
X100182389Y-155954710D01*
X100159552Y-155914785D01*
X100127693Y-155880591D01*
X100089441Y-155854299D01*
X100042314Y-155834475D01*
X99984463Y-155821657D01*
X99913614Y-155817027D01*
X99420000Y-155817027D01*
G37*
G36*
X100010466Y-155087676D02*
G01*
X100063579Y-155102677D01*
X100109010Y-155128605D01*
X100144851Y-155164837D01*
X100171926Y-155210440D01*
X100189242Y-155261863D01*
X100198201Y-155318927D01*
X100201577Y-155394364D01*
X100198551Y-155459315D01*
X100189364Y-155525523D01*
X100167016Y-155627311D01*
X100037445Y-155627311D01*
X100037445Y-155619801D01*
X100059808Y-155559245D01*
X100075914Y-155499572D01*
X100086180Y-155441106D01*
X100089225Y-155395036D01*
X100084096Y-155321946D01*
X100076110Y-155288361D01*
X100063396Y-155261863D01*
X100045464Y-155240144D01*
X100020898Y-155223578D01*
X99990870Y-155213668D01*
X99948602Y-155209900D01*
X99924117Y-155209900D01*
X99907325Y-155398456D01*
X99890973Y-155482253D01*
X99866720Y-155550130D01*
X99841260Y-155595560D01*
X99811758Y-155630317D01*
X99778121Y-155656010D01*
X99739674Y-155674139D01*
X99695115Y-155685479D01*
X99643176Y-155689471D01*
X99592983Y-155684826D01*
X99545724Y-155671031D01*
X99502652Y-155649148D01*
X99468115Y-155621877D01*
X99439620Y-155587246D01*
X99418229Y-155547383D01*
X99404928Y-155503962D01*
X99400460Y-155457929D01*
X99402789Y-155412133D01*
X99519651Y-155412133D01*
X99523866Y-155458364D01*
X99535299Y-155493505D01*
X99552929Y-155520088D01*
X99577463Y-155539896D01*
X99609516Y-155552411D01*
X99651420Y-155556969D01*
X99688533Y-155552917D01*
X99717953Y-155541622D01*
X99741423Y-155523508D01*
X99769090Y-155486301D01*
X99789295Y-155438756D01*
X99800189Y-155392229D01*
X99809323Y-155325732D01*
X99820558Y-155209900D01*
X99609532Y-155209900D01*
X99574523Y-155254652D01*
X99545662Y-155302163D01*
X99526298Y-155353626D01*
X99519651Y-155412133D01*
X99402789Y-155412133D01*
X99403214Y-155403767D01*
X99410047Y-155368780D01*
X99437341Y-155302834D01*
X99470497Y-155251971D01*
X99502920Y-155209900D01*
X99420000Y-155209900D01*
X99420000Y-155082161D01*
X99941946Y-155082161D01*
X100010466Y-155087676D01*
G37*
G36*
X99404368Y-154695219D02*
G01*
X99409569Y-154770078D01*
X99424701Y-154838346D01*
X99446748Y-154901665D01*
X99468176Y-154948621D01*
X99611486Y-154948621D01*
X99611486Y-154941844D01*
X99583093Y-154903253D01*
X99550669Y-154844146D01*
X99524291Y-154772095D01*
X99515704Y-154732183D01*
X99512812Y-154690457D01*
X99519956Y-154624877D01*
X99528708Y-154592540D01*
X99537969Y-154572915D01*
X99554824Y-154551646D01*
X99571308Y-154538476D01*
X99591549Y-154530902D01*
X99624370Y-154527852D01*
X99653705Y-154530956D01*
X99676052Y-154539453D01*
X99693063Y-154552826D01*
X99712622Y-154583604D01*
X99731837Y-154641242D01*
X99746125Y-154705478D01*
X99763832Y-154778567D01*
X99785084Y-154834374D01*
X99811203Y-154875800D01*
X99841807Y-154905635D01*
X99878733Y-154927307D01*
X99920843Y-154940582D01*
X99969424Y-154945202D01*
X100019167Y-154940185D01*
X100062885Y-154925657D01*
X100101857Y-154901676D01*
X100136913Y-154867349D01*
X100164245Y-154826993D01*
X100184377Y-154779921D01*
X100197081Y-154724890D01*
X100201577Y-154660354D01*
X100197706Y-154596984D01*
X100185945Y-154532676D01*
X100167543Y-154471554D01*
X100146561Y-154424720D01*
X100010090Y-154424720D01*
X100010090Y-154431498D01*
X100044400Y-154483318D01*
X100070846Y-154541163D01*
X100087624Y-154602217D01*
X100093133Y-154663101D01*
X100086123Y-154723125D01*
X100066571Y-154770324D01*
X100045850Y-154794636D01*
X100019706Y-154808997D01*
X99986338Y-154814043D01*
X99955707Y-154810799D01*
X99932619Y-154801957D01*
X99915263Y-154788093D01*
X99895298Y-154757171D01*
X99876856Y-154704745D01*
X99862201Y-154640936D01*
X99845532Y-154566809D01*
X99827234Y-154512431D01*
X99803703Y-154470730D01*
X99775373Y-154439375D01*
X99740415Y-154416437D01*
X99696733Y-154401924D01*
X99641955Y-154396693D01*
X99594089Y-154401588D01*
X99549021Y-154416172D01*
X99508345Y-154440106D01*
X99473794Y-154473203D01*
X99443934Y-154516695D01*
X99422076Y-154565771D01*
X99409223Y-154620859D01*
X99404368Y-154695219D01*
G37*
G36*
X99420000Y-153677459D02*
G01*
X99420000Y-153805870D01*
X99852859Y-153805870D01*
X99950495Y-153810999D01*
X99993101Y-153818943D01*
X100022974Y-153830478D01*
X100047995Y-153849365D01*
X100065472Y-153874197D01*
X100075544Y-153905145D01*
X100079455Y-153950706D01*
X100073351Y-153998212D01*
X100053932Y-154049441D01*
X100025021Y-154099044D01*
X99987559Y-154148787D01*
X99420000Y-154148787D01*
X99420000Y-154277198D01*
X100482944Y-154277198D01*
X100482944Y-154148787D01*
X100096064Y-154148787D01*
X100142212Y-154090206D01*
X100174344Y-154035397D01*
X100194771Y-153977851D01*
X100201577Y-153917245D01*
X100196578Y-153861938D01*
X100182389Y-153815142D01*
X100159552Y-153775217D01*
X100127693Y-153741024D01*
X100089441Y-153714732D01*
X100042314Y-153694907D01*
X99984463Y-153682090D01*
X99913614Y-153677459D01*
X99420000Y-153677459D01*
G37*
G36*
X100182037Y-152575619D02*
G01*
X99420000Y-152768937D01*
X99420000Y-152887761D01*
X100007404Y-153074241D01*
X99420000Y-153259377D01*
X99420000Y-153377590D01*
X100182037Y-153572923D01*
X100182037Y-153439078D01*
X99591946Y-153304501D01*
X100182037Y-153123456D01*
X100182037Y-153017576D01*
X99591946Y-152831769D01*
X100182037Y-152704701D01*
X100182037Y-152575619D01*
G37*
G36*
X100010466Y-151923266D02*
G01*
X100063579Y-151938267D01*
X100109010Y-151964195D01*
X100144851Y-152000427D01*
X100171926Y-152046029D01*
X100189242Y-152097452D01*
X100198201Y-152154517D01*
X100201577Y-152229954D01*
X100198551Y-152294904D01*
X100189364Y-152361113D01*
X100167016Y-152462901D01*
X100037445Y-152462901D01*
X100037445Y-152455390D01*
X100059808Y-152394835D01*
X100075914Y-152335162D01*
X100086180Y-152276696D01*
X100089225Y-152230626D01*
X100084096Y-152157536D01*
X100076110Y-152123951D01*
X100063396Y-152097452D01*
X100045464Y-152075733D01*
X100020898Y-152059167D01*
X99990870Y-152049257D01*
X99948602Y-152045490D01*
X99924117Y-152045490D01*
X99907325Y-152234045D01*
X99890973Y-152317843D01*
X99866720Y-152385720D01*
X99841260Y-152431149D01*
X99811758Y-152465907D01*
X99778121Y-152491599D01*
X99739674Y-152509729D01*
X99695115Y-152521069D01*
X99643176Y-152525061D01*
X99592983Y-152520415D01*
X99545724Y-152506620D01*
X99502652Y-152484738D01*
X99468115Y-152457466D01*
X99439620Y-152422836D01*
X99418229Y-152382972D01*
X99404928Y-152339552D01*
X99400460Y-152293518D01*
X99402789Y-152247723D01*
X99519651Y-152247723D01*
X99523866Y-152293954D01*
X99535299Y-152329094D01*
X99552929Y-152355678D01*
X99577463Y-152375486D01*
X99609516Y-152388001D01*
X99651420Y-152392559D01*
X99688533Y-152388506D01*
X99717953Y-152377211D01*
X99741423Y-152359098D01*
X99769090Y-152321891D01*
X99789295Y-152274345D01*
X99800189Y-152227819D01*
X99809323Y-152161322D01*
X99820558Y-152045490D01*
X99609532Y-152045490D01*
X99574523Y-152090242D01*
X99545662Y-152137752D01*
X99526298Y-152189216D01*
X99519651Y-152247723D01*
X99402789Y-152247723D01*
X99403214Y-152239357D01*
X99410047Y-152204370D01*
X99437341Y-152138424D01*
X99470497Y-152087561D01*
X99502920Y-152045490D01*
X99420000Y-152045490D01*
X99420000Y-151917751D01*
X99941946Y-151917751D01*
X100010466Y-151923266D01*
G37*
G36*
X99404368Y-151513040D02*
G01*
X99408508Y-151565295D01*
X99420159Y-151609083D01*
X99438634Y-151645930D01*
X99463902Y-151676988D01*
X99495139Y-151701003D01*
X99535412Y-151719308D01*
X99586858Y-151731322D01*
X99652152Y-151735729D01*
X100073593Y-151735729D01*
X100073593Y-151822496D01*
X100182037Y-151822496D01*
X100182037Y-151735729D01*
X100400879Y-151735729D01*
X100400879Y-151607318D01*
X100182037Y-151607318D01*
X100182037Y-151370952D01*
X100073593Y-151370952D01*
X100073593Y-151607318D01*
X99712114Y-151607318D01*
X99622904Y-151605303D01*
X99592497Y-151600298D01*
X99564347Y-151589549D01*
X99543680Y-151574539D01*
X99528627Y-151551997D01*
X99520056Y-151523469D01*
X99516720Y-151481594D01*
X99519020Y-151450640D01*
X99525879Y-151420839D01*
X99541144Y-151378463D01*
X99541144Y-151370952D01*
X99426167Y-151370952D01*
X99410169Y-151444408D01*
X99404368Y-151513040D01*
G37*
G36*
X99420000Y-151075846D02*
G01*
X99420000Y-151239061D01*
X99615394Y-151239061D01*
X99615394Y-151075846D01*
X99420000Y-151075846D01*
G37*
G36*
X99404368Y-150549624D02*
G01*
X99410604Y-150625995D01*
X99428609Y-150693789D01*
X99459184Y-150754943D01*
X99501943Y-150806507D01*
X99536668Y-150834960D01*
X99577682Y-150859356D01*
X99625835Y-150879596D01*
X99676311Y-150893537D01*
X99734532Y-150902409D01*
X99801629Y-150905547D01*
X99868197Y-150902274D01*
X99925572Y-150893040D01*
X99974980Y-150878558D01*
X100043332Y-150846389D01*
X100097834Y-150806507D01*
X100128214Y-150774326D01*
X100153765Y-150737056D01*
X100174588Y-150694094D01*
X100194726Y-150624882D01*
X100201577Y-150549624D01*
X100197103Y-150487694D01*
X100183808Y-150428419D01*
X100164214Y-150371961D01*
X100142836Y-150324188D01*
X99998367Y-150324188D01*
X99998367Y-150331699D01*
X100024806Y-150366931D01*
X100055336Y-150419138D01*
X100079028Y-150482030D01*
X100086749Y-150518057D01*
X100089225Y-150551700D01*
X100084344Y-150599967D01*
X100070268Y-150641948D01*
X100047119Y-150678966D01*
X100014059Y-150711863D01*
X99975395Y-150736899D01*
X99928289Y-150755767D01*
X99871050Y-150767933D01*
X99801629Y-150772313D01*
X99733565Y-150768098D01*
X99677131Y-150756366D01*
X99630414Y-150738140D01*
X99591824Y-150713939D01*
X99559076Y-150682022D01*
X99535932Y-150645097D01*
X99521704Y-150602170D01*
X99516720Y-150551700D01*
X99523087Y-150490317D01*
X99542121Y-150432144D01*
X99571372Y-150378384D01*
X99607578Y-150331699D01*
X99607578Y-150324188D01*
X99464513Y-150324188D01*
X99442958Y-150372060D01*
X99424213Y-150423961D01*
X99409497Y-150482702D01*
X99404368Y-150549624D01*
G37*
G36*
X99404368Y-149905800D02*
G01*
X99410604Y-149982171D01*
X99428609Y-150049965D01*
X99459184Y-150111119D01*
X99501943Y-150162683D01*
X99536668Y-150191136D01*
X99577682Y-150215531D01*
X99625835Y-150235772D01*
X99676311Y-150249713D01*
X99734532Y-150258585D01*
X99801629Y-150261723D01*
X99868197Y-150258450D01*
X99925572Y-150249215D01*
X99974980Y-150234734D01*
X100043332Y-150202565D01*
X100097834Y-150162683D01*
X100128214Y-150130502D01*
X100153765Y-150093232D01*
X100174588Y-150050270D01*
X100194726Y-149981058D01*
X100201577Y-149905800D01*
X100197103Y-149843870D01*
X100183808Y-149784595D01*
X100164214Y-149728137D01*
X100142836Y-149680364D01*
X99998367Y-149680364D01*
X99998367Y-149687875D01*
X100024806Y-149723107D01*
X100055336Y-149775314D01*
X100079028Y-149838206D01*
X100086749Y-149874233D01*
X100089225Y-149907876D01*
X100084344Y-149956143D01*
X100070268Y-149998124D01*
X100047119Y-150035142D01*
X100014059Y-150068039D01*
X99975395Y-150093075D01*
X99928289Y-150111943D01*
X99871050Y-150124109D01*
X99801629Y-150128489D01*
X99733565Y-150124274D01*
X99677131Y-150112541D01*
X99630414Y-150094316D01*
X99591824Y-150070115D01*
X99559076Y-150038198D01*
X99535932Y-150001273D01*
X99521704Y-149958346D01*
X99516720Y-149907876D01*
X99523087Y-149846493D01*
X99542121Y-149788319D01*
X99571372Y-149734560D01*
X99607578Y-149687875D01*
X99607578Y-149680364D01*
X99464513Y-149680364D01*
X99442958Y-149728236D01*
X99424213Y-149780137D01*
X99409497Y-149838878D01*
X99404368Y-149905800D01*
G37*
G36*
X101120000Y-160740919D02*
G01*
X101559637Y-160740919D01*
X101656601Y-160745010D01*
X101698430Y-160751855D01*
X101726393Y-160762107D01*
X101750179Y-160778805D01*
X101766510Y-160801003D01*
X101775854Y-160828864D01*
X101779455Y-160869330D01*
X101773781Y-160908981D01*
X101755153Y-160954387D01*
X101726692Y-160998985D01*
X101685055Y-161048299D01*
X101657517Y-161046589D01*
X101619781Y-161045551D01*
X101120000Y-161045551D01*
X101120000Y-161174023D01*
X101559637Y-161174023D01*
X101656601Y-161178114D01*
X101698434Y-161184943D01*
X101726393Y-161195150D01*
X101750181Y-161211896D01*
X101766510Y-161234106D01*
X101775854Y-161261968D01*
X101779455Y-161302433D01*
X101773335Y-161343810D01*
X101753443Y-161389872D01*
X101724317Y-161434301D01*
X101687070Y-161478654D01*
X101120000Y-161478654D01*
X101120000Y-161607065D01*
X101882037Y-161607065D01*
X101882037Y-161478654D01*
X101795697Y-161478654D01*
X101841701Y-161426852D01*
X101873916Y-161378576D01*
X101894582Y-161326893D01*
X101901577Y-161269644D01*
X101898013Y-161225390D01*
X101887685Y-161185706D01*
X101870802Y-161149781D01*
X101846890Y-161118680D01*
X101813816Y-161092158D01*
X101769747Y-161070158D01*
X101828706Y-161010558D01*
X101868115Y-160956769D01*
X101886735Y-160918744D01*
X101897834Y-160878883D01*
X101901577Y-160836540D01*
X101897619Y-160788822D01*
X101886250Y-160747025D01*
X101866408Y-160709510D01*
X101836913Y-160676683D01*
X101798772Y-160649940D01*
X101750390Y-160629239D01*
X101695150Y-160617060D01*
X101620392Y-160612447D01*
X101120000Y-160612447D01*
X101120000Y-160740919D01*
G37*
G36*
X101710466Y-159883280D02*
G01*
X101763579Y-159898281D01*
X101809010Y-159924209D01*
X101844851Y-159960441D01*
X101871926Y-160006043D01*
X101889242Y-160057466D01*
X101898201Y-160114531D01*
X101901577Y-160189968D01*
X101898551Y-160254918D01*
X101889364Y-160321127D01*
X101867016Y-160422915D01*
X101737445Y-160422915D01*
X101737445Y-160415404D01*
X101759808Y-160354849D01*
X101775914Y-160295176D01*
X101786180Y-160236710D01*
X101789225Y-160190640D01*
X101784096Y-160117550D01*
X101776110Y-160083965D01*
X101763396Y-160057466D01*
X101745464Y-160035747D01*
X101720898Y-160019181D01*
X101690870Y-160009271D01*
X101648602Y-160005504D01*
X101624117Y-160005504D01*
X101607325Y-160194059D01*
X101590973Y-160277857D01*
X101566720Y-160345734D01*
X101541260Y-160391163D01*
X101511758Y-160425921D01*
X101478121Y-160451613D01*
X101439674Y-160469743D01*
X101395115Y-160481083D01*
X101343176Y-160485075D01*
X101292983Y-160480429D01*
X101245724Y-160466634D01*
X101202652Y-160444752D01*
X101168115Y-160417480D01*
X101139620Y-160382850D01*
X101118229Y-160342986D01*
X101104928Y-160299566D01*
X101100460Y-160253532D01*
X101102789Y-160207737D01*
X101219651Y-160207737D01*
X101223866Y-160253968D01*
X101235299Y-160289108D01*
X101252929Y-160315692D01*
X101277463Y-160335500D01*
X101309516Y-160348015D01*
X101351420Y-160352573D01*
X101388533Y-160348520D01*
X101417953Y-160337225D01*
X101441423Y-160319112D01*
X101469090Y-160281905D01*
X101489295Y-160234359D01*
X101500189Y-160187833D01*
X101509323Y-160121336D01*
X101520558Y-160005504D01*
X101309532Y-160005504D01*
X101274523Y-160050256D01*
X101245662Y-160097766D01*
X101226298Y-160149230D01*
X101219651Y-160207737D01*
X101102789Y-160207737D01*
X101103214Y-160199371D01*
X101110047Y-160164384D01*
X101137341Y-160098438D01*
X101170497Y-160047575D01*
X101202920Y-160005504D01*
X101120000Y-160005504D01*
X101120000Y-159877765D01*
X101641946Y-159877765D01*
X101710466Y-159883280D01*
G37*
G36*
X102182944Y-159238032D02*
G01*
X101849675Y-159238032D01*
X101873316Y-159285158D01*
X101888937Y-159327547D01*
X101898199Y-159371977D01*
X101901577Y-159427259D01*
X101894540Y-159490648D01*
X101873367Y-159551273D01*
X101839760Y-159606084D01*
X101795575Y-159652023D01*
X101737225Y-159692474D01*
X101668142Y-159723770D01*
X101618788Y-159737691D01*
X101561543Y-159746572D01*
X101495218Y-159749720D01*
X101402469Y-159744303D01*
X101325713Y-159729265D01*
X101256318Y-159703748D01*
X101201699Y-159671135D01*
X101157834Y-159629976D01*
X101126289Y-159581315D01*
X101107002Y-159526449D01*
X101100460Y-159466215D01*
X101101993Y-159436174D01*
X101222581Y-159436174D01*
X101227404Y-159482247D01*
X101240916Y-159519445D01*
X101262608Y-159549706D01*
X101293229Y-159574171D01*
X101342380Y-159596505D01*
X101408749Y-159611567D01*
X101497049Y-159617219D01*
X101567569Y-159613083D01*
X101624976Y-159601679D01*
X101671492Y-159584173D01*
X101708991Y-159561226D01*
X101741093Y-159530523D01*
X101763694Y-159495146D01*
X101777545Y-159454171D01*
X101782386Y-159406132D01*
X101780175Y-159362623D01*
X101773838Y-159323822D01*
X101762533Y-159285151D01*
X101743124Y-159238032D01*
X101307456Y-159238032D01*
X101272225Y-159285036D01*
X101245479Y-159334385D01*
X101228160Y-159386100D01*
X101222581Y-159436174D01*
X101101993Y-159436174D01*
X101102383Y-159428520D01*
X101107665Y-159397889D01*
X101127754Y-159341224D01*
X101157796Y-159289994D01*
X101199501Y-159238032D01*
X101120000Y-159238032D01*
X101120000Y-159109621D01*
X102182944Y-159109621D01*
X102182944Y-159238032D01*
G37*
G36*
X101643964Y-158322672D02*
G01*
X101710762Y-158338607D01*
X101769572Y-158365666D01*
X101817252Y-158401439D01*
X101855099Y-158445974D01*
X101881182Y-158497060D01*
X101896220Y-158554246D01*
X101901577Y-158622784D01*
X101894373Y-158699716D01*
X101873644Y-158766739D01*
X101839780Y-158825809D01*
X101791912Y-158878262D01*
X101734688Y-158919659D01*
X101667752Y-158950038D01*
X101589260Y-158969183D01*
X101496866Y-158975959D01*
X101402973Y-158968848D01*
X101325090Y-158948952D01*
X101260345Y-158917647D01*
X101206523Y-158875209D01*
X101163246Y-158821950D01*
X101131538Y-158758480D01*
X101111500Y-158682754D01*
X101104368Y-158592070D01*
X101109863Y-158515195D01*
X101125556Y-158447234D01*
X101146378Y-158387090D01*
X101168604Y-158331097D01*
X101307578Y-158331097D01*
X101307578Y-158338607D01*
X101280345Y-158378236D01*
X101250364Y-158436976D01*
X101237148Y-158471032D01*
X101226123Y-158510432D01*
X101219080Y-158551398D01*
X101216720Y-158593414D01*
X101221505Y-158651903D01*
X101235023Y-158701214D01*
X101256567Y-158743017D01*
X101286207Y-158778550D01*
X101322692Y-158806533D01*
X101367190Y-158827350D01*
X101421366Y-158840681D01*
X101487341Y-158845472D01*
X101586015Y-158845472D01*
X101632701Y-158838391D01*
X101671133Y-158826360D01*
X101705927Y-158808047D01*
X101737812Y-158782641D01*
X101763906Y-158751399D01*
X101782630Y-158717428D01*
X101793897Y-158679210D01*
X101798018Y-158630294D01*
X101793943Y-158580859D01*
X101782936Y-158543222D01*
X101764365Y-158510993D01*
X101739216Y-158485458D01*
X101710974Y-158467717D01*
X101675591Y-158454073D01*
X101636056Y-158445758D01*
X101586015Y-158441739D01*
X101586015Y-158845472D01*
X101487341Y-158845472D01*
X101487341Y-158316748D01*
X101556706Y-158316748D01*
X101643964Y-158322672D01*
G37*
G36*
X101605887Y-157115341D02*
G01*
X101682554Y-157130360D01*
X101746097Y-157153645D01*
X101798628Y-157184438D01*
X101844099Y-157225563D01*
X101875729Y-157272316D01*
X101894915Y-157325817D01*
X101901577Y-157387953D01*
X101898246Y-157435091D01*
X101888592Y-157477676D01*
X101872878Y-157516425D01*
X101840591Y-157570868D01*
X101800521Y-157621571D01*
X102182944Y-157621571D01*
X102182944Y-157749982D01*
X101120000Y-157749982D01*
X101120000Y-157629754D01*
X101157185Y-157621571D01*
X101133686Y-157577880D01*
X101115847Y-157534499D01*
X101104599Y-157487870D01*
X101102168Y-157452861D01*
X101215743Y-157452861D01*
X101218324Y-157496825D01*
X101225696Y-157535537D01*
X101238424Y-157573945D01*
X101259645Y-157621571D01*
X101692566Y-157621571D01*
X101726843Y-157575511D01*
X101754787Y-157524241D01*
X101773461Y-157470124D01*
X101779455Y-157417995D01*
X101774687Y-157373376D01*
X101761309Y-157337318D01*
X101739767Y-157307937D01*
X101709235Y-157284150D01*
X101660427Y-157262627D01*
X101593493Y-157247978D01*
X101503339Y-157242445D01*
X101426635Y-157246767D01*
X101366679Y-157258459D01*
X101320324Y-157276006D01*
X101284924Y-157298499D01*
X101254840Y-157328910D01*
X101233499Y-157364066D01*
X101220351Y-157404908D01*
X101215743Y-157452861D01*
X101102168Y-157452861D01*
X101100460Y-157428253D01*
X101107559Y-157362779D01*
X101128358Y-157304030D01*
X101163216Y-157250371D01*
X101213911Y-157200802D01*
X101272565Y-157162432D01*
X101340830Y-157134130D01*
X101420455Y-157116263D01*
X101513597Y-157109944D01*
X101605887Y-157115341D01*
G37*
G36*
X101882037Y-156378436D02*
G01*
X100838632Y-156789009D01*
X100838632Y-156926273D01*
X101156636Y-156789680D01*
X101882037Y-157067018D01*
X101882037Y-156928349D01*
X101317714Y-156720010D01*
X101882037Y-156512342D01*
X101882037Y-156378436D01*
G37*
G36*
X101505903Y-155492018D02*
G01*
X101505903Y-155877311D01*
X101628025Y-155877311D01*
X101628025Y-155492018D01*
X101505903Y-155492018D01*
G37*
G36*
X101675918Y-153812378D02*
G01*
X101768974Y-153830309D01*
X101852044Y-153859072D01*
X101926465Y-153898319D01*
X101993290Y-153948220D01*
X102050830Y-154008311D01*
X102095560Y-154076352D01*
X102128155Y-154153460D01*
X102148478Y-154241240D01*
X102155589Y-154341695D01*
X102148548Y-154433792D01*
X102127941Y-154518517D01*
X102093996Y-154597197D01*
X102046201Y-154670886D01*
X101983337Y-154740300D01*
X101911283Y-154799211D01*
X101833898Y-154844559D01*
X101750377Y-154877113D01*
X101659626Y-154897038D01*
X101560308Y-154903881D01*
X101454485Y-154897017D01*
X101360019Y-154877253D01*
X101275265Y-154845386D01*
X101198857Y-154801594D01*
X101129769Y-154745429D01*
X101069845Y-154678516D01*
X101023854Y-154606021D01*
X100990865Y-154527123D01*
X100970647Y-154440645D01*
X100963684Y-154345115D01*
X100969302Y-154228672D01*
X100977031Y-154169959D01*
X100988963Y-154112168D01*
X101088736Y-154112168D01*
X101073858Y-154167921D01*
X101063457Y-154227939D01*
X101057449Y-154288430D01*
X101055519Y-154344443D01*
X101061463Y-154426223D01*
X101078618Y-154499263D01*
X101106442Y-154564961D01*
X101145028Y-154624432D01*
X101195104Y-154678445D01*
X101252826Y-154723422D01*
X101317128Y-154758701D01*
X101388927Y-154784510D01*
X101469413Y-154800585D01*
X101560003Y-154806184D01*
X101643127Y-154800683D01*
X101719413Y-154784646D01*
X101789893Y-154758441D01*
X101855426Y-154721979D01*
X101916659Y-154674720D01*
X101970049Y-154618744D01*
X102010785Y-154558223D01*
X102039869Y-154492486D01*
X102057641Y-154420518D01*
X102063754Y-154341024D01*
X102057695Y-154255572D01*
X102040475Y-154181848D01*
X102013013Y-154117967D01*
X101975504Y-154062419D01*
X101927405Y-154014166D01*
X101871664Y-153974574D01*
X101808900Y-153943188D01*
X101738138Y-153920021D01*
X101658165Y-153905493D01*
X101567575Y-153900409D01*
X101503096Y-153903074D01*
X101427440Y-153911706D01*
X101354548Y-153927481D01*
X101301716Y-153948892D01*
X101301716Y-154103986D01*
X101878129Y-154103986D01*
X101878129Y-154212552D01*
X101845340Y-154212552D01*
X101863930Y-154249061D01*
X101877824Y-154284298D01*
X101886631Y-154321756D01*
X101889853Y-154368989D01*
X101884440Y-154419655D01*
X101868292Y-154467286D01*
X101840795Y-154512915D01*
X101800399Y-154557240D01*
X101753672Y-154591847D01*
X101697759Y-154617452D01*
X101630840Y-154633736D01*
X101550600Y-154639549D01*
X101469116Y-154634618D01*
X101402835Y-154621014D01*
X101349145Y-154600105D01*
X101305868Y-154572627D01*
X101268455Y-154536079D01*
X101242543Y-154495826D01*
X101226960Y-154451052D01*
X101221605Y-154400436D01*
X101224230Y-154373813D01*
X101327117Y-154373813D01*
X101334056Y-154422442D01*
X101353436Y-154459250D01*
X101385553Y-154487203D01*
X101426240Y-154505643D01*
X101481142Y-154518076D01*
X101554141Y-154522740D01*
X101634273Y-154516508D01*
X101692473Y-154500045D01*
X101734026Y-154475601D01*
X101766374Y-154440758D01*
X101785529Y-154399974D01*
X101792156Y-154351282D01*
X101789979Y-154316912D01*
X101783546Y-154284298D01*
X101772598Y-154251857D01*
X101755031Y-154213956D01*
X101398681Y-154213956D01*
X101369699Y-154252117D01*
X101347023Y-154291503D01*
X101331995Y-154332793D01*
X101327117Y-154373813D01*
X101224230Y-154373813D01*
X101227724Y-154338375D01*
X101243709Y-154295594D01*
X101268852Y-154256874D01*
X101304769Y-154211209D01*
X101225512Y-154194112D01*
X101225512Y-153906516D01*
X101302577Y-153863859D01*
X101387812Y-153832083D01*
X101477592Y-153812666D01*
X101571299Y-153806132D01*
X101675918Y-153812378D01*
G37*
G36*
X101104368Y-153422854D02*
G01*
X101109569Y-153497712D01*
X101124701Y-153565980D01*
X101146748Y-153629299D01*
X101168176Y-153676256D01*
X101311486Y-153676256D01*
X101311486Y-153669478D01*
X101283093Y-153630887D01*
X101250669Y-153571781D01*
X101224291Y-153499729D01*
X101215704Y-153459817D01*
X101212812Y-153418091D01*
X101219956Y-153352512D01*
X101228708Y-153320174D01*
X101237969Y-153300549D01*
X101254824Y-153279281D01*
X101271308Y-153266111D01*
X101291549Y-153258537D01*
X101324370Y-153255486D01*
X101353705Y-153258591D01*
X101376052Y-153267087D01*
X101393063Y-153280460D01*
X101412622Y-153311238D01*
X101431837Y-153368876D01*
X101446125Y-153433112D01*
X101463832Y-153506202D01*
X101485084Y-153562008D01*
X101511203Y-153603435D01*
X101541807Y-153633269D01*
X101578733Y-153654942D01*
X101620843Y-153668216D01*
X101669424Y-153672836D01*
X101719167Y-153667820D01*
X101762885Y-153653292D01*
X101801857Y-153629310D01*
X101836913Y-153594984D01*
X101864245Y-153554627D01*
X101884377Y-153507555D01*
X101897081Y-153452524D01*
X101901577Y-153387988D01*
X101897706Y-153324619D01*
X101885945Y-153260310D01*
X101867543Y-153199188D01*
X101846561Y-153152355D01*
X101710090Y-153152355D01*
X101710090Y-153159132D01*
X101744400Y-153210952D01*
X101770846Y-153268797D01*
X101787624Y-153329852D01*
X101793133Y-153390736D01*
X101786123Y-153450759D01*
X101766571Y-153497958D01*
X101745850Y-153522270D01*
X101719706Y-153536631D01*
X101686338Y-153541678D01*
X101655707Y-153538433D01*
X101632619Y-153529592D01*
X101615263Y-153515727D01*
X101595298Y-153484805D01*
X101576856Y-153432379D01*
X101562201Y-153368571D01*
X101545532Y-153294443D01*
X101527234Y-153240065D01*
X101503703Y-153198364D01*
X101475373Y-153167009D01*
X101440415Y-153144072D01*
X101396733Y-153129559D01*
X101341955Y-153124328D01*
X101294089Y-153129222D01*
X101249021Y-153143806D01*
X101208345Y-153167740D01*
X101173794Y-153200837D01*
X101143934Y-153244330D01*
X101122076Y-153293405D01*
X101109223Y-153348493D01*
X101104368Y-153422854D01*
G37*
G36*
X101120000Y-152405094D02*
G01*
X101120000Y-152533504D01*
X101552859Y-152533504D01*
X101650495Y-152538633D01*
X101693101Y-152546578D01*
X101722974Y-152558112D01*
X101747995Y-152577000D01*
X101765472Y-152601831D01*
X101775544Y-152632779D01*
X101779455Y-152678340D01*
X101773351Y-152725847D01*
X101753932Y-152777076D01*
X101725021Y-152826678D01*
X101687559Y-152876421D01*
X101120000Y-152876421D01*
X101120000Y-153004832D01*
X102182944Y-153004832D01*
X102182944Y-152876421D01*
X101796064Y-152876421D01*
X101842212Y-152817841D01*
X101874344Y-152763032D01*
X101894771Y-152705485D01*
X101901577Y-152644879D01*
X101896578Y-152589572D01*
X101882389Y-152542777D01*
X101859552Y-152502852D01*
X101827693Y-152468658D01*
X101789441Y-152442366D01*
X101742314Y-152422542D01*
X101684463Y-152409724D01*
X101613614Y-152405094D01*
X101120000Y-152405094D01*
G37*
G36*
X101710466Y-151675743D02*
G01*
X101763579Y-151690744D01*
X101809010Y-151716672D01*
X101844851Y-151752904D01*
X101871926Y-151798507D01*
X101889242Y-151849930D01*
X101898201Y-151906994D01*
X101901577Y-151982431D01*
X101898551Y-152047382D01*
X101889364Y-152113590D01*
X101867016Y-152215378D01*
X101737445Y-152215378D01*
X101737445Y-152207868D01*
X101759808Y-152147312D01*
X101775914Y-152087639D01*
X101786180Y-152029173D01*
X101789225Y-151983103D01*
X101784096Y-151910013D01*
X101776110Y-151876428D01*
X101763396Y-151849930D01*
X101745464Y-151828211D01*
X101720898Y-151811645D01*
X101690870Y-151801735D01*
X101648602Y-151797967D01*
X101624117Y-151797967D01*
X101607325Y-151986523D01*
X101590973Y-152070320D01*
X101566720Y-152138197D01*
X101541260Y-152183627D01*
X101511758Y-152218384D01*
X101478121Y-152244077D01*
X101439674Y-152262206D01*
X101395115Y-152273546D01*
X101343176Y-152277538D01*
X101292983Y-152272893D01*
X101245724Y-152259098D01*
X101202652Y-152237215D01*
X101168115Y-152209944D01*
X101139620Y-152175313D01*
X101118229Y-152135450D01*
X101104928Y-152092029D01*
X101100460Y-152045996D01*
X101102789Y-152000200D01*
X101219651Y-152000200D01*
X101223866Y-152046431D01*
X101235299Y-152081572D01*
X101252929Y-152108155D01*
X101277463Y-152127963D01*
X101309516Y-152140478D01*
X101351420Y-152145036D01*
X101388533Y-152140984D01*
X101417953Y-152129689D01*
X101441423Y-152111575D01*
X101469090Y-152074368D01*
X101489295Y-152026823D01*
X101500189Y-151980296D01*
X101509323Y-151913799D01*
X101520558Y-151797967D01*
X101309532Y-151797967D01*
X101274523Y-151842719D01*
X101245662Y-151890230D01*
X101226298Y-151941693D01*
X101219651Y-152000200D01*
X101102789Y-152000200D01*
X101103214Y-151991834D01*
X101110047Y-151956847D01*
X101137341Y-151890901D01*
X101170497Y-151840038D01*
X101202920Y-151797967D01*
X101120000Y-151797967D01*
X101120000Y-151670228D01*
X101641946Y-151670228D01*
X101710466Y-151675743D01*
G37*
G36*
X101104368Y-151283286D02*
G01*
X101109569Y-151358145D01*
X101124701Y-151426413D01*
X101146748Y-151489732D01*
X101168176Y-151536688D01*
X101311486Y-151536688D01*
X101311486Y-151529911D01*
X101283093Y-151491320D01*
X101250669Y-151432213D01*
X101224291Y-151360162D01*
X101215704Y-151320250D01*
X101212812Y-151278524D01*
X101219956Y-151212944D01*
X101228708Y-151180607D01*
X101237969Y-151160982D01*
X101254824Y-151139713D01*
X101271308Y-151126543D01*
X101291549Y-151118969D01*
X101324370Y-151115919D01*
X101353705Y-151119023D01*
X101376052Y-151127520D01*
X101393063Y-151140893D01*
X101412622Y-151171671D01*
X101431837Y-151229309D01*
X101446125Y-151293545D01*
X101463832Y-151366634D01*
X101485084Y-151422441D01*
X101511203Y-151463867D01*
X101541807Y-151493702D01*
X101578733Y-151515374D01*
X101620843Y-151528649D01*
X101669424Y-151533269D01*
X101719167Y-151528252D01*
X101762885Y-151513724D01*
X101801857Y-151489743D01*
X101836913Y-151455416D01*
X101864245Y-151415060D01*
X101884377Y-151367988D01*
X101897081Y-151312957D01*
X101901577Y-151248421D01*
X101897706Y-151185051D01*
X101885945Y-151120743D01*
X101867543Y-151059621D01*
X101846561Y-151012787D01*
X101710090Y-151012787D01*
X101710090Y-151019565D01*
X101744400Y-151071385D01*
X101770846Y-151129230D01*
X101787624Y-151190284D01*
X101793133Y-151251168D01*
X101786123Y-151311192D01*
X101766571Y-151358391D01*
X101745850Y-151382703D01*
X101719706Y-151397064D01*
X101686338Y-151402110D01*
X101655707Y-151398866D01*
X101632619Y-151390024D01*
X101615263Y-151376160D01*
X101595298Y-151345238D01*
X101576856Y-151292812D01*
X101562201Y-151229003D01*
X101545532Y-151154876D01*
X101527234Y-151100498D01*
X101503703Y-151058797D01*
X101475373Y-151027442D01*
X101440415Y-151004504D01*
X101396733Y-150989991D01*
X101341955Y-150984760D01*
X101294089Y-150989655D01*
X101249021Y-151004239D01*
X101208345Y-151028173D01*
X101173794Y-151061270D01*
X101143934Y-151104762D01*
X101122076Y-151153838D01*
X101109223Y-151208926D01*
X101104368Y-151283286D01*
G37*
G36*
X101120000Y-150265526D02*
G01*
X101120000Y-150393937D01*
X101552859Y-150393937D01*
X101650495Y-150399066D01*
X101693101Y-150407010D01*
X101722974Y-150418545D01*
X101747995Y-150437432D01*
X101765472Y-150462264D01*
X101775544Y-150493212D01*
X101779455Y-150538773D01*
X101773351Y-150586279D01*
X101753932Y-150637508D01*
X101725021Y-150687111D01*
X101687559Y-150736854D01*
X101120000Y-150736854D01*
X101120000Y-150865265D01*
X102182944Y-150865265D01*
X102182944Y-150736854D01*
X101796064Y-150736854D01*
X101842212Y-150678273D01*
X101874344Y-150623464D01*
X101894771Y-150565918D01*
X101901577Y-150505312D01*
X101896578Y-150450005D01*
X101882389Y-150403209D01*
X101859552Y-150363284D01*
X101827693Y-150329091D01*
X101789441Y-150302799D01*
X101742314Y-150282974D01*
X101684463Y-150270157D01*
X101613614Y-150265526D01*
X101120000Y-150265526D01*
G37*
G36*
X101882037Y-149163686D02*
G01*
X101120000Y-149357004D01*
X101120000Y-149475828D01*
X101707404Y-149662308D01*
X101120000Y-149847444D01*
X101120000Y-149965657D01*
X101882037Y-150160990D01*
X101882037Y-150027145D01*
X101291946Y-149892568D01*
X101882037Y-149711523D01*
X101882037Y-149605643D01*
X101291946Y-149419836D01*
X101882037Y-149292768D01*
X101882037Y-149163686D01*
G37*
G36*
X101710466Y-148511333D02*
G01*
X101763579Y-148526334D01*
X101809010Y-148552262D01*
X101844851Y-148588494D01*
X101871926Y-148634096D01*
X101889242Y-148685519D01*
X101898201Y-148742584D01*
X101901577Y-148818021D01*
X101898551Y-148882971D01*
X101889364Y-148949180D01*
X101867016Y-149050968D01*
X101737445Y-149050968D01*
X101737445Y-149043457D01*
X101759808Y-148982902D01*
X101775914Y-148923229D01*
X101786180Y-148864763D01*
X101789225Y-148818693D01*
X101784096Y-148745603D01*
X101776110Y-148712018D01*
X101763396Y-148685519D01*
X101745464Y-148663800D01*
X101720898Y-148647234D01*
X101690870Y-148637324D01*
X101648602Y-148633557D01*
X101624117Y-148633557D01*
X101607325Y-148822112D01*
X101590973Y-148905910D01*
X101566720Y-148973787D01*
X101541260Y-149019216D01*
X101511758Y-149053974D01*
X101478121Y-149079666D01*
X101439674Y-149097796D01*
X101395115Y-149109136D01*
X101343176Y-149113128D01*
X101292983Y-149108482D01*
X101245724Y-149094687D01*
X101202652Y-149072805D01*
X101168115Y-149045533D01*
X101139620Y-149010903D01*
X101118229Y-148971039D01*
X101104928Y-148927619D01*
X101100460Y-148881585D01*
X101102789Y-148835790D01*
X101219651Y-148835790D01*
X101223866Y-148882021D01*
X101235299Y-148917161D01*
X101252929Y-148943745D01*
X101277463Y-148963553D01*
X101309516Y-148976068D01*
X101351420Y-148980626D01*
X101388533Y-148976573D01*
X101417953Y-148965278D01*
X101441423Y-148947165D01*
X101469090Y-148909958D01*
X101489295Y-148862412D01*
X101500189Y-148815886D01*
X101509323Y-148749389D01*
X101520558Y-148633557D01*
X101309532Y-148633557D01*
X101274523Y-148678309D01*
X101245662Y-148725819D01*
X101226298Y-148777283D01*
X101219651Y-148835790D01*
X101102789Y-148835790D01*
X101103214Y-148827424D01*
X101110047Y-148792437D01*
X101137341Y-148726491D01*
X101170497Y-148675628D01*
X101202920Y-148633557D01*
X101120000Y-148633557D01*
X101120000Y-148505818D01*
X101641946Y-148505818D01*
X101710466Y-148511333D01*
G37*
G36*
X101104368Y-148101107D02*
G01*
X101108508Y-148153362D01*
X101120159Y-148197150D01*
X101138634Y-148233997D01*
X101163902Y-148265055D01*
X101195139Y-148289070D01*
X101235412Y-148307375D01*
X101286858Y-148319389D01*
X101352152Y-148323796D01*
X101773593Y-148323796D01*
X101773593Y-148410563D01*
X101882037Y-148410563D01*
X101882037Y-148323796D01*
X102100879Y-148323796D01*
X102100879Y-148195385D01*
X101882037Y-148195385D01*
X101882037Y-147959019D01*
X101773593Y-147959019D01*
X101773593Y-148195385D01*
X101412114Y-148195385D01*
X101322904Y-148193370D01*
X101292497Y-148188365D01*
X101264347Y-148177616D01*
X101243680Y-148162606D01*
X101228627Y-148140064D01*
X101220056Y-148111536D01*
X101216720Y-148069661D01*
X101219020Y-148038707D01*
X101225879Y-148008906D01*
X101241144Y-147966530D01*
X101241144Y-147959019D01*
X101126167Y-147959019D01*
X101110169Y-148032475D01*
X101104368Y-148101107D01*
G37*
D13*
G36*
X96214221Y-172739740D02*
G01*
X95790927Y-172739740D01*
X95790927Y-173983314D01*
X95367632Y-173983314D01*
X95367632Y-172739740D01*
X95367632Y-172325215D01*
X96214221Y-172325215D01*
X96214221Y-172739740D01*
G37*
G36*
X97060811Y-173983314D02*
G01*
X96637516Y-173983314D01*
X96637516Y-173568789D01*
X97060811Y-173568789D01*
X97060811Y-173983314D01*
G37*
G36*
X98330695Y-173983314D02*
G01*
X97907400Y-173983314D01*
X97907400Y-173568789D01*
X98330695Y-173568789D01*
X98330695Y-173983314D01*
G37*
G36*
X99600579Y-173568789D02*
G01*
X99177284Y-173568789D01*
X99177284Y-173983314D01*
X98753990Y-173983314D01*
X98753990Y-173568789D01*
X98753990Y-173154265D01*
X99600579Y-173154265D01*
X99600579Y-173568789D01*
G37*
G36*
X100023874Y-173983314D02*
G01*
X99600579Y-173983314D01*
X99600579Y-173568789D01*
X100023874Y-173568789D01*
X100023874Y-173983314D01*
G37*
G36*
X98330695Y-171496166D02*
G01*
X97907400Y-171496166D01*
X97907400Y-171081642D01*
X98330695Y-171081642D01*
X98330695Y-171496166D01*
G37*
G36*
X100023874Y-171496166D02*
G01*
X100023874Y-171910691D01*
X100447169Y-171910691D01*
X100447169Y-172325215D01*
X102140348Y-172325215D01*
X102140348Y-172739740D01*
X101717053Y-172739740D01*
X101717053Y-173154265D01*
X101717053Y-173568789D01*
X101293758Y-173568789D01*
X101293758Y-173983314D01*
X100870463Y-173983314D01*
X100870463Y-173568789D01*
X100447169Y-173568789D01*
X100447169Y-173154265D01*
X101293758Y-173154265D01*
X101293758Y-172739740D01*
X100023874Y-172739740D01*
X100023874Y-172325215D01*
X99600579Y-172325215D01*
X99600579Y-172739740D01*
X98753990Y-172739740D01*
X98753990Y-173154265D01*
X98330695Y-173154265D01*
X98330695Y-172739740D01*
X97907400Y-172739740D01*
X97907400Y-172325215D01*
X97060811Y-172325215D01*
X97060811Y-171910691D01*
X97060811Y-170667117D01*
X97484106Y-170667117D01*
X97484106Y-171910691D01*
X98753990Y-171910691D01*
X98753990Y-171496166D01*
X98753990Y-171081642D01*
X99177284Y-171081642D01*
X99177284Y-171496166D01*
X99600579Y-171496166D01*
X99600579Y-171081642D01*
X99177284Y-171081642D01*
X98753990Y-171081642D01*
X98753990Y-170667117D01*
X97484106Y-170667117D01*
X97060811Y-170667117D01*
X97060811Y-170252592D01*
X97484106Y-170252592D01*
X97484106Y-169838068D01*
X97060811Y-169838068D01*
X97060811Y-170252592D01*
X96637516Y-170252592D01*
X96637516Y-170667117D01*
X96214221Y-170667117D01*
X96214221Y-170252592D01*
X96214221Y-169838068D01*
X96637516Y-169838068D01*
X96637516Y-169423543D01*
X97484106Y-169423543D01*
X97484106Y-169009018D01*
X97907400Y-169009018D01*
X97907400Y-169423543D01*
X97907400Y-169838068D01*
X97907400Y-170252592D01*
X98753990Y-170252592D01*
X98753990Y-169838068D01*
X99177284Y-169838068D01*
X99177284Y-169423543D01*
X98753990Y-169423543D01*
X98753990Y-169009018D01*
X98753990Y-168594494D01*
X98330695Y-168594494D01*
X98330695Y-169009018D01*
X97907400Y-169009018D01*
X97907400Y-168594494D01*
X97484106Y-168594494D01*
X97484106Y-168179969D01*
X99177284Y-168179969D01*
X99177284Y-168594494D01*
X99177284Y-169009018D01*
X99600579Y-169009018D01*
X99600579Y-169423543D01*
X100023874Y-169423543D01*
X100023874Y-169838068D01*
X99600579Y-169838068D01*
X99600579Y-170252592D01*
X100870463Y-170252592D01*
X100870463Y-169838068D01*
X100447169Y-169838068D01*
X100447169Y-169423543D01*
X101293758Y-169423543D01*
X101293758Y-169838068D01*
X101293758Y-170252592D01*
X102140348Y-170252592D01*
X102140348Y-169838068D01*
X102986937Y-169838068D01*
X102986937Y-170252592D01*
X103833526Y-170252592D01*
X103833526Y-170667117D01*
X102563642Y-170667117D01*
X102563642Y-171081642D01*
X102563642Y-171910691D01*
X101717053Y-171910691D01*
X101717053Y-171081642D01*
X102140348Y-171081642D01*
X102140348Y-170667117D01*
X101717053Y-170667117D01*
X101717053Y-171081642D01*
X101293758Y-171081642D01*
X101293758Y-170667117D01*
X100870463Y-170667117D01*
X100870463Y-171081642D01*
X100447169Y-171081642D01*
X100447169Y-170667117D01*
X100023874Y-170667117D01*
X100023874Y-171081642D01*
X100023874Y-171496166D01*
G37*
G36*
X102563642Y-173983314D02*
G01*
X102140348Y-173983314D01*
X102140348Y-173154265D01*
X102563642Y-173154265D01*
X102563642Y-173983314D01*
G37*
G36*
X105103411Y-173154265D02*
G01*
X103833526Y-173154265D01*
X103833526Y-171910691D01*
X105103411Y-171910691D01*
X105103411Y-173154265D01*
G37*
G36*
X105950000Y-173568789D02*
G01*
X105950000Y-173983314D01*
X102986937Y-173983314D01*
X102986937Y-173568789D01*
X102986937Y-171496166D01*
X103410232Y-171496166D01*
X103410232Y-173568789D01*
X105526705Y-173568789D01*
X105526705Y-171496166D01*
X103410232Y-171496166D01*
X102986937Y-171496166D01*
X102986937Y-171081642D01*
X105950000Y-171081642D01*
X105950000Y-171496166D01*
X105950000Y-173568789D01*
G37*
G36*
X97907400Y-173568789D02*
G01*
X97060811Y-173568789D01*
X97060811Y-173154265D01*
X97907400Y-173154265D01*
X97907400Y-173568789D01*
G37*
G36*
X97060811Y-173154265D02*
G01*
X96214221Y-173154265D01*
X96214221Y-172739740D01*
X97060811Y-172739740D01*
X97060811Y-173154265D01*
G37*
G36*
X96637516Y-172325215D02*
G01*
X96214221Y-172325215D01*
X96214221Y-171910691D01*
X96637516Y-171910691D01*
X96637516Y-172325215D01*
G37*
G36*
X95790927Y-171496166D02*
G01*
X96214221Y-171496166D01*
X96214221Y-171910691D01*
X95367632Y-171910691D01*
X95367632Y-171496166D01*
X95367632Y-171081642D01*
X95790927Y-171081642D01*
X95790927Y-171496166D01*
G37*
G36*
X101293758Y-171496166D02*
G01*
X100870463Y-171496166D01*
X100870463Y-171081642D01*
X101293758Y-171081642D01*
X101293758Y-171496166D01*
G37*
G36*
X105103411Y-170667117D02*
G01*
X104680116Y-170667117D01*
X104680116Y-170252592D01*
X105103411Y-170252592D01*
X105103411Y-170667117D01*
G37*
G36*
X104256821Y-168179969D02*
G01*
X103833526Y-168179969D01*
X103833526Y-168594494D01*
X104256821Y-168594494D01*
X104256821Y-168179969D01*
X105103411Y-168179969D01*
X105103411Y-168594494D01*
X105950000Y-168594494D01*
X105950000Y-169009018D01*
X105950000Y-170667117D01*
X105526705Y-170667117D01*
X105526705Y-169009018D01*
X105103411Y-169009018D01*
X105103411Y-169423543D01*
X104680116Y-169423543D01*
X104680116Y-170252592D01*
X104256821Y-170252592D01*
X104256821Y-169423543D01*
X104256821Y-169009018D01*
X104680116Y-169009018D01*
X104680116Y-168594494D01*
X104256821Y-168594494D01*
X104256821Y-169009018D01*
X102986937Y-169009018D01*
X102986937Y-169423543D01*
X102140348Y-169423543D01*
X102140348Y-169009018D01*
X102563642Y-169009018D01*
X102563642Y-168594494D01*
X103410232Y-168594494D01*
X103410232Y-168179969D01*
X102563642Y-168179969D01*
X102563642Y-167765444D01*
X104256821Y-167765444D01*
X104256821Y-168179969D01*
G37*
G36*
X96214221Y-169423543D02*
G01*
X96214221Y-169838068D01*
X95790927Y-169838068D01*
X95790927Y-170252592D01*
X95367632Y-170252592D01*
X95367632Y-169838068D01*
X95367632Y-169423543D01*
X95790927Y-169423543D01*
X95790927Y-169009018D01*
X96214221Y-169009018D01*
X96214221Y-169423543D01*
G37*
G36*
X98753990Y-169838068D02*
G01*
X98330695Y-169838068D01*
X98330695Y-169423543D01*
X98753990Y-169423543D01*
X98753990Y-169838068D01*
G37*
G36*
X102140348Y-169838068D02*
G01*
X101717053Y-169838068D01*
X101717053Y-169423543D01*
X102140348Y-169423543D01*
X102140348Y-169838068D01*
G37*
G36*
X103833526Y-169838068D02*
G01*
X102986937Y-169838068D01*
X102986937Y-169423543D01*
X103833526Y-169423543D01*
X103833526Y-169838068D01*
G37*
G36*
X100447169Y-169423543D02*
G01*
X100023874Y-169423543D01*
X100023874Y-169009018D01*
X100447169Y-169009018D01*
X100447169Y-169423543D01*
G37*
G36*
X97484106Y-167350920D02*
G01*
X97907400Y-167350920D01*
X97907400Y-167765444D01*
X97060811Y-167765444D01*
X97060811Y-168594494D01*
X96637516Y-168594494D01*
X96637516Y-167765444D01*
X96214221Y-167765444D01*
X96214221Y-168179969D01*
X95790927Y-168179969D01*
X95790927Y-169009018D01*
X95367632Y-169009018D01*
X95367632Y-168179969D01*
X95367632Y-167765444D01*
X95790927Y-167765444D01*
X95790927Y-167350920D01*
X96637516Y-167350920D01*
X96637516Y-166936395D01*
X97484106Y-166936395D01*
X97484106Y-167350920D01*
G37*
G36*
X100870463Y-168594494D02*
G01*
X101293758Y-168594494D01*
X101293758Y-169009018D01*
X100447169Y-169009018D01*
X100447169Y-168594494D01*
X100447169Y-168179969D01*
X100870463Y-168179969D01*
X100870463Y-168594494D01*
G37*
G36*
X102563642Y-168594494D02*
G01*
X102140348Y-168594494D01*
X102140348Y-169009018D01*
X101717053Y-169009018D01*
X101717053Y-168594494D01*
X101717053Y-168179969D01*
X102563642Y-168179969D01*
X102563642Y-168594494D01*
G37*
G36*
X100447169Y-167350920D02*
G01*
X100870463Y-167350920D01*
X100870463Y-167765444D01*
X100447169Y-167765444D01*
X100447169Y-168179969D01*
X100023874Y-168179969D01*
X100023874Y-168594494D01*
X99600579Y-168594494D01*
X99600579Y-168179969D01*
X99177284Y-168179969D01*
X99177284Y-167765444D01*
X98753990Y-167765444D01*
X98753990Y-167350920D01*
X100023874Y-167350920D01*
X100023874Y-166936395D01*
X100447169Y-166936395D01*
X100447169Y-167350920D01*
G37*
G36*
X101717053Y-168179969D02*
G01*
X101293758Y-168179969D01*
X101293758Y-167765444D01*
X101717053Y-167765444D01*
X101717053Y-168179969D01*
G37*
G36*
X102140348Y-167350920D02*
G01*
X102563642Y-167350920D01*
X102563642Y-167765444D01*
X101717053Y-167765444D01*
X101717053Y-167350920D01*
X101717053Y-166936395D01*
X102140348Y-166936395D01*
X102140348Y-167350920D01*
G37*
G36*
X104680116Y-167765444D02*
G01*
X104256821Y-167765444D01*
X104256821Y-167350920D01*
X104680116Y-167350920D01*
X104680116Y-167765444D01*
G37*
G36*
X101717053Y-166521870D02*
G01*
X101717053Y-166936395D01*
X101293758Y-166936395D01*
X101293758Y-167350920D01*
X100870463Y-167350920D01*
X100870463Y-166936395D01*
X100870463Y-166521870D01*
X101293758Y-166521870D01*
X101293758Y-166107346D01*
X101717053Y-166107346D01*
X101717053Y-166521870D01*
G37*
G36*
X103833526Y-167350920D02*
G01*
X102563642Y-167350920D01*
X102563642Y-166936395D01*
X103833526Y-166936395D01*
X103833526Y-167350920D01*
G37*
G36*
X105950000Y-167350920D02*
G01*
X105103411Y-167350920D01*
X105103411Y-166936395D01*
X105950000Y-166936395D01*
X105950000Y-167350920D01*
G37*
G36*
X100023874Y-166521870D02*
G01*
X100023874Y-166936395D01*
X98753990Y-166936395D01*
X98753990Y-166521870D01*
X98753990Y-166107346D01*
X99177284Y-166107346D01*
X99177284Y-166521870D01*
X99600579Y-166521870D01*
X99600579Y-165692821D01*
X100023874Y-165692821D01*
X100023874Y-166521870D01*
G37*
G36*
X97484106Y-165692821D02*
G01*
X96214221Y-165692821D01*
X96214221Y-164449247D01*
X97484106Y-164449247D01*
X97484106Y-165692821D01*
G37*
G36*
X98330695Y-166107346D02*
G01*
X98330695Y-166521870D01*
X95367632Y-166521870D01*
X95367632Y-166107346D01*
X95367632Y-164034723D01*
X95790927Y-164034723D01*
X95790927Y-166107346D01*
X97907400Y-166107346D01*
X97907400Y-164034723D01*
X95790927Y-164034723D01*
X95367632Y-164034723D01*
X95367632Y-163620198D01*
X98330695Y-163620198D01*
X98330695Y-164034723D01*
X98330695Y-166107346D01*
G37*
G36*
X101293758Y-166107346D02*
G01*
X100870463Y-166107346D01*
X100870463Y-166521870D01*
X100447169Y-166521870D01*
X100447169Y-166107346D01*
X100447169Y-165692821D01*
X101293758Y-165692821D01*
X101293758Y-166107346D01*
G37*
G36*
X102563642Y-166521870D02*
G01*
X102140348Y-166521870D01*
X102140348Y-166107346D01*
X102563642Y-166107346D01*
X102563642Y-166521870D01*
G37*
G36*
X105103411Y-165692821D02*
G01*
X103833526Y-165692821D01*
X103833526Y-164449247D01*
X105103411Y-164449247D01*
X105103411Y-165692821D01*
G37*
G36*
X105950000Y-166107346D02*
G01*
X105950000Y-166521870D01*
X102986937Y-166521870D01*
X102986937Y-166107346D01*
X102986937Y-164034723D01*
X103410232Y-164034723D01*
X103410232Y-166107346D01*
X105526705Y-166107346D01*
X105526705Y-164034723D01*
X103410232Y-164034723D01*
X102986937Y-164034723D01*
X102986937Y-163620198D01*
X105950000Y-163620198D01*
X105950000Y-164034723D01*
X105950000Y-166107346D01*
G37*
G36*
X99177284Y-165692821D02*
G01*
X98753990Y-165692821D01*
X98753990Y-164863772D01*
X99177284Y-164863772D01*
X99177284Y-165692821D01*
G37*
G36*
X100870463Y-164863772D02*
G01*
X100870463Y-165278297D01*
X100447169Y-165278297D01*
X100447169Y-165692821D01*
X100023874Y-165692821D01*
X100023874Y-165278297D01*
X100023874Y-164863772D01*
X100447169Y-164863772D01*
X100447169Y-164449247D01*
X100870463Y-164449247D01*
X100870463Y-164863772D01*
G37*
G36*
X102563642Y-165278297D02*
G01*
X102563642Y-165692821D01*
X101717053Y-165692821D01*
X101717053Y-165278297D01*
X102140348Y-165278297D01*
X102140348Y-164863772D01*
X102563642Y-164863772D01*
X102563642Y-165278297D01*
G37*
G36*
X100023874Y-164034723D02*
G01*
X100447169Y-164034723D01*
X100447169Y-164449247D01*
X100023874Y-164449247D01*
X100023874Y-164863772D01*
X99600579Y-164863772D01*
X99600579Y-164449247D01*
X99600579Y-164034723D01*
X99600579Y-163620198D01*
X100023874Y-163620198D01*
X100023874Y-164034723D01*
G37*
G36*
X99177284Y-164449247D02*
G01*
X98753990Y-164449247D01*
X98753990Y-164034723D01*
X99177284Y-164034723D01*
X99177284Y-164449247D01*
G37*
G36*
X102140348Y-164449247D02*
G01*
X101293758Y-164449247D01*
X101293758Y-164034723D01*
X102140348Y-164034723D01*
X102140348Y-164449247D01*
G37*
G36*
X101293758Y-164034723D02*
G01*
X100447169Y-164034723D01*
X100447169Y-163620198D01*
X101293758Y-163620198D01*
X101293758Y-164034723D01*
G37*
M02*
