M48
; DRILL file KiCad 10.0.3 date 2026-07-20T10:22:46
; FORMAT={-:-/ absolute / metric / decimal}
; #@! TF.CreationDate,2026-07-20T10:22:46-07:00
; #@! TF.GenerationSoftware,Kicad,Pcbnew,10.0.3
; #@! TF.FileFunction,Plated,1,2,PTH
FMAT,2
METRIC
; #@! TA.AperFunction,Plated,PTH,ComponentDrill
T1C0.200
; #@! TA.AperFunction,Plated,PTH,ViaDrill
T2C0.300
; #@! TA.AperFunction,Plated,PTH,ComponentDrill
T3C0.600
; #@! TA.AperFunction,Plated,PTH,ComponentDrill
T4C0.800
; #@! TA.AperFunction,Plated,PTH,ComponentDrill
T5C0.900
; #@! TA.AperFunction,Plated,PTH,ComponentDrill
T6C0.950
; #@! TA.AperFunction,Plated,PTH,ComponentDrill
T7C1.000
; #@! TA.AperFunction,Plated,PTH,ComponentDrill
T8C1.100
; #@! TA.AperFunction,Plated,PTH,ComponentDrill
T9C1.500
%
G90
G05
T1
X94.99Y-64.435
X94.99Y-65.835
X95.69Y-63.735
X95.69Y-65.135
X95.69Y-66.535
X96.39Y-64.435
X96.39Y-65.835
X97.09Y-63.735
X97.09Y-65.135
X97.09Y-66.535
X97.79Y-64.435
X97.79Y-65.835
T2
X89.75Y-100.374
X90.15Y-99.6
X90.4Y-58.685
X90.9Y-127.0
X90.99Y-60.675
X91.35Y-99.6
X91.35Y-100.4
X91.8Y-78.6
X92.45Y-84.85
X93.0Y-129.1
X93.3Y-128.014
X96.75Y-84.85
X97.7Y-82.2
X98.5Y-91.175
X98.6Y-139.3
X98.6Y-141.6
X98.7Y-144.1
X98.9Y-77.3
X99.762Y-80.3
X103.6Y-84.7
X104.46Y-70.5
X104.46Y-71.5
X104.46Y-72.5
X104.5Y-69.5
T4
X103.6Y-139.9
X103.6Y-143.4
T5
X89.7Y-118.4
X89.7Y-120.4
X89.7Y-122.4
X90.7Y-137.98
X90.7Y-139.25
X90.7Y-140.52
X90.7Y-141.79
T6
X90.355Y-148.5
X90.355Y-151.0
X90.355Y-153.5
T7
X90.255Y-170.05
X90.255Y-172.55
X90.355Y-160.55
X90.355Y-163.05
T8
X101.495Y-115.782
X105.305Y-115.782
T9
X89.7Y-116.3
X89.7Y-124.5
T3
X89.04Y-81.105G85X88.44Y-81.105
G05
X89.04Y-89.745G85X88.44Y-89.745
G05
X93.47Y-81.105G85X92.37Y-81.105
G05
X93.47Y-89.745G85X92.37Y-89.745
G05
M30
