%TF.GenerationSoftware,KiCad,Pcbnew,10.0.3*%
%TF.CreationDate,2026-07-20T10:22:45-07:00*%
%TF.ProjectId,mosaic-x3,6d6f7361-6963-42d7-9833-2e6b69636164,rev?*%
%TF.SameCoordinates,Original*%
%TF.FileFunction,Soldermask,Top*%
%TF.FilePolarity,Negative*%
%FSLAX46Y46*%
G04 Gerber Fmt 4.6, Leading zero omitted, Abs format (unit mm)*
G04 Created by KiCad (PCBNEW 10.0.3) date 2026-07-20 10:22:45*
%MOMM*%
%LPD*%
G01*
G04 APERTURE LIST*
G04 Aperture macros list*
%AMRoundRect*
0 Rectangle with rounded corners*
0 $1 Rounding radius*
0 $2 $3 $4 $5 $6 $7 $8 $9 X,Y pos of 4 corners*
0 Add a 4 corners polygon primitive as box body*
4,1,4,$2,$3,$4,$5,$6,$7,$8,$9,$2,$3,0*
0 Add four circle primitives for the rounded corners*
1,1,$1+$1,$2,$3*
1,1,$1+$1,$4,$5*
1,1,$1+$1,$6,$7*
1,1,$1+$1,$8,$9*
0 Add four rect primitives between the rounded corners*
20,1,$1+$1,$2,$3,$4,$5,0*
20,1,$1+$1,$4,$5,$6,$7,0*
20,1,$1+$1,$6,$7,$8,$9,0*
20,1,$1+$1,$8,$9,$2,$3,0*%
G04 Aperture macros list end*
%ADD10RoundRect,0.250000X0.250000X0.475000X-0.250000X0.475000X-0.250000X-0.475000X0.250000X-0.475000X0*%
%ADD11RoundRect,0.250000X-0.350000X-0.450000X0.350000X-0.450000X0.350000X0.450000X-0.350000X0.450000X0*%
%ADD12RoundRect,0.250000X-0.550000X0.550000X-0.550000X-0.550000X0.550000X-0.550000X0.550000X0.550000X0*%
%ADD13C,1.600000*%
%ADD14RoundRect,0.375000X0.625000X0.375000X-0.625000X0.375000X-0.625000X-0.375000X0.625000X-0.375000X0*%
%ADD15RoundRect,0.500000X0.500000X1.400000X-0.500000X1.400000X-0.500000X-1.400000X0.500000X-1.400000X0*%
%ADD16RoundRect,0.250000X0.475000X-0.250000X0.475000X0.250000X-0.475000X0.250000X-0.475000X-0.250000X0*%
%ADD17RoundRect,0.375000X0.375000X-0.625000X0.375000X0.625000X-0.375000X0.625000X-0.375000X-0.625000X0*%
%ADD18RoundRect,0.500000X1.400000X-0.500000X1.400000X0.500000X-1.400000X0.500000X-1.400000X-0.500000X0*%
%ADD19RoundRect,0.250000X-0.450000X0.262500X-0.450000X-0.262500X0.450000X-0.262500X0.450000X0.262500X0*%
%ADD20RoundRect,0.250000X-0.475000X0.250000X-0.475000X-0.250000X0.475000X-0.250000X0.475000X0.250000X0*%
%ADD21O,3.500000X2.200000*%
%ADD22R,2.500000X1.500000*%
%ADD23O,2.500000X1.500000*%
%ADD24RoundRect,0.250000X0.262500X0.450000X-0.262500X0.450000X-0.262500X-0.450000X0.262500X-0.450000X0*%
%ADD25RoundRect,0.250000X0.725000X-0.600000X0.725000X0.600000X-0.725000X0.600000X-0.725000X-0.600000X0*%
%ADD26O,1.950000X1.700000*%
%ADD27RoundRect,0.250000X-0.650000X1.000000X-0.650000X-1.000000X0.650000X-1.000000X0.650000X1.000000X0*%
%ADD28C,0.650000*%
%ADD29RoundRect,0.150000X-0.575000X0.150000X-0.575000X-0.150000X0.575000X-0.150000X0.575000X0.150000X0*%
%ADD30RoundRect,0.075000X-0.650000X0.075000X-0.650000X-0.075000X0.650000X-0.075000X0.650000X0.075000X0*%
%ADD31O,2.100000X1.000000*%
%ADD32O,1.600000X1.000000*%
%ADD33RoundRect,0.250000X-0.262500X-0.450000X0.262500X-0.450000X0.262500X0.450000X-0.262500X0.450000X0*%
%ADD34R,1.100000X1.800000*%
%ADD35RoundRect,0.250001X0.799999X2.474999X-0.799999X2.474999X-0.799999X-2.474999X0.799999X-2.474999X0*%
%ADD36RoundRect,0.250000X0.750000X0.750000X-0.750000X0.750000X-0.750000X-0.750000X0.750000X-0.750000X0*%
%ADD37C,2.000000*%
%ADD38RoundRect,0.250000X0.750000X-0.600000X0.750000X0.600000X-0.750000X0.600000X-0.750000X-0.600000X0*%
%ADD39O,2.000000X1.700000*%
%ADD40C,2.700000*%
%ADD41RoundRect,0.150000X-0.150000X0.825000X-0.150000X-0.825000X0.150000X-0.825000X0.150000X0.825000X0*%
%ADD42R,1.500000X0.900000*%
%ADD43R,0.900000X1.500000*%
%ADD44C,0.600000*%
%ADD45R,3.900000X3.900000*%
%ADD46R,1.800000X1.070000*%
%ADD47O,1.800000X1.070000*%
%ADD48RoundRect,0.250000X-0.250000X-0.475000X0.250000X-0.475000X0.250000X0.475000X-0.250000X0.475000X0*%
G04 APERTURE END LIST*
D10*
%TO.C,C7*%
X102890000Y-78675000D03*
X100990000Y-78675000D03*
%TD*%
D11*
%TO.C,R8*%
X95200000Y-141600000D03*
X97200000Y-141600000D03*
%TD*%
D12*
%TO.C,C1*%
X103600000Y-139900000D03*
D13*
X103600000Y-143400000D03*
%TD*%
D14*
%TO.C,U1*%
X96050000Y-134300000D03*
X96050000Y-132000000D03*
D15*
X89750000Y-132000000D03*
D14*
X96050000Y-129700000D03*
%TD*%
D16*
%TO.C,C8*%
X98390000Y-97625000D03*
X98390000Y-95725000D03*
%TD*%
D17*
%TO.C,Q1*%
X101800000Y-134850000D03*
X104100000Y-134850000D03*
D18*
X104100000Y-128550000D03*
D17*
X106400000Y-134850000D03*
%TD*%
D19*
%TO.C,R6*%
X96200000Y-124987500D03*
X96200000Y-126812500D03*
%TD*%
D20*
%TO.C,C2*%
X98900000Y-129650000D03*
X98900000Y-131550000D03*
%TD*%
D10*
%TO.C,C5*%
X90840000Y-78675000D03*
X88940000Y-78675000D03*
%TD*%
D21*
%TO.C,SW1*%
X89700000Y-116300000D03*
X89700000Y-124500000D03*
D22*
X89700000Y-118400000D03*
D23*
X89700000Y-120400000D03*
X89700000Y-122400000D03*
%TD*%
D24*
%TO.C,R5*%
X91712500Y-144300000D03*
X89887500Y-144300000D03*
%TD*%
D11*
%TO.C,R9*%
X95200000Y-139300000D03*
X97200000Y-139300000D03*
%TD*%
D25*
%TO.C,J3*%
X90355000Y-153500000D03*
D26*
X90355000Y-151000000D03*
X90355000Y-148500000D03*
%TD*%
D27*
%TO.C,D1*%
X96300000Y-117000000D03*
X96300000Y-121000000D03*
%TD*%
D28*
%TO.C,J2*%
X92390000Y-82535000D03*
X92390000Y-88315000D03*
D29*
X93835000Y-82175000D03*
X93835000Y-82975000D03*
D30*
X93835000Y-84175000D03*
X93835000Y-85175000D03*
X93835000Y-85675000D03*
X93835000Y-86675000D03*
D29*
X93835000Y-87875000D03*
X93835000Y-88675000D03*
X93835000Y-88675000D03*
X93835000Y-87875000D03*
D30*
X93835000Y-87175000D03*
X93835000Y-86175000D03*
X93835000Y-84675000D03*
X93835000Y-83675000D03*
D29*
X93835000Y-82975000D03*
X93835000Y-82175000D03*
D31*
X92920000Y-81105000D03*
D32*
X88740000Y-81105000D03*
D31*
X92920000Y-89745000D03*
D32*
X88740000Y-89745000D03*
%TD*%
D33*
%TO.C,R1*%
X98787500Y-81000000D03*
X100612500Y-81000000D03*
%TD*%
D20*
%TO.C,C3*%
X98900000Y-133750000D03*
X98900000Y-135650000D03*
%TD*%
D34*
%TO.C,SW3*%
X103190000Y-87875000D03*
X103190000Y-81675000D03*
X106890000Y-87875000D03*
X106890000Y-81675000D03*
%TD*%
D10*
%TO.C,C6*%
X98840000Y-78675000D03*
X96940000Y-78675000D03*
%TD*%
D35*
%TO.C,F1*%
X106775000Y-123600000D03*
X99825000Y-123600000D03*
%TD*%
D36*
%TO.C,J1*%
X105305000Y-115782500D03*
D37*
X101495000Y-115782500D03*
%TD*%
D38*
%TO.C,J5*%
X90255000Y-172550000D03*
D39*
X90255000Y-170050000D03*
%TD*%
D40*
%TO.C,REF\u002A\u002A*%
X105000000Y-173300000D03*
%TD*%
D34*
%TO.C,SW2*%
X103190000Y-96875000D03*
X103190000Y-90675000D03*
X106890000Y-96875000D03*
X106890000Y-90675000D03*
%TD*%
D40*
%TO.C,REF\u002A\u002A*%
X104400000Y-101500000D03*
%TD*%
D41*
%TO.C,U3*%
X96430000Y-92675000D03*
X95160000Y-92675000D03*
X93890000Y-92675000D03*
X92620000Y-92675000D03*
X91350000Y-92675000D03*
X90080000Y-92675000D03*
X88810000Y-92675000D03*
X88810000Y-97625000D03*
X90080000Y-97625000D03*
X91350000Y-97625000D03*
X92620000Y-97625000D03*
X93890000Y-97625000D03*
X95160000Y-97625000D03*
X96430000Y-97625000D03*
%TD*%
D42*
%TO.C,U2*%
X89140000Y-57415000D03*
X89140000Y-58685000D03*
X89140000Y-59955000D03*
X89140000Y-61225000D03*
X89140000Y-62495000D03*
X89140000Y-63765000D03*
X89140000Y-65035000D03*
X89140000Y-66305000D03*
X89140000Y-67575000D03*
X89140000Y-68845000D03*
X89140000Y-70115000D03*
X89140000Y-71385000D03*
X89140000Y-72655000D03*
X89140000Y-73925000D03*
D43*
X90905000Y-75175000D03*
X92175000Y-75175000D03*
X93445000Y-75175000D03*
X94715000Y-75175000D03*
X95985000Y-75175000D03*
X97255000Y-75175000D03*
X98525000Y-75175000D03*
X99795000Y-75175000D03*
X101065000Y-75175000D03*
X102335000Y-75175000D03*
X103605000Y-75175000D03*
X104875000Y-75175000D03*
D42*
X106640000Y-73925000D03*
X106640000Y-72655000D03*
X106640000Y-71385000D03*
X106640000Y-70115000D03*
X106640000Y-68845000D03*
X106640000Y-67575000D03*
X106640000Y-66305000D03*
X106640000Y-65035000D03*
X106640000Y-63765000D03*
X106640000Y-62495000D03*
X106640000Y-61225000D03*
X106640000Y-59955000D03*
X106640000Y-58685000D03*
X106640000Y-57415000D03*
D44*
X94990000Y-64435000D03*
X94990000Y-65835000D03*
X95690000Y-63735000D03*
X95690000Y-65135000D03*
X95690000Y-66535000D03*
X96390000Y-64435000D03*
D45*
X96390000Y-65135000D03*
D44*
X96390000Y-65835000D03*
X97090000Y-63735000D03*
X97090000Y-65135000D03*
X97090000Y-66535000D03*
X97790000Y-64435000D03*
X97790000Y-65835000D03*
%TD*%
D46*
%TO.C,D2*%
X90700000Y-141790000D03*
D47*
X90700000Y-140520000D03*
X90700000Y-139250000D03*
X90700000Y-137980000D03*
%TD*%
D24*
%TO.C,R2*%
X106802500Y-78675000D03*
X104977500Y-78675000D03*
%TD*%
D11*
%TO.C,R7*%
X95200000Y-144000000D03*
X97200000Y-144000000D03*
%TD*%
D19*
%TO.C,R3*%
X98140000Y-87262500D03*
X98140000Y-89087500D03*
%TD*%
%TO.C,R4*%
X98140000Y-83262500D03*
X98140000Y-85087500D03*
%TD*%
D38*
%TO.C,J4*%
X90355000Y-163050000D03*
D39*
X90355000Y-160550000D03*
%TD*%
D48*
%TO.C,C4*%
X92690000Y-78675000D03*
X94590000Y-78675000D03*
%TD*%
M02*
